{
.appVersion = FontCreator15.0.0.3039;
.formatVersion = 3;
axes = (
{
name = "Element Shape";
tag = ELSH;
}
);
customParameters = (
{
name = fsType;
value = (
8
);
},
{
name = "Use Typo Metrics";
value = 1;
},
{
name = "Variable Font Origin";
value = m000;
}
);
date = "2024-04-26 18:30:00";
familyName = ArioFaNum;
featurePrefixes = (
{
automatic = 1;
code = "languagesystem DFLT dflt;
languagesystem latn dflt; # Latin default
languagesystem latn AZE;  # Latin Azerbaijani
languagesystem latn TRK;  # Latin Turkish
languagesystem arab dflt; # Arabic default
languagesystem arab FAR;  # Arabic Persian
languagesystem arab KUR;  # Arabic Kurdish
languagesystem arab URD;  # Arabic Urdu
";
name = Languagesystems;
},
{
code = "
#
# Global glyph class definitions
#

@KernClass_V = [V W];
@KernClass_A = [A Agrave Aacute Acircumflex Atilde Adieresis Aring];
@KernClass_J = [J];
@KernClass_a = [a s u agrave aacute acircumflex atilde adieresis aring ugrave uacute ucircumflex udieresis];
@KernClass_c = [c-e g o q ccedilla egrave eacute ecircumflex edieresis ograve oacute ocircumflex otilde odieresis oslash];
@KernClass_n = [n p r z ntilde];
@KernClass_T = [T];
@KernClass_Y = [Y];
@KernClass_v = [v w y];
@KernClass_x = [x];
@KernClass_F = [F];
@KernClass_L = [L];
@KernClass_P = [P];
@KernClass_R = [R];
@KernClass_backslash = [backslash];
@KernClass1 = [four];
@KernClass_one = [one];
@KernClass_seven = [seven];
@KernClass_k = [k x];
@KernClass_slash = [slash];
@group-dotless-3 = [peh-arab.init peh-arab.medi farsiyeh-arab.init farsiyeh-arab.medi uE028 uE029];
@group-dotless-4 = [beh-arab.init.1 beh-arab.medi.1 peh-arab.init.1 peh-arab.medi.1 farsiyeh-arab.init.1 farsiyeh-arab.medi.1 uE046 uE062];

glyphs = (
{
glyphname = .notdef;
layers = (
{
layerId = m000;
shapes = (
{
closed = 1;
nodes = (
(1150,0,l),
(150,0,l),
(150,1400,l),
(1150,1400,l)
);
},
{
closed = 1;
nodes = (
(250,1300,l),
(250,100,l),
(1050,100,l),
(1050,1300,l)
);
}
);
width = 1300;
}
);
},
{
glyphname = "rialsign-arab.isol";
layers = (
{
layerId = m000;
shapes = (
{
closed = 1;
nodes = (
(3293,790,q),
(3742,943,l),
(3795,768,o),
(3874,419,o),
(3874,268,qs),
(3874,-31,o),
(3516,-432,o),
(3139,-566,q),
(2919,-116,l),
(3160,-42,o),
(3407,124,o),
(3407,269,qs),
(3407,332,o),
(3374,511,o),
(3322,706,o)
);
},
{
closed = 1;
nodes = (
(2054,-213,l),
(2754,-151,l),
(2754,-503,l),
(2054,-562,l)
);
},
{
closed = 1;
nodes = (
(1720,1536,l),
(2197,1556,l),
(2197,594,l),
(2197,537,o),
(2273,504,o),
(2353,504,qs),
(2354,504,l),
(2354,0,l),
(2293,0,l),
(2036,0,o),
(1720,355,o),
(1720,702,qs)
);
},
{
closed = 1;
nodes = (
(773,9,qs),
(915,9,o),
(1050,130,o),
(1050,256,qs),
(1070,1056,o),
(1050,1536,q),
(1530,1556,l),
(1550,1056,o),
(1530,215,qs),
(1530,10,o),
(1328,-310,o),
(971,-495,o),
(740,-495,qs),
(410,-495,o),
(70,-143,o),
(70,191,qs),
(70,250,o),
(90,455,o),
(140,707,q),
(569,605,l),
(534,432,o),
(520,273,o),
(520,229,qs),
(520,110,o),
(635,9,o)
);
},
{
closed = 1;
nodes = (
(2293,504,o),
(2354,504,qs),
(2443,504,o),
(2500,511,o),
(2578,524,o),
(2620,535,q),
(2531,901,l),
(2978,1003,l),
(3001,898,o),
(3030,679,o),
(3030,598,qs),
(3030,374,o),
(2844,102,o),
(2541,0,o),
(2354,0,qs),
(2293,0,o),
(2293,253,qs)
);
}
);
width = 3944;
}
);
unicode = 65020;
},
{
glyphname = "percentsign-arab";
layers = (
{
layerId = m000;
shapes = (
{
closed = 1;
nodes = (
(1515,562,l),
(1798,280,l),
(1515,0,l),
(1238,280,l)
);
},
{
closed = 1;
nodes = (
(474,1567,l),
(757,1285,l),
(474,1005,l),
(197,1285,l)
);
},
{
closed = 1;
nodes = (
(1179,1564,l),
(1530,1564,l),
(739,0,l),
(392,0,l)
);
}
);
width = 1994;
}
);
unicode = 1642;
},
{
glyphname = "fivepointedstar-arab";
layers = (
{
layerId = m000;
shapes = (
{
closed = 1;
nodes = (
(671,826,l),
(322,826,l),
(346,1032,l),
(331,1040,l),
(166,914,l),
(-10,1218,l),
(181,1300,l),
(181,1316,l),
(-10,1398,l),
(166,1703,l),
(331,1578,l),
(346,1584,l),
(322,1792,l),
(671,1792,l),
(647,1584,l),
(660,1578,l),
(828,1703,l),
(1001,1398,l),
(811,1316,l),
(811,1300,l),
(1001,1218,l),
(828,914,l),
(660,1040,l),
(647,1032,l)
);
}
);
width = 993;
}
);
unicode = 1645;
},
{
glyphname = arabiccomma;
layers = (
{
layerId = m000;
shapes = (
{
closed = 1;
nodes = (
(221,832,qs),
(337,942,l),
(556,745,l),
(450,624,l),
(388,556,o),
(223,500,q),
(590,500,l),
(590,0,l),
(90,0,l),
(90,500,l),
(90,611,o),
(162,772,o)
);
}
);
width = 680;
}
);
unicode = 1548;
},
{
glyphname = arabicquestionmark;
layers = (
{
layerId = m000;
shapes = (
{
closed = 1;
nodes = (
(885,610,q),
(408,610,l),
(408,681,o),
(352,779,o),
(309,812,o),
(240,877,qs),
(142,966,o),
(80,1084,o),
(80,1226,qs),
(80,1333,o),
(223,1536,o),
(496,1653,o),
(634,1653,qs),
(772,1653,o),
(908,1629,o),
(1051,1591,o),
(1108,1559,q),
(1015,1159,l),
(863,1210,o),
(688,1239,o),
(610,1239,qs),
(523,1239,o),
(411,1217,o),
(320,1164,q),
(469,1156,o),
(656,1084,o),
(732,996,qs),
(817,899,o),
(885,705,o)
);
},
{
closed = 1;
nodes = (
(398,0,l),
(398,450,l),
(898,450,l),
(898,0,l)
);
}
);
width = 1168;
}
);
unicode = 1567;
},
{
glyphname = "decimalseparator-arab";
layers = (
{
layerId = m000;
shapes = (
{
closed = 1;
nodes = (
(250,-527,l),
(-141,-527,l),
(346,693,l),
(734,693,l)
);
}
);
width = 804;
}
);
unicode = 1643;
},
{
glyphname = "thousandsseparator-arab";
layers = (
{
layerId = m000;
shapes = (
{
closed = 1;
nodes = (
(299,0,q),
(189,34,o),
(92,154,o),
(92,234,qs),
(92,322,o),
(219,434,o),
(306,434,qs),
(392,434,o),
(534,314,o),
(534,181,qs),
(534,38,o),
(385,-250,o),
(212,-369,q),
(70,-205,l),
(131,-164,o),
(266,-38,o)
);
}
);
width = 604;
}
);
unicode = 1644;
},
{
glyphname = "symboldotaccentmod-arab";
layers = (
{
layerId = m000;
shapes = (
{
closed = 1;
nodes = (
(-10,-10,l),
(-10,350,l),
(360,390,l),
(360,30,l)
);
}
);
width = 350;
}
);
unicode = 64434;
},
{
glyphname = "symboldotbelowmod-arab";
layers = (
{
layerId = m000;
shapes = (
{
closed = 1;
nodes = (
(-10,-390,l),
(-10,-30,l),
(360,10,l),
(360,-350,l)
);
}
);
width = 350;
}
);
unicode = 64435;
},
{
glyphname = "symboltwodotsabovemod-arab";
layers = (
{
layerId = m000;
shapes = (
{
closed = 1;
nodes = (
(350,380,q),
(700,410,l),
(700,50,l),
(350,20,l),
(320,200,o)
);
},
{
closed = 1;
nodes = (
(350,20,q),
(0,-10,l),
(0,350,l),
(350,380,l),
(380,200,o)
);
}
);
width = 700;
},
{
layerId = m003;
shapes = (
{
closed = 1;
nodes = (
(380,372,q),
(700,400,l),
(700,60,l),
(380,32,l),
(380,200,o)
);
},
{
closed = 1;
nodes = (
(320,28,q),
(0,0,l),
(0,340,l),
(320,368,l),
(320,200,o)
);
}
);
width = 700;
},
{
layerId = m001;
shapes = (
{
closed = 1;
nodes = (
(350,380,q),
(700,410,l),
(700,50,l),
(350,20,l),
(320,200,o)
);
},
{
closed = 1;
nodes = (
(350,20,q),
(0,-10,l),
(0,350,l),
(350,380,l),
(380,200,o)
);
}
);
width = 700;
},
{
layerId = m002;
shapes = (
{
closed = 1;
nodes = (
(350,380,q),
(700,410,l),
(700,50,l),
(350,20,l),
(320,200,o)
);
},
{
closed = 1;
nodes = (
(350,20,q),
(0,-10,l),
(0,350,l),
(350,380,l),
(380,200,o)
);
}
);
width = 700;
}
);
unicode = 64436;
},
{
glyphname = "symboltwodotsbelowmod-arab";
layers = (
{
layerId = m000;
shapes = (
{
closed = 1;
nodes = (
(350,-20,q),
(700,10,l),
(700,-350,l),
(350,-380,l),
(320,-200,o)
);
},
{
closed = 1;
nodes = (
(350,-380,q),
(0,-410,l),
(0,-50,l),
(350,-20,l),
(380,-200,o)
);
}
);
width = 700;
},
{
layerId = m003;
shapes = (
{
closed = 1;
nodes = (
(380,-28,q),
(700,0,l),
(700,-340,l),
(380,-368,l),
(380,-200,o)
);
},
{
closed = 1;
nodes = (
(320,-372,q),
(0,-400,l),
(0,-60,l),
(320,-32,l),
(320,-200,o)
);
}
);
width = 700;
},
{
layerId = m001;
shapes = (
{
closed = 1;
nodes = (
(350,-20,q),
(700,10,l),
(700,-350,l),
(350,-380,l),
(320,-200,o)
);
},
{
closed = 1;
nodes = (
(350,-380,q),
(0,-410,l),
(0,-50,l),
(350,-20,l),
(380,-200,o)
);
}
);
width = 700;
},
{
layerId = m002;
shapes = (
{
closed = 1;
nodes = (
(350,-20,q),
(700,10,l),
(700,-350,l),
(350,-380,l),
(320,-200,o)
);
},
{
closed = 1;
nodes = (
(350,-380,q),
(0,-410,l),
(0,-50,l),
(350,-20,l),
(380,-200,o)
);
}
);
width = 700;
}
);
unicode = 64437;
},
{
glyphname = "symbolthreedotsabovemod-arab";
layers = (
{
layerId = m000;
shapes = (
{
closed = 1;
nodes = (
(391,26,q),
(-10,-10,l),
(-10,350,l),
(391,374,l),
(421,201,o)
);
},
{
closed = 1;
nodes = (
(391,374,q),
(750,401,l),
(626,48,l),
(391,26,l),
(361,201,o)
);
},
{
closed = 1;
nodes = (
(391,374,q),
(211,535,l),
(400,680,l),
(750,401,l),
(556,337,o)
);
}
);
width = 700;
},
{
layerId = m001;
shapes = (
{
closed = 1;
nodes = (
(350,20,q),
(0,-10,l),
(0,350,l),
(350,380,l),
(380,200,o)
);
},
{
closed = 1;
nodes = (
(350,380,q),
(700,410,l),
(700,50,l),
(350,20,l),
(320,200,o)
);
},
{
closed = 1;
nodes = (
(200,367,q),
(200,650,l),
(500,680,l),
(500,393,l),
(350,327,o)
);
}
);
width = 700;
},
{
layerId = m002;
shapes = (
{
closed = 1;
nodes = (
(350,20,q),
(0,-10,l),
(0,280,l),
(350,310,l),
(380,165,o)
);
},
{
closed = 1;
nodes = (
(350,310,q),
(700,340,l),
(700,50,l),
(350,20,l),
(320,165,o)
);
},
{
closed = 1;
nodes = (
(200,370,q),
(200,650,l),
(500,680,l),
(500,400,l),
(355,385,o)
);
}
);
width = 700;
},
{
layerId = m003;
shapes = (
{
closed = 1;
nodes = (
(320,18,q),
(0,-10,l),
(0,300,l),
(320,328,l),
(320,173,o)
);
},
{
closed = 1;
nodes = (
(380,332,q),
(700,360,l),
(700,50,l),
(380,22,l),
(380,177,o)
);
},
{
closed = 1;
nodes = (
(200,370,q),
(200,650,l),
(500,676,l),
(500,396,l),
(355,383,o)
);
}
);
width = 700;
}
);
unicode = 64438;
},
{
glyphname = "symbolthreedotspointingdownwardsbelowmod-arab";
layers = (
{
layerId = m000;
shapes = (
{
closed = 1;
nodes = (
(750,-342,q),
(400,-733,l),
(171,-538,l),
(379,-368,l),
(556.364,-317.192,o)
);
},
{
closed = 1;
nodes = (
(379,-368,q),
(-10,-408,l),
(-10,-48,l),
(379,-13,l),
(409,-190,o)
);
},
{
closed = 1;
nodes = (
(379,-13,q),
(626,10,l),
(750,-342,l),
(379,-368,l),
(349,-190,o)
);
}
);
width = 700;
},
{
layerId = m001;
shapes = (
{
closed = 1;
nodes = (
(502,-366,q),
(500,-650,l),
(200,-680,l),
(200,-393,l),
(350,-326,o)
);
},
{
closed = 1;
nodes = (
(350,-380,q),
(0,-410,l),
(0,-50,l),
(350,-20,l),
(380,-200,o)
);
},
{
closed = 1;
nodes = (
(350,-20,q),
(700,10,l),
(700,-350,l),
(350,-380,l),
(320,-200,o)
);
}
);
width = 700;
},
{
layerId = m002;
shapes = (
{
closed = 1;
nodes = (
(500,-370,q),
(500,-650,l),
(200,-680,l),
(200,-400,l),
(350,-385,o)
);
},
{
closed = 1;
nodes = (
(350,-310,q),
(0,-340,l),
(0,-50,l),
(350,-20,l),
(380,-165,o)
);
},
{
closed = 1;
nodes = (
(350,-20,q),
(700,10,l),
(700,-280,l),
(350,-310,l),
(320,-165,o)
);
}
);
width = 700;
},
{
layerId = m003;
shapes = (
{
closed = 1;
nodes = (
(500,-370,q),
(500,-650,l),
(200,-676,l),
(200,-396,l),
(350,-383,o)
);
},
{
closed = 1;
nodes = (
(320,-322,q),
(0,-350,l),
(0,-40,l),
(320,-12,l),
(320,-177,o)
);
},
{
closed = 1;
nodes = (
(380,-8,q),
(700,20,l),
(700,-290,l),
(380,-318,l),
(380,-173,o)
);
}
);
width = 700;
}
);
unicode = 64441;
},
{
glyphname = uniE000;
layers = (
{
layerId = m000;
shapes = (
{
closed = 1;
nodes = (
(554,10,l),
(585,-241,l),
(346,-536,l),
(170,-437,l),
(346,-250,l),
(1,-293,l),
(0,-42,l)
);
}
);
width = 585;
}
);
unicode = 57344;
},
{
glyphname = "hamza-arab";
layers = (
{
anchors = (
{
name = top_arab;
pos = (575,1007);
},
{
name = bottom_arab;
pos = (575,60);
}
);
layerId = m000;
shapes = (
{
closed = 1;
nodes = (
(154,631,qs),
(154,788,o),
(281,992,o),
(474,1087,o),
(575,1087,qs),
(674,1087,o),
(845,1008,o),
(958,924,q),
(829,655,l),
(727,690,o),
(628,699,o),
(577,699,qs),
(530,699,o),
(454,682,o),
(430,641,o),
(430,624,qs),
(430,602,o),
(491,552,o),
(598,552,qs),
(700,552,o),
(918,607,q),
(1056,235,l),
(187,-37,l),
(65,348,l),
(263,398,l),
(266,413,l),
(224,416,o),
(154,558,o)
);
}
);
width = 1126;
}
);
unicode = (1569,65152);
},
{
glyphname = uni0627_alt.short;
layers = (
{
anchors = (
{
name = top_arab;
pos = (328,1306);
},
{
name = bottom_arab;
pos = (328,0);
}
);
layerId = m000;
shapes = (
{
closed = 1;
nodes = (
(539,0,q),
(90,0,l),
(110,763,o),
(90,1336,q),
(566,1356,l),
(592,790,o)
);
}
);
width = 664;
}
);
},
{
glyphname = "alef-arab.fina.short";
layers = (
{
anchors = (
{
name = top_arab;
pos = (328,1306);
},
{
name = bottom_arab;
pos = (328,0);
}
);
layerId = m000;
shapes = (
{
closed = 1;
nodes = (
(90,1336,l),
(567,1356,l),
(567,594,l),
(567,537,o),
(643,504,o),
(723,504,qs),
(724,504,l),
(724,0,l),
(663,0,l),
(406,0,o),
(90,355,o),
(90,702,qs)
);
}
);
width = 724;
}
);
},
{
glyphname = "alef-arab";
layers = (
{
anchors = (
{
name = top_arab;
pos = (328,1506);
},
{
name = bottom_arab;
pos = (328,0);
}
);
layerId = m000;
shapes = (
{
closed = 1;
nodes = (
(539,0,q),
(90,0,l),
(110,763,o),
(90,1536,q),
(566,1556,l),
(592,790,o)
);
}
);
width = 664;
}
);
unicode = (1575,65165);
},
{
glyphname = "alef-arab.fina";
layers = (
{
anchors = (
{
name = top_arab;
pos = (328,1506);
},
{
name = bottom_arab;
pos = (328,0);
}
);
layerId = m000;
shapes = (
{
closed = 1;
nodes = (
(90,1536,l),
(567,1556,l),
(567,594,l),
(567,537,o),
(643,504,o),
(723,504,qs),
(724,504,l),
(724,0,l),
(663,0,l),
(406,0,o),
(90,355,o),
(90,702,qs)
);
}
);
width = 724;
}
);
unicode = 65166;
},
{
glyphname = arabictatweelmod;
layers = (
{
anchors = (
{
name = top_arab;
pos = (425,604);
},
{
name = bottom_arab;
pos = (425,0);
}
);
layerId = m000;
shapes = (
{
closed = 1;
nodes = (
(0,504,q),
(850,504,l),
(850,0,l),
(0,0,l),
(-100,252,o)
);
}
);
width = 850;
}
);
unicode = (1600,57525);
},
{
glyphname = "dotlessbeh-arab.fina";
layers = (
{
anchors = (
{
name = top_arab;
pos = (987,734);
},
{
name = bottom_arab;
pos = (987,0);
}
);
layerId = m000;
shapes = (
{
closed = 1;
nodes = (
(1960,852,l),
(1944,780,o),
(1925,642,o),
(1925,619,qs),
(1925,578,o),
(1962,528,o),
(2020,504,o),
(2049,504,qs),
(2090,504,l),
(2090,0,l),
(2049,0,l),
(1912,0,o),
(1652,165,o),
(1630,351,q),
(1620,351,l),
(1444,147,o),
(1089,0,o),
(859,0,qs),
(475,0,o),
(70,315,o),
(70,639,qs),
(70,723,o),
(100,942,o),
(120,1026,q),
(546,965,l),
(528,888,o),
(510,723,o),
(510,693,qs),
(510,571,o),
(697,504,o),
(928,504,qs),
(1052,504,o),
(1245,551,o),
(1391,657,o),
(1495,830,o),
(1519,927,q)
);
}
);
width = 2090;
}
);
},
{
glyphname = "uighurkazakhkirghizalefmaksura-arab.init";
layers = (
{
anchors = (
{
name = top_arab;
pos = (375,900);
},
{
name = bottom_arab;
pos = (280,50);
}
);
layerId = m000;
shapes = (
{
closed = 1;
nodes = (
(0,504,q),
(59,504,o),
(126,511,o),
(204,524,o),
(246,535,q),
(157,901,l),
(604,1003,l),
(627,898,o),
(656,679,o),
(656,598,qs),
(656,374,o),
(470,102,o),
(167,0,o),
(0,0,q),
(-100,252,o)
);
}
);
width = 726;
}
);
unicode = 64488;
},
{
glyphname = "uighurkazakhkirghizalefmaksura-arab.medi";
layers = (
{
anchors = (
{
name = top_arab;
pos = (414,884);
},
{
name = bottom_arab;
pos = (284,0);
}
);
layerId = m000;
shapes = (
{
closed = 1;
nodes = (
(702,884,l),
(702,624,l),
(702,574,o),
(727,529,o),
(772,504,o),
(822,504,qs),
(864,504,l),
(864,0,l),
(822,0,l),
(702,0,o),
(529,129,o),
(469,249,q),
(459,249,l),
(399,129,o),
(226,0,o),
(106,0,qs),
(0,0,l),
(-100,252,o),
(0,504,q),
(106,504,l),
(156,504,o),
(201,529,o),
(226,574,o),
(226,624,qs),
(226,884,l)
);
}
);
width = 864;
}
);
unicode = 64489;
},
{
glyphname = uniE002;
layers = (
{
layerId = m000;
shapes = (
{
closed = 1;
nodes = (
(0,504,q),
(119,504,o),
(186,511,o),
(264,524,o),
(306,535,q),
(217,901,l),
(664,1003,l),
(687,898,o),
(716,679,o),
(716,598,qs),
(716,374,o),
(530,102,o),
(227,0,o),
(0,0,q),
(-100,252,o)
);
}
);
width = 786;
}
);
unicode = 57346;
},
{
glyphname = uniE003;
layers = (
{
layerId = m000;
shapes = (
{
closed = 1;
nodes = (
(732,884,l),
(732,624,l),
(732,574,o),
(757,529,o),
(802,504,o),
(852,504,qs),
(894,504,l),
(894,0,l),
(852,0,l),
(732,0,o),
(559,129,o),
(499,249,q),
(489,249,l),
(429,129,o),
(256,0,o),
(136,0,qs),
(0,0,l),
(-100,252,o),
(0,504,q),
(136,504,l),
(186,504,o),
(231,529,o),
(256,574,o),
(256,624,qs),
(256,884,l)
);
}
);
width = 894;
}
);
unicode = 57347;
},
{
glyphname = uniE006;
layers = (
{
layerId = m000;
shapes = (
{
closed = 1;
nodes = (
(0,504,q),
(89,504,o),
(286,511,o),
(414,524,o),
(456,535,q),
(367,901,l),
(814,1003,l),
(837,898,o),
(866,679,o),
(866,598,qs),
(866,374,o),
(680,102,o),
(377,0,o),
(0,0,q),
(-100.397,251.547,o)
);
}
);
width = 936;
}
);
unicode = 57350;
},
{
glyphname = uniE007;
layers = (
{
layerId = m000;
shapes = (
{
closed = 1;
nodes = (
(832,884,l),
(832,624,l),
(832,574,o),
(857,529,o),
(902,504,o),
(952,504,qs),
(994,504,l),
(994,0,l),
(952,0,l),
(832,0,o),
(659,129,o),
(599,249,q),
(589,249,l),
(529,129,o),
(356,0,o),
(236,0,qs),
(0,0,l),
(-100,252,o),
(0,504,q),
(236,504,l),
(286,504,o),
(331,529,o),
(356,574,o),
(356,624,qs),
(356,884,l)
);
}
);
width = 994;
}
);
unicode = 57351;
},
{
glyphname = "hah-arab";
layers = (
{
anchors = (
{
name = top_arab;
pos = (723,1274);
},
{
name = bottom_arab;
pos = (828,-699);
}
);
layerId = m000;
shapes = (
{
closed = 1;
nodes = (
(1548,982,q),
(1484,488,l),
(1357,484,o),
(1090,433,o),
(842,346,o),
(647,229,o),
(532,89,o),
(532,11,qs),
(532,-48,o),
(623,-143,o),
(798,-198,o),
(924,-198,qs),
(1073,-198,o),
(1317,-164,o),
(1364,-147,q),
(1487,-608,l),
(1351,-657,o),
(1110,-709,o),
(928,-709,qs),
(663,-709,o),
(278,-538,o),
(70,-236,o),
(70,-41,qs),
(70,66,o),
(136,269,o),
(266,452,o),
(459,601,o),
(589,656,qs),
(708,706,o),
(1075,710,q),
(1070,710,l),
(1070,760,l),
(973,766,o),
(825,800,o),
(772,814,qs),
(709,832,o),
(630,866,o),
(588,866,qs),
(528,866,o),
(460,770,o),
(438,700,qs),
(429,672,l),
(87,772,l),
(95,804,l),
(168,1072,o),
(403,1314,o),
(590,1314,qs),
(663,1314,o),
(850,1256,o),
(992,1194,qs),
(1146,1124,o),
(1354,1038,o),
(1495,992,o)
);
}
);
width = 1618;
}
);
unicode = (1581,65185);
},
{
glyphname = "hah-arab.fina";
layers = (
{
anchors = (
{
name = top_arab;
pos = (723,1274);
},
{
name = bottom_arab;
pos = (828,-699);
}
);
layerId = m000;
shapes = (
{
closed = 1;
nodes = (
(1405,528,l),
(1472,509,o),
(1538,504,o),
(1607,504,qs),
(1659,504,l),
(1659,0,l),
(1431,2,o),
(1311,102,qs),
(1189,203,o),
(1140,464,q)
);
},
{
closed = 1;
nodes = (
(1548,982,q),
(1484,548,l),
(1357,504,o),
(1090,433,o),
(842,346,o),
(647,229,o),
(532,89,o),
(532,11,qs),
(532,-48,o),
(623,-143,o),
(798,-198,o),
(924,-198,qs),
(1073,-198,o),
(1317,-164,o),
(1364,-147,q),
(1487,-608,l),
(1351,-657,o),
(1110,-709,o),
(928,-709,qs),
(663,-709,o),
(278,-538,o),
(70,-236,o),
(70,-41,qs),
(70,66,o),
(136,269,o),
(266,452,o),
(459,601,o),
(589,656,qs),
(708,706,o),
(1075,710,q),
(1070,710,l),
(1070,760,l),
(973,766,o),
(825,800,o),
(772,814,qs),
(709,832,o),
(630,866,o),
(588,866,qs),
(528,866,o),
(460,770,o),
(438,700,qs),
(429,672,l),
(87,772,l),
(95,804,l),
(168,1072,o),
(403,1314,o),
(590,1314,qs),
(663,1314,o),
(850,1256,o),
(992,1194,qs),
(1146,1124,o),
(1354,1038,o),
(1495,992,o)
);
}
);
width = 1659;
}
);
unicode = 65186;
},
{
glyphname = "hah-arab.init";
layers = (
{
anchors = (
{
name = top_arab;
pos = (630,1189);
},
{
name = bottom_arab;
pos = (630,33);
}
);
layerId = m000;
shapes = (
{
closed = 1;
nodes = (
(1013,1080,o),
(1258,948,o),
(1387,928,q),
(1387,483,l),
(967,175,l),
(808,58,o),
(339,0,o),
(55,0,qs),
(0,0,l),
(-100,252,o),
(0,504,q),
(359,504,l),
(426,504,o),
(596,522,o),
(715,550,o),
(872,594,qs),
(920,607,l),
(920,663,l),
(872,668,o),
(739,694,o),
(692,709,qs),
(633,727,o),
(560,744,o),
(535,744,qs),
(475,744,o),
(408,685,o),
(386,617,q),
(376,589,l),
(35,690,l),
(43,719,l),
(110,990,o),
(352,1229,o),
(539,1229,qs),
(582,1229,o),
(687,1205,o)
);
}
);
width = 1457;
}
);
unicode = 65187;
},
{
glyphname = "hah-arab.medi";
layers = (
{
anchors = (
{
name = top_arab;
pos = (630,1189);
},
{
name = bottom_arab;
pos = (630,33);
}
);
layerId = m000;
shapes = (
{
closed = 1;
nodes = (
(1013,1080,o),
(1258,948,o),
(1387,928,q),
(1387,583,l),
(957,175,l),
(828,58,o),
(339,0,o),
(55,0,qs),
(0,0,l),
(-100,252,o),
(0,504,q),
(359,504,l),
(426,504,o),
(596,522,o),
(715,550,o),
(872,594,qs),
(920,607,l),
(920,663,l),
(872,668,o),
(739,694,o),
(692,709,qs),
(633,727,o),
(560,744,o),
(535,744,qs),
(475,744,o),
(408,685,o),
(386,617,q),
(376,589,l),
(35,690,l),
(43,719,l),
(110,990,o),
(352,1229,o),
(539,1229,qs),
(582,1229,o),
(687,1205,o)
);
},
{
closed = 1;
nodes = (
(1302,518,l),
(1319,509,o),
(1395,504,o),
(1454,504,qs),
(1506,504,l),
(1506,0,l),
(1318,2,o),
(1198,101,qs),
(1076,203,o),
(1027,464,q)
);
}
);
width = 1506;
}
);
unicode = 65188;
},
{
glyphname = "dal-arab";
layers = (
{
anchors = (
{
name = top_arab;
pos = (561,1237);
},
{
name = bottom_arab;
pos = (561,0);
}
);
layerId = m000;
shapes = (
{
closed = 1;
nodes = (
(1045,507,qs),
(1045,391,o),
(966,203,o),
(810,63,o),
(577,-12,o),
(424,-12,qs),
(331,-12,o),
(114,18,o),
(0,46,q),
(111,518,l),
(196,492,o),
(342,477,o),
(404,477,qs),
(487,477,o),
(575,480,o),
(686,492,q),
(666,520,o),
(491,696,o),
(331,851,o),
(247,922,q),
(561,1297,l),
(811,1081,o),
(1045,696,o)
);
}
);
width = 1115;
}
);
unicode = (1583,65193);
},
{
glyphname = "dal-arab.fina";
layers = (
{
anchors = (
{
name = top_arab;
pos = (630,1200);
},
{
name = bottom_arab;
pos = (555,0);
}
);
layerId = m000;
shapes = (
{
closed = 1;
nodes = (
(818.975,1289.99,l),
(377.995,1076.002,l),
(621.988,528.008,l),
(552.054,504.191,o),
(467.924,494.985,o),
(377.995,494.985,cs),
(306.563,494.985,o),
(214.318,514.416,o),
(126.99,540.97,c),
(0,88.983,l),
(39.466,64.296,o),
(219.001,-10,o),
(387.983,-10,cs),
(630.602,-10,o),
(802.651,104.762,o),
(855.993,297.997,c),
(865.98,297.997,l),
(950.527,79.897,o),
(1063.766,-0.012,o),
(1266.967,-0.012,c),
(1266.967,503.995,l),
(1166.259,503.995,o),
(1145.224,520.069,o),
(1063.987,708.972,cs)
);
}
);
width = 1267;
}
);
unicode = 65194;
},
{
glyphname = "reh-arab";
layers = (
{
anchors = (
{
name = top_arab;
pos = (450,860);
},
{
name = bottom_arab;
pos = (400,-450);
}
);
layerId = m000;
shapes = (
{
closed = 1;
nodes = (
(193,790,q),
(642,943,l),
(695,768,o),
(774,419,o),
(774,268,qs),
(774,-31,o),
(416,-432,o),
(39,-566,q),
(-181,-116,l),
(60,-42,o),
(307,124,o),
(307,269,qs),
(307,332,o),
(274,511,o),
(222,706,o)
);
}
);
width = 844;
}
);
unicode = (1585,65197);
},
{
glyphname = "reh-arab.fina";
layers = (
{
anchors = (
{
name = top_arab;
pos = (450,860);
},
{
name = bottom_arab;
pos = (400,-450);
}
);
layerId = m000;
shapes = (
{
closed = 1;
nodes = (
(709,698,qs),
(730,600,o),
(795,530,o),
(868,504,o),
(934,504,qs),
(937,504,l),
(937,0,l),
(929,0,l),
(855,0,o),
(728,79,o),
(707,129,q),
(683,-118,o),
(565,-256,qs),
(416,-432,o),
(39,-566,q),
(-181,-116,l),
(60,-42,o),
(307,124,o),
(307,269,qs),
(307,332,o),
(274,511,o),
(222,706,o),
(193,790,q),
(642,943,l),
(695,768,o)
);
}
);
width = 936;
}
);
unicode = 65198;
},
{
glyphname = "seen-arab";
layers = (
{
anchors = (
{
name = top_arab;
pos = (2018,880);
},
{
name = bottom_arab;
pos = (2018,0);
}
);
layerId = m000;
shapes = (
{
closed = 1;
nodes = (
(1693,504,o),
(1732,504,qs),
(1787,504,o),
(1832,550,o),
(1832,588,qs),
(1833,879,l),
(2203,880,l),
(2202,588,l),
(2202,549,o),
(2248,504,o),
(2324,504,qs),
(2401,504,l),
(2401,577,l),
(2401,591,o),
(2395,652,o),
(2377,831,o),
(2366,896,q),
(2777,1004,l),
(2792,942,o),
(2815,804,o),
(2827,672,o),
(2827,608,qs),
(2827,321,o),
(2599,0,o),
(2350,0,qs),
(2190,0,o),
(2048,147,o),
(2023,286,q),
(2013,286,l),
(1988,147,o),
(1872,0,o),
(1732,0,qs),
(1668,0,o),
(1591,39,o),
(1581,82,q),
(1575,78,l),
(1576,-177,o),
(1385,-346,o),
(1073,-464,o),
(875,-464,qs),
(599,-464,o),
(241,-301,o),
(70,24,o),
(70,267,qs),
(70,384,o),
(104,647,o),
(140,778,q),
(589,674,l),
(554,516,o),
(530,360,o),
(530,301,qs),
(530,171,o),
(683,40,o),
(863,40,qs),
(991,40,o),
(1151,88,o),
(1224,178,o),
(1224,240,qs),
(1224,289,o),
(1194,413,o),
(1127,589,o),
(1067,719,q),
(1511,933,l),
(1637,598,l),
(1653,556,o)
);
}
);
width = 2897;
}
);
unicode = (1587,65201);
},
{
glyphname = "seen-arab.fina";
layers = (
{
anchors = (
{
name = top_arab;
pos = (2018,880);
},
{
name = bottom_arab;
pos = (2018,0);
}
);
layerId = m000;
shapes = (
{
closed = 1;
nodes = (
(1872,0,o),
(1732,0,qs),
(1668,0,o),
(1591,39,o),
(1581,82,q),
(1575,78,l),
(1576,-177,o),
(1385,-346,o),
(1073,-464,o),
(875,-464,qs),
(599,-464,o),
(241,-301,o),
(70,24,o),
(70,267,qs),
(70,384,o),
(104,647,o),
(140,778,q),
(589,674,l),
(554,516,o),
(530,360,o),
(530,301,qs),
(530,171,o),
(683,40,o),
(863,40,qs),
(991,40,o),
(1151,88,o),
(1224,178,o),
(1224,240,qs),
(1224,289,o),
(1194,413,o),
(1127,589,o),
(1067,719,q),
(1511,933,l),
(1637,598,l),
(1653,556,o),
(1693,504,o),
(1732,504,qs),
(1787,504,o),
(1832,550,o),
(1832,588,qs),
(1833,879,l),
(2203,880,l),
(2202,588,l),
(2202,550,o),
(2238,504,o),
(2296,504,qs),
(2359,504,o),
(2392,550,o),
(2392,588,qs),
(2392,902,l),
(2803,903,l),
(2802,625,l),
(2802,572,o),
(2859,519,o),
(2938,504,o),
(3003,504,qs),
(3004,504,l),
(3004,0,l),
(3003,0,l),
(2839,0,o),
(2628,146,o),
(2605,274,q),
(2595,274,l),
(2568,146,o),
(2456,0,o),
(2296,0,qs),
(2136,0,o),
(2048,147,o),
(2023,286,q),
(2013,286,l),
(1988,147,o)
);
}
);
width = 3004;
}
);
unicode = 65202;
},
{
glyphname = "seen-arab.init";
layers = (
{
anchors = (
{
name = top_arab;
pos = (1028,880);
},
{
name = bottom_arab;
pos = (1028,0);
}
);
layerId = m000;
shapes = (
{
closed = 1;
nodes = (
(722,504,qs),
(797,504,o),
(842,550,o),
(842,588,qs),
(843,879,l),
(1213,880,l),
(1212,588,l),
(1212,549,o),
(1258,504,o),
(1334,504,qs),
(1411,504,l),
(1411,577,l),
(1411,591,o),
(1405,652,o),
(1387,831,o),
(1376,896,q),
(1787,1004,l),
(1802,942,o),
(1825,804,o),
(1837,672,o),
(1837,608,qs),
(1837,321,o),
(1609,0,o),
(1360,0,qs),
(1200,0,o),
(1058,147,o),
(1033,286,q),
(1023,286,l),
(998,147,o),
(882,0,o),
(722,0,qs),
(562,0,o),
(398,147,o),
(373,286,q),
(363,286,l),
(338,147,o),
(149,0,o),
(9,0,qs),
(0,0,l),
(-100,252,o),
(0,504,q),
(19,504,l),
(85,504,o),
(134,540,o),
(134,570,qs),
(134,887,l),
(602,887,l),
(602,590,l),
(602,545,o),
(647,504,o)
);
}
);
width = 1907;
}
);
unicode = 65203;
},
{
glyphname = "seen-arab.medi";
layers = (
{
anchors = (
{
name = top_arab;
pos = (1028,880);
},
{
name = bottom_arab;
pos = (1028,0);
}
);
layerId = m000;
shapes = (
{
closed = 1;
nodes = (
(1213,880,l),
(1212,588,l),
(1212,550,o),
(1248,504,o),
(1306,504,qs),
(1369,504,o),
(1402,550,o),
(1402,588,qs),
(1402,902,l),
(1813,903,l),
(1812,625,l),
(1812,572,o),
(1869,519,o),
(1948,504,o),
(2013,504,qs),
(2014,504,l),
(2014,0,l),
(2013,0,l),
(1849,0,o),
(1638,146,o),
(1615,274,q),
(1605,274,l),
(1578,146,o),
(1466,0,o),
(1306,0,qs),
(1146,0,o),
(1058,147,o),
(1033,286,q),
(1023,286,l),
(998,147,o),
(882,0,o),
(722,0,qs),
(562,0,o),
(398,147,o),
(373,286,q),
(363,286,l),
(338,147,o),
(149,0,o),
(9,0,qs),
(0,0,l),
(-100,252,o),
(0,504,q),
(19,504,l),
(85,504,o),
(134,540,o),
(134,570,qs),
(134,887,l),
(602,887,l),
(602,590,l),
(602,545,o),
(647,504,o),
(722,504,qs),
(797,504,o),
(842,550,o),
(842,588,qs),
(843,879,l)
);
}
);
width = 2014;
}
);
unicode = 65204;
},
{
glyphname = "sad-arab";
layers = (
{
anchors = (
{
name = top_arab;
pos = (2113,1078);
},
{
name = bottom_arab;
pos = (2113,0);
}
);
layerId = m000;
shapes = (
{
closed = 1;
nodes = (
(1645,211,l),
(1666,-37,o),
(1458,-326,o),
(1104,-464,o),
(883,-464,qs),
(471,-464,o),
(70,-105,o),
(70,267,qs),
(70,385,o),
(104,646,o),
(140,778,q),
(589,674,l),
(554,514,o),
(530,361,o),
(530,301,qs),
(530,164,o),
(693,40,o),
(869,40,qs),
(1056,40,o),
(1238,136,o),
(1238,233,qs),
(1238,284,o),
(1208,409,o),
(1138,588,o),
(1079,719,q),
(1523,934,l),
(1556,867,o),
(1616,708,o),
(1641,635,q)
);
},
{
closed = 1;
nodes = (
(2239,659,qs),
(2102,659,o),
(1933,609,o),
(1818,544,o),
(1800,524,q),
(1843,509,o),
(2025,503,o),
(2075,503,qs),
(2143,503,o),
(2270,518,o),
(2380,552,o),
(2415,588,o),
(2415,596,qs),
(2415,626,o),
(2350,659,o)
);
},
{
closed = 1;
nodes = (
(1613,674,l),
(1748,846,o),
(1957,1040,o),
(2166,1138,o),
(2275,1138,qs),
(2402,1138,o),
(2607,994,o),
(2727,742,o),
(2727,582,qs),
(2727,466,o),
(2631,257,o),
(2456,94,o),
(2213,0,o),
(2066,0,qs),
(1846,0,o),
(1570,143,o),
(1486,290,q),
(1474,290,l)
);
}
);
width = 2797;
}
);
unicode = (1589,65209);
},
{
glyphname = "sad-arab.fina";
layers = (
{
anchors = (
{
name = top_arab;
pos = (2113,1078);
},
{
name = bottom_arab;
pos = (2113,0);
}
);
layerId = m000;
shapes = (
{
closed = 1;
nodes = (
(1645,211,l),
(1666,-6,o),
(1458,-326,o),
(1103,-464,o),
(883,-464,qs),
(471,-464,o),
(70,-105,o),
(70,267,qs),
(70,384,o),
(103,645,o),
(140,778,q),
(589,674,l),
(553,516,o),
(530,361,o),
(530,301,qs),
(530,164,o),
(693,40,o),
(869,40,qs),
(1056,40,o),
(1238,136,o),
(1238,233,qs),
(1238,284,o),
(1208,409,o),
(1138,588,o),
(1079,719,q),
(1523,934,l),
(1556,866,o),
(1616,709,o),
(1641,635,q)
);
},
{
closed = 1;
nodes = (
(2239,659,qs),
(2102,659,o),
(1933,609,o),
(1818,544,o),
(1800,524,q),
(1843,509,o),
(2025,503,o),
(2075,503,qs),
(2143,503,o),
(2270,518,o),
(2380,552,o),
(2415,588,o),
(2415,596,qs),
(2415,626,o),
(2350,659,o)
);
},
{
closed = 1;
nodes = (
(1613,674,l),
(1748,846,o),
(1957,1040,o),
(2166,1138,o),
(2275,1138,qs),
(2402,1138,o),
(2607,994,o),
(2727,742,o),
(2727,582,qs),
(2727,565,o),
(2724,513,o),
(2713,508,q),
(2734,505,o),
(2755,504,o),
(2790,504,qs),
(2791,504,l),
(2791,0,l),
(2758,0,l),
(2664,0,o),
(2519,133,o),
(2486,262,q),
(2402,139,o),
(2191,0,o),
(2066,0,qs),
(1846,0,o),
(1570,143,o),
(1486,290,q),
(1474,290,l)
);
}
);
width = 2791;
}
);
unicode = 65210;
},
{
glyphname = "sad-arab.init";
layers = (
{
anchors = (
{
name = top_arab;
pos = (1037,1078);
},
{
name = bottom_arab;
pos = (1037,0);
}
);
layerId = m000;
shapes = (
{
closed = 1;
nodes = (
(1265,659,qs),
(1128,659,o),
(959,609,o),
(844,544,o),
(825,524,q),
(868,509,o),
(1051,503,o),
(1100,503,qs),
(1169,503,o),
(1296,518,o),
(1406,552,o),
(1440,588,o),
(1440,596,qs),
(1440,626,o),
(1375,659,o)
);
},
{
closed = 1;
nodes = (
(0,0,l),
(-100,252,o),
(0,504,q),
(6,504,l),
(56,504,o),
(129,512,o),
(167,543,o),
(167,581,qs),
(167,928,l),
(667,928,l),
(667,748,l),
(667,733,o),
(667,721,o),
(667,716,o),
(664,705,q),
(774,846,o),
(983,1040,o),
(1192,1138,o),
(1301,1138,qs),
(1428,1138,o),
(1633,994,o),
(1752,742,o),
(1752,582,qs),
(1752,466,o),
(1657,257,o),
(1481,95,o),
(1239,0,o),
(1092,0,qs),
(871,0,o),
(595,143,o),
(511,290,q),
(500,290,l),
(440,146,o),
(191,0,o),
(5,0,qs)
);
}
);
width = 1822;
}
);
unicode = 65211;
},
{
glyphname = "sad-arab.medi";
layers = (
{
anchors = (
{
name = top_arab;
pos = (1037,1078);
},
{
name = bottom_arab;
pos = (1037,0);
}
);
layerId = m000;
shapes = (
{
closed = 1;
nodes = (
(1265,659,qs),
(1128,659,o),
(959,609,o),
(844,544,o),
(825,524,q),
(868,509,o),
(1051,503,o),
(1100,503,qs),
(1169,503,o),
(1296,518,o),
(1406,552,o),
(1440,588,o),
(1440,596,qs),
(1440,626,o),
(1375,659,o)
);
},
{
closed = 1;
nodes = (
(0,504,q),
(5,504,l),
(56,504,o),
(128,513,o),
(167,543,o),
(167,581,qs),
(167,928,l),
(667,928,l),
(667,748,l),
(667,734,o),
(667,723,o),
(667,715,o),
(664,705,q),
(774,846,o),
(983,1040,o),
(1192,1138,o),
(1301,1138,qs),
(1428,1138,o),
(1633,994,o),
(1752,742,o),
(1752,582,qs),
(1752,565,o),
(1750,513,o),
(1739,508,q),
(1760,505,o),
(1781,504,o),
(1816,504,qs),
(1817,504,l),
(1816,0,l),
(1784,0,l),
(1689,0,o),
(1544,133,o),
(1512,262,q),
(1428,139,o),
(1217,0,o),
(1092,0,qs),
(871,0,o),
(595,143,o),
(511,290,q),
(500,290,l),
(440,146,o),
(191,0,o),
(5,0,qs),
(0,0,l),
(-100,252,o)
);
}
);
width = 1817;
}
);
unicode = 65212;
},
{
glyphname = "tah-arab";
layers = (
{
anchors = (
{
name = top_arab;
pos = (1246,1088);
},
{
name = bottom_arab;
pos = (908,0);
}
);
layerId = m000;
shapes = (
{
closed = 1;
nodes = (
(272,504,l),
(300,511,o),
(325,532,o),
(335,559,q),
(355,1048,o),
(335,1536,q),
(793,1556,l),
(793,1233,l),
(793,1154,o),
(786,1043,o),
(700,925,q),
(709,917,l),
(708,0,l),
(70,0,l),
(70,504,l)
);
},
{
closed = 1;
nodes = (
(1110,659,qs),
(973,659,o),
(804,609,o),
(689,544,o),
(671,524,q),
(714,509,o),
(896,503,o),
(946,503,qs),
(1014,503,o),
(1141,518,o),
(1251,552,o),
(1286,588,o),
(1286,596,qs),
(1286,626,o),
(1221,659,o)
);
},
{
closed = 1;
nodes = (
(484,674,l),
(619,846,o),
(828,1040,o),
(1037,1138,o),
(1146,1138,qs),
(1273,1138,o),
(1478,994,o),
(1598,742,o),
(1598,582,qs),
(1598,466,o),
(1502,257,o),
(1327,94,o),
(1084,0,o),
(937,0,qs),
(357,0,l)
);
}
);
width = 1668;
}
);
unicode = (1591,65217);
},
{
glyphname = "tah-arab.fina";
layers = (
{
anchors = (
{
name = top_arab;
pos = (1246,1088);
},
{
name = bottom_arab;
pos = (908,0);
}
);
layerId = m000;
shapes = (
{
closed = 1;
nodes = (
(1110,659,qs),
(973,659,o),
(804,609,o),
(689,544,o),
(670,524,q),
(714,509,o),
(896,503,o),
(946,503,qs),
(1014,503,o),
(1141,518,o),
(1251,552,o),
(1286,588,o),
(1286,596,qs),
(1286,626,o),
(1221,659,o)
);
},
{
closed = 1;
nodes = (
(484,674,l),
(619,846,o),
(828,1040,o),
(1037,1138,o),
(1146,1138,qs),
(1273,1138,o),
(1478,994,o),
(1598,742,o),
(1598,582,qs),
(1598,565,o),
(1595,513,o),
(1584,508,q),
(1605,505,o),
(1626,504,o),
(1711,504,qs),
(1712,504,l),
(1712,0,l),
(1712,0,l),
(1585,0,o),
(1390,133,o),
(1357,262,q),
(1273,139,o),
(1062,0,o),
(937,0,qs),
(357,0,l),
(345,290,l)
);
},
{
closed = 1;
nodes = (
(272,504,l),
(300,511,o),
(325,532,o),
(335,559,q),
(355,1048,o),
(335,1536,q),
(793,1556,l),
(793,1233,l),
(793,1154,o),
(786,1043,o),
(700,925,q),
(709,917,l),
(708,0,l),
(70,0,l),
(70,504,l)
);
}
);
width = 1712;
}
);
unicode = 65218;
},
{
glyphname = "tah-arab.init";
layers = (
{
anchors = (
{
name = top_arab;
pos = (1041,1088);
},
{
name = bottom_arab;
pos = (705,0);
}
);
layerId = m000;
shapes = (
{
closed = 1;
nodes = (
(905,659,qs),
(768,659,o),
(599,609,o),
(484,544,o),
(466,524,q),
(509,509,o),
(691,503,o),
(741,503,qs),
(809,503,o),
(936,518,o),
(1046,552,o),
(1081,588,o),
(1081,596,qs),
(1081,626,o),
(1016,659,o)
);
},
{
closed = 1;
nodes = (
(279,674,l),
(414,846,o),
(623,1040,o),
(832,1138,o),
(941,1138,qs),
(1068,1138,o),
(1273,994,o),
(1393,742,o),
(1393,582,qs),
(1393,466,o),
(1297,257,o),
(1122,94,o),
(879,0,o),
(732,0,qs),
(152,0,l)
);
},
{
closed = 1;
nodes = (
(0,0,l),
(-100,252,o),
(0,504,q),
(67,504,l),
(95,511,o),
(120,532,o),
(130,559,q),
(150,1048,o),
(130,1536,q),
(588,1556,l),
(588,1233,l),
(588,1154,o),
(581,1043,o),
(495,925,q),
(504,917,l),
(503,0,l)
);
}
);
width = 1463;
}
);
unicode = 65219;
},
{
glyphname = "tah-arab.medi";
layers = (
{
anchors = (
{
name = top_arab;
pos = (1041,1088);
},
{
name = bottom_arab;
pos = (705,0);
}
);
layerId = m000;
shapes = (
{
closed = 1;
nodes = (
(905,659,qs),
(768,659,o),
(599,609,o),
(484,544,o),
(466,524,q),
(509,509,o),
(691,503,o),
(741,503,qs),
(809,503,o),
(936,518,o),
(1046,552,o),
(1081,588,o),
(1081,596,qs),
(1081,626,o),
(1016,659,o)
);
},
{
closed = 1;
nodes = (
(279,674,l),
(414,846,o),
(623,1040,o),
(832,1138,o),
(941,1138,qs),
(1068,1138,o),
(1273,994,o),
(1393,742,o),
(1393,582,qs),
(1393,565,o),
(1390,513,o),
(1379,508,q),
(1400,505,o),
(1421,504,o),
(1506,504,qs),
(1507,504,l),
(1507,0,l),
(1507,0,l),
(1380,0,o),
(1185,133,o),
(1152,262,q),
(1068,139,o),
(857,0,o),
(732,0,qs),
(152,0,l),
(140,290,l)
);
},
{
closed = 1;
nodes = (
(0,0,l),
(-100,252,o),
(0,504,q),
(67,504,l),
(95,511,o),
(120,532,o),
(130,559,q),
(150,1048,o),
(130,1536,q),
(588,1556,l),
(588,1233,l),
(588,1154,o),
(581,1043,o),
(495,925,q),
(504,917,l),
(503,0,l)
);
}
);
width = 1507;
}
);
unicode = 65220;
},
{
glyphname = "ain-arab";
layers = (
{
anchors = (
{
name = top_arab;
pos = (744,1294);
},
{
name = bottom_arab;
pos = (773,-753);
}
);
layerId = m000;
shapes = (
{
closed = 1;
nodes = (
(1218,1226,q),
(1013,858,l),
(940,880,o),
(824,906,o),
(783,906,qs),
(700,906,o),
(600,883,o),
(542,835,o),
(542,799,qs),
(542,750,o),
(722,686,o),
(943,686,qs),
(1002,686,o),
(1142,693,o),
(1217,699,q),
(1219,248,l),
(1019,238,o),
(709,149,o),
(533,10,o),
(533,-74,qs),
(533,-161,o),
(719,-251,o),
(893,-251,qs),
(989,-251,o),
(1172,-224,o),
(1215,-198,q),
(1354,-667,l),
(1175,-763,o),
(873,-763,qs),
(629,-763,o),
(268,-613,o),
(70,-337,o),
(70,-150,qs),
(70,-48,o),
(132,139,o),
(258,314,o),
(384,396,q),
(383,406,l),
(260,492,o),
(187,660,o),
(187,768,qs),
(187,937,o),
(346,1211,o),
(615,1374,o),
(781,1374,qs),
(998,1374,o)
);
}
);
width = 1374;
}
);
unicode = (1593,65225);
},
{
glyphname = "ain-arab.fina";
layers = (
{
anchors = (
{
name = top_arab;
pos = (768,1105);
},
{
name = bottom_arab;
pos = (807,-730);
}
);
layerId = m000;
shapes = (
{
closed = 1;
nodes = (
(1240,508,l),
(1240,498,l),
(1290,504,o),
(1340,504,qs),
(1417,504,l),
(1417,0,l),
(1384,0,l),
(1330,0,o),
(1109,43,o),
(931,132,o),
(836,199,q),
(757,170,o),
(619,81,o),
(533,-31,o),
(533,-91,qs),
(533,-152,o),
(751,-229,o),
(933,-229,qs),
(1018,-229,o),
(1178,-206,o),
(1249,-186,q),
(1360,-666,l),
(1152,-740,o),
(937,-740,qs),
(677,-740,o),
(287,-591,o),
(70,-320,o),
(70,-142,qs),
(70,43,o),
(302,355,o),
(495,445,q),
(495,455,l)
);
},
{
closed = 1;
nodes = (
(774,1179,qs),
(934,1179,o),
(1171,1056,o),
(1302,849,o),
(1302,721,qs),
(1302,657,o),
(1264,525,o),
(1213,458,q),
(1213,448,l),
(495,395,l),
(495,405,l),
(188,653,l),
(188,924,l),
(306,1046,o),
(623,1179,o)
);
},
{
closed = 1;
nodes = (
(1002,687,qs),
(1002,708,o),
(870,726,o),
(808,726,qs),
(743,726,o),
(551,719,qs),
(551,719,l),
(827,552,l),
(1002,650,o)
);
}
);
width = 1417;
}
);
unicode = 65226;
},
{
glyphname = "ain-arab.init";
layers = (
{
anchors = (
{
name = top_arab;
pos = (550,1102);
},
{
name = bottom_arab;
pos = (550,44);
}
);
layerId = m000;
shapes = (
{
closed = 1;
nodes = (
(370,635,qs),
(370,600,o),
(503,550,o),
(626,550,qs),
(654,550,o),
(700,550,o),
(718,553,q),
(997,586,l),
(1046,100,l),
(451,33,l),
(329,21,o),
(161,7,o),
(59,0,o),
(32,0,qs),
(0,0,l),
(-100,252,o),
(0,504,q),
(9,504,l),
(10,504,o),
(108,502,o),
(106,499,q),
(106,522,l),
(75,561,o),
(60,631,o),
(60,679,qs),
(60,822,o),
(199,1050,o),
(436,1182,o),
(587,1182,qs),
(794,1182,o),
(1022,1026,q),
(817,700,l),
(750,721,o),
(652,736,o),
(602,736,qs),
(560,736,o),
(421,716,o),
(370,660,o)
);
}
);
width = 1116;
}
);
unicode = 65227;
},
{
glyphname = "ain-arab.medi";
layers = (
{
anchors = (
{
name = top_arab;
pos = (696,1105);
},
{
name = bottom_arab;
pos = (696,0);
}
);
layerId = m000;
shapes = (
{
closed = 1;
nodes = (
(1340,504,l),
(1340,0,l),
(1245,0,l),
(1158,0,o),
(956,42,o),
(817,122,o),
(745,179,q),
(618,89,o),
(261,0,o),
(100,0,qs),
(0,0,l),
(-100,252,o),
(0,504,q),
(113,504,l),
(213,504,o),
(313,497,q),
(744,549,o),
(1163,498,q),
(1213,504,o),
(1263,504,qs)
);
},
{
closed = 1;
nodes = (
(698,1179,qs),
(857,1179,o),
(1094,1056,o),
(1225,849,o),
(1225,721,qs),
(1225,657,o),
(1187,525,o),
(1136,458,q),
(1136,448,l),
(364,447,l),
(364,457,l),
(111,653,l),
(111,924,l),
(229,1046,o),
(546,1179,o)
);
},
{
closed = 1;
nodes = (
(925,687,qs),
(925,708,o),
(793,726,o),
(731,726,qs),
(666,726,o),
(474,719,qs),
(474,719,l),
(750,552,l),
(925,650,o)
);
}
);
width = 1340;
}
);
unicode = 65228;
},
{
glyphname = "dotlessfeh-arab";
layers = (
{
anchors = (
{
name = top_arab;
pos = (570,958);
},
{
name = bottom_arab;
pos = (996,0);
}
);
layerId = m000;
shapes = (
{
closed = 1;
nodes = (
(1562,582,q),
(1515,580,o),
(1378,577,o),
(1334,577,qs),
(1137,577,o),
(952,728,o),
(952,874,qs),
(952,1070,o),
(1060,1295,o),
(1260,1445,o),
(1399,1445,qs),
(1560,1445,o),
(1795,1233,o),
(1923,920,o),
(1923,663,qs),
(1923,482,o),
(1820,231,o),
(1597,72,o),
(1240,0,o),
(883,0,q),
(880,504,l),
(1191,504,o),
(1385,505,o),
(1511,512,o),
(1562,553,o)
);
},
{
closed = 1;
nodes = (
(1597,895,q),
(1579,965,o),
(1439,1033,o),
(1373,1033,qs),
(1314,1033,o),
(1253,1011,o),
(1213,967,o),
(1213,940,qs),
(1213,893,o),
(1368,893,qs),
(1396,893,o),
(1562,894,o)
);
},
{
closed = 1;
nodes = (
(116,1008,q),
(547,917,l),
(538,854,o),
(521,683,o),
(521,651,qs),
(521,597,o),
(591,532,o),
(748,504,o),
(880,504,q),
(883,0,l),
(604,0,o),
(245,127,o),
(70,389,o),
(70,592,qs),
(70,743,o)
);
}
);
width = 1993;
}
);
unicode = (1697,2235);
},
{
glyphname = "dotlessfeh-arab.fina";
layers = (
{
anchors = (
{
name = top_arab;
pos = (520,1039);
},
{
name = bottom_arab;
pos = (996,0);
}
);
layerId = m000;
shapes = (
{
closed = 1;
nodes = (
(1509,239,q),
(1403,128,o),
(1108,0,o),
(918,0,qs),
(690,0,o),
(366,72,o),
(165,214,o),
(70,427,o),
(70,569,qs),
(70,663,o),
(126,939,o),
(176,1089,q),
(592,958,l),
(577,906,o),
(547,786,o),
(528,688,o),
(528,666,qs),
(528,614,o),
(595,548,o),
(765,504,o),
(918,504,qs),
(1116,504,l),
(1064,542,o),
(1007,655,o),
(1007,711,qs),
(1007,858,o),
(1147,1089,o),
(1380,1223,o),
(1518,1223,qs),
(1656,1223,o),
(1890,1089,o),
(2030,861,o),
(2030,719,qs),
(2030,664,o),
(1973,542,o),
(1921,504,q),
(2091,504,l),
(2091,0,l),
(1974,0,l),
(1809,0,o),
(1588,128,o)
);
},
{
closed = 1;
nodes = (
(1514,615,q),
(1598,634,o),
(1701,680,o),
(1701,698,qs),
(1701,721,o),
(1617,772,o),
(1518,772,qs),
(1418,772,o),
(1335,721,o),
(1335,698,qs),
(1335,678,o),
(1439,637,o)
);
}
);
width = 2091;
}
);
},
{
glyphname = "dotlessfeh-arab.init";
layers = (
{
anchors = (
{
name = top_arab;
pos = (482,1385);
},
{
name = bottom_arab;
pos = (452,0);
}
);
layerId = m000;
shapes = (
{
closed = 1;
nodes = (
(0,504,q),
(123,504,l),
(187,0,l),
(0,0,l),
(-100,252,o)
);
},
{
closed = 1;
nodes = (
(657,582,q),
(610,580,o),
(473,577,o),
(429,577,qs),
(232,577,o),
(47,728,o),
(47,874,qs),
(47,1070,o),
(155,1295,o),
(355,1445,o),
(494,1445,qs),
(655,1445,o),
(890,1233,o),
(1018,920,o),
(1018,663,qs),
(1018,482,o),
(915,231,o),
(692,72,o),
(335,0,o),
(82,0,q),
(124,504,l),
(286,504,o),
(480,505,o),
(606,512,o),
(657,553,o)
);
},
{
closed = 1;
nodes = (
(692,895,q),
(674,965,o),
(534,1033,o),
(468,1033,qs),
(409,1033,o),
(348,1011,o),
(308,967,o),
(308,940,qs),
(308,893,o),
(463,893,qs),
(491,893,o),
(657,894,o)
);
}
);
width = 1087;
}
);
},
{
glyphname = "dotlessfeh-arab.medi";
layers = (
{
anchors = (
{
name = top_arab;
pos = (587,1163);
},
{
name = bottom_arab;
pos = (568,0);
}
);
layerId = m000;
shapes = (
{
closed = 1;
nodes = (
(568,615,q),
(652,634,o),
(755,680,o),
(755,698,qs),
(755,721,o),
(671,772,o),
(572,772,qs),
(472,772,o),
(389,721,o),
(389,698,qs),
(389,678,o),
(493,637,o)
);
},
{
closed = 1;
nodes = (
(0,0,q),
(-100,252,o),
(0,504,q),
(170,504,l),
(118,542,o),
(61,655,o),
(61,711,qs),
(61,858,o),
(201,1089,o),
(434,1223,o),
(572,1223,qs),
(710,1223,o),
(944,1089,o),
(1084,861,o),
(1084,719,qs),
(1084,664,o),
(1027,542,o),
(975,504,q),
(1145,504,l),
(1145,0,l),
(1028,0,l),
(863,0,o),
(642,128,o),
(563,239,q),
(457,128,o),
(162,0,o)
);
}
);
width = 1145;
}
);
},
{
glyphname = "dotlessqaf-arab";
layers = (
{
anchors = (
{
name = top_arab;
pos = (1050,1000);
},
{
name = bottom_arab;
pos = (884,-465);
}
);
layerId = m000;
shapes = (
{
closed = 1;
nodes = (
(1346,499,q),
(1348,542,o),
(1331,591,o),
(1285,616,o),
(1192,624,o),
(1147,624,qs),
(1106,624,o),
(1029,609,o),
(974,579,o),
(974,552,qs),
(974,530,o),
(1056,494,o),
(1122,494,qs),
(1159,494,o),
(1314,495,o)
);
},
{
closed = 1;
nodes = (
(1168,1100,qs),
(1281,1100,o),
(1464,997,o),
(1595,793,o),
(1665,495,o),
(1665,299,qs),
(1665,55,o),
(1462,-302,o),
(1093,-496,o),
(844,-496,qs),
(465,-496,o),
(70,-150,o),
(70,180,qs),
(70,272,o),
(101,534,o),
(135,742,q),
(599,651,l),
(572,506,o),
(547,309,o),
(547,228,qs),
(547,123,o),
(708,11,o),
(861,11,qs),
(953,11,o),
(1192,21,o),
(1295,30,q),
(1286,91,l),
(1174,82,o),
(1126,81,o),
(1106,81,qs),
(922,81,o),
(726,291,o),
(726,476,qs),
(726,666,o),
(838,947,o),
(1039,1100,o)
);
}
);
width = 1735;
}
);
unicode = (1647,2236);
},
{
glyphname = uniE014;
layers = (
{
anchors = (
{
name = top_arab;
pos = (1050,960);
},
{
name = bottom_arab;
pos = (884,-505);
}
);
layerId = m000;
shapes = (
{
closed = 1;
nodes = (
(1167,1061,qs),
(1262,1061,o),
(1421,995,o),
(1546,858,o),
(1632,649,o),
(1651,504,q),
(1722,504,l),
(1722,0,l),
(1635,0,l),
(1560,-253,o),
(1143,-535,o),
(846,-535,qs),
(466,-535,o),
(70,-191,o),
(70,140,qs),
(70,233,o),
(101,494,o),
(135,702,q),
(599,613,l),
(572,467,o),
(547,270,o),
(547,190,qs),
(547,86,o),
(706,-50,o),
(860,-50,qs),
(1017,-50,o),
(1231,-35,o),
(1315,-23,q),
(1304,37,l),
(1271,30,o),
(1126,20,o),
(1107,20,qs),
(921,20,o),
(724,230,o),
(724,433,qs),
(724,625,o),
(838,907,o),
(1038,1061,o)
);
},
{
closed = 1;
nodes = (
(1346,459,q),
(1348,502,o),
(1331,551,o),
(1285,576,o),
(1192,584,o),
(1147,584,qs),
(1106,584,o),
(1029,569,o),
(974,539,o),
(974,512,qs),
(974,490,o),
(1056,454,o),
(1122,454,qs),
(1159,454,o),
(1314,455,o)
);
}
);
width = 1722;
}
);
},
{
glyphname = "keheh-arab";
layers = (
{
anchors = (
{
name = top_arab;
pos = (450,1008);
},
{
name = bottom_arab;
pos = (922,0);
}
);
layerId = m000;
shapes = (
{
closed = 1;
nodes = (
(116,1008,q),
(547,917,l),
(538,854,o),
(521,683,o),
(521,651,qs),
(521,597,o),
(591,532,o),
(748,504,o),
(880,504,qs),
(1065,504,o),
(1300,546,o),
(1300,577,qs),
(1300,595,o),
(1224,670,o),
(1028,823,o),
(847,958,q),
(879,1343,l),
(1134,1474,o),
(1603,1632,o),
(1767,1654,q),
(1830,1155,l),
(1755,1151,o),
(1445,1115,o),
(1223,1115,q),
(1225,1081,l),
(1533,951,o),
(1715,778,o),
(1774,622,o),
(1774,534,qs),
(1774,278,o),
(1309,0,o),
(883,0,qs),
(604,0,o),
(245,127,o),
(70,389,o),
(70,592,qs),
(70,743,o)
);
}
);
width = 1844;
}
);
unicode = (1705,64398);
},
{
glyphname = "keheh-arab.fina";
layers = (
{
anchors = (
{
name = top_arab;
pos = (450,1008);
},
{
name = bottom_arab;
pos = (922,0);
}
);
layerId = m000;
shapes = (
{
closed = 1;
nodes = (
(1600,309,l),
(1673,746,l),
(1733,646,o),
(1855,552,o),
(1958,504,o),
(2015,504,qs),
(2016,504,l),
(2016,0,l),
(2015,0,l),
(1931,0,o),
(1785,58,o),
(1663,197,o),
(1610,309,q)
);
},
{
closed = 1;
nodes = (
(116,1008,q),
(547,917,l),
(538,854,o),
(521,683,o),
(521,651,qs),
(521,597,o),
(591,532,o),
(748,504,o),
(880,504,qs),
(1065,504,o),
(1300,546,o),
(1300,577,qs),
(1300,595,o),
(1224,670,o),
(1028,823,o),
(847,958,q),
(879,1343,l),
(1134,1474,o),
(1603,1632,o),
(1767,1654,q),
(1830,1155,l),
(1755,1151,o),
(1445,1115,o),
(1223,1115,q),
(1225,1081,l),
(1503,951,o),
(1665,778,o),
(1724,622,o),
(1724,534,qs),
(1724,278,o),
(1309,0,o),
(883,0,qs),
(604,0,o),
(245,127,o),
(70,389,o),
(70,592,qs),
(70,743,o)
);
}
);
width = 2016;
}
);
unicode = 64399;
},
{
glyphname = "keheh-arab.init";
layers = (
{
anchors = (
{
name = top_arab;
pos = (400,1450);
},
{
name = bottom_arab;
pos = (400,0);
}
);
layerId = m000;
shapes = (
{
closed = 1;
nodes = (
(469,0,o),
(193,0,qs),
(0,0,l),
(-100,252,o),
(0,504,q),
(190,504,l),
(225,504,o),
(460,546,o),
(460,577,qs),
(460,595,o),
(384,670,o),
(188,823,o),
(7,958,q),
(39,1343,l),
(294,1474,o),
(763,1632,o),
(927,1654,q),
(990,1155,l),
(915,1151,o),
(605,1115,o),
(383,1115,q),
(385,1081,l),
(693,951,o),
(875,778,o),
(934,622,o),
(934,534,qs),
(934,278,o)
);
}
);
width = 1005;
}
);
unicode = 64400;
},
{
glyphname = "keheh-arab.medi";
layers = (
{
anchors = (
{
name = top_arab;
pos = (400,1450);
},
{
name = bottom_arab;
pos = (400,0);
}
);
layerId = m000;
shapes = (
{
closed = 1;
nodes = (
(760,309,l),
(833,746,l),
(893,646,o),
(1015,552,o),
(1118,504,o),
(1175,504,qs),
(1176,504,l),
(1176,0,l),
(1175,0,l),
(1091,0,o),
(945,58,o),
(823,197,o),
(770,309,q)
);
},
{
closed = 1;
nodes = (
(469,0,o),
(193,0,qs),
(0,0,l),
(-100,252,o),
(0,504,q),
(190,504,l),
(225,504,o),
(460,546,o),
(460,577,qs),
(460,595,o),
(384,670,o),
(188,823,o),
(7,958,q),
(39,1343,l),
(294,1474,o),
(763,1632,o),
(927,1654,q),
(990,1155,l),
(915,1151,o),
(605,1115,o),
(383,1115,q),
(385,1081,l),
(663,951,o),
(825,778,o),
(884,622,o),
(884,534,qs),
(884,278,o)
);
}
);
width = 1175;
}
);
unicode = 64401;
},
{
glyphname = uniE021;
layers = (
{
layerId = m000;
shapes = (
{
closed = 1;
nodes = (
(877,504,qs),
(1034,504,o),
(1214,539,o),
(1280,642,o),
(1290,753,qs),
(1310,1056,o),
(1270,1524,q),
(1746,1544,l),
(1786,1056,o),
(1766,753,qs),
(1752,490,o),
(1548,158,o),
(1139,0,o),
(853,0,qs),
(593,0,o),
(246,130,o),
(70,402,o),
(70,615,qs),
(70,698,o),
(99,891,o),
(119,980,q),
(552,886,l),
(543,824,o),
(524,681,o),
(524,648,qs),
(524,592,o),
(577,530,o),
(729,504,o)
);
}
);
width = 1843;
}
);
unicode = 57377;
},
{
glyphname = uniE022;
layers = (
{
layerId = m000;
shapes = (
{
closed = 1;
nodes = (
(1786,1056,o),
(1766,753,q),
(1766,632,o),
(1773,527,o),
(1834,504,o),
(1915,504,qs),
(1916,504,l),
(1916,0,l),
(1915,0,l),
(1767,0,o),
(1670,44,qs),
(1577,88,o),
(1538,193,q),
(1456,123,o),
(1344,79,qs),
(1139,0,o),
(853,0,qs),
(593,0,o),
(246,130,o),
(70,402,o),
(70,615,qs),
(70,698,o),
(99,891,o),
(119,980,q),
(552,886,l),
(543,824,o),
(524,681,o),
(524,648,qs),
(524,592,o),
(577,530,o),
(729,504,o),
(877,504,qs),
(1034,504,o),
(1214,539,o),
(1280,642,o),
(1290,753,qs),
(1310,1056,o),
(1270,1524,q),
(1746,1544,l)
);
}
);
width = 1916;
}
);
unicode = 57378;
},
{
glyphname = "lam-arab";
layers = (
{
anchors = (
{
name = top_arab;
pos = (550,707);
},
{
name = bottom_arab;
pos = (773,-485);
}
);
layerId = m000;
shapes = (
{
closed = 1;
nodes = (
(773,9,qs),
(915,9,o),
(1050,130,o),
(1050,256,qs),
(1070,1056,o),
(1050,1536,q),
(1530,1556,l),
(1550,1056,o),
(1530,215,qs),
(1530,10,o),
(1328,-310,o),
(971,-495,o),
(740,-495,qs),
(410,-495,o),
(70,-143,o),
(70,191,qs),
(70,250,o),
(90,455,o),
(140,707,q),
(569,605,l),
(534,432,o),
(520,273,o),
(520,229,qs),
(520,110,o),
(635,9,o)
);
}
);
width = 1630;
}
);
unicode = (1604,65245);
},
{
glyphname = "lam-arab.fina";
layers = (
{
anchors = (
{
name = top_arab;
pos = (550,707);
},
{
name = bottom_arab;
pos = (773,-485);
}
);
layerId = m000;
shapes = (
{
closed = 1;
nodes = (
(1677,504,l),
(1677,0,l),
(1671,0,l),
(1630,0,o),
(1547,84,o),
(1521,112,q),
(1510,110,l),
(1510,-63,o),
(1322,-334,o),
(965,-495,o),
(740,-495,qs),
(410,-495,o),
(70,-143,o),
(70,191,qs),
(70,250,o),
(90,455,o),
(140,707,q),
(569,605,l),
(534,432,o),
(520,273,o),
(520,229,qs),
(520,110,o),
(635,9,o),
(773,9,qs),
(915,9,o),
(1050,130,o),
(1050,256,qs),
(1070,1056,o),
(1050,1536,q),
(1530,1556,l),
(1550,1056,o),
(1530,598,qs),
(1527,545,o),
(1552,509,o),
(1616,504,o),
(1668,504,qs)
);
}
);
width = 1677;
}
);
unicode = 65246;
},
{
glyphname = "lam-arab.init";
layers = (
{
anchors = (
{
name = top_arab;
pos = (378,1506);
},
{
name = bottom_arab;
pos = (378,75);
}
);
layerId = m000;
shapes = (
{
closed = 1;
nodes = (
(0,504,q),
(67,504,o),
(115,508,o),
(137,540,o),
(139,576,qs),
(159,1056,o),
(139,1536,q),
(617,1556,l),
(637,1056,o),
(617,566,qs),
(610,294,o),
(295,0,o),
(0,0,q),
(-100,252,o)
);
}
);
width = 717;
}
);
unicode = 65247;
},
{
glyphname = "lam-arab.medi";
layers = (
{
anchors = (
{
name = top_arab;
pos = (378,1506);
},
{
name = bottom_arab;
pos = (378,0);
}
);
layerId = m000;
shapes = (
{
closed = 1;
nodes = (
(375,270,l),
(329,163,o),
(140,0,o),
(0,0,q),
(-100,252,o),
(0,504,q),
(63,504,o),
(112,512,o),
(137,545,o),
(139,579,qs),
(159,1056,o),
(139,1536,q),
(616,1556,l),
(637,1056,o),
(616,579,qs),
(614,537,o),
(650,506,o),
(713,504,o),
(762,504,qs),
(763,504,l),
(763,0,l),
(762,0,l),
(611,0,o),
(430,166,o),
(385,270,q)
);
}
);
width = 763;
}
);
unicode = 65248;
},
{
glyphname = "meem-arab";
layers = (
{
anchors = (
{
name = top_arab;
pos = (926,1000);
},
{
name = bottom_arab;
pos = (974,0);
}
);
layerId = m000;
shapes = (
{
closed = 1;
nodes = (
(926,1064,qs),
(1062,1064,o),
(1275,914,o),
(1396,647,o),
(1396,470,qs),
(1396,237,o),
(1189,-11,o),
(994,-11,qs),
(937,-11,o),
(795,9,o),
(700,30,qs),
(646,41,o),
(591,48,o),
(582,48,qs),
(574,48,o),
(548,32,o),
(548,20,qs),
(548,-574,l),
(70,-574,l),
(70,118,l),
(70,249,o),
(167,457,o),
(334,582,o),
(438,588,q),
(460,706,o),
(552,885,o),
(682,1004,o),
(840,1064,o)
);
},
{
closed = 1;
nodes = (
(721,499,q),
(772,480,o),
(940,449,o),
(990,449,qs),
(1050,449,o),
(1108,489,o),
(1108,529,qs),
(1108,569,o),
(1017,610,o),
(936,610,qs),
(866,610,o),
(770,563,o)
);
}
);
width = 1466;
}
);
unicode = (1605,65249);
},
{
glyphname = "meem-arab.fina";
layers = (
{
anchors = (
{
name = top_arab;
pos = (926,1000);
},
{
name = bottom_arab;
pos = (974,0);
}
);
layerId = m000;
shapes = (
{
closed = 1;
nodes = (
(721,499,q),
(772,480,o),
(940,449,o),
(990,449,qs),
(1050,449,o),
(1108,489,o),
(1108,529,qs),
(1108,569,o),
(1017,610,o),
(936,610,qs),
(866,610,o),
(770,563,o)
);
},
{
closed = 1;
nodes = (
(1336,780,qs),
(1394,658,o),
(1476,546,o),
(1533,504,o),
(1583,504,qs),
(1584,504,l),
(1584,0,l),
(1583,0,l),
(1466,0,o),
(1352,105,o),
(1292,195,q),
(1252,95,o),
(1126,-10,o),
(974,-11,qs),
(917,-11,o),
(795,9,o),
(700,30,qs),
(646,41,o),
(591,48,o),
(582,48,qs),
(574,48,o),
(548,32,o),
(548,20,qs),
(548,-574,l),
(70,-574,l),
(70,118,l),
(70,249,o),
(167,457,o),
(334,582,o),
(438,588,q),
(460,706,o),
(552,885,o),
(682,1004,o),
(840,1064,o),
(926,1064,qs),
(1062,1064,o),
(1275,914,o)
);
}
);
width = 1584;
}
);
unicode = 65250;
},
{
glyphname = "meem-arab.init";
layers = (
{
anchors = (
{
name = top_arab;
pos = (660,1000);
},
{
name = bottom_arab;
pos = (660,0);
}
);
layerId = m000;
shapes = (
{
closed = 1;
nodes = (
(869,-10,o),
(659,-10,qs),
(518,-10,o),
(382,105,o),
(322,195,q),
(262,105,o),
(116,0,o),
(0,0,q),
(-100,252,o),
(0,504,q),
(42,504,o),
(100,525,o),
(165,615,o),
(208,715,qs),
(269,851,o),
(387,1000,o),
(556,1060,o),
(663,1060,qs),
(792,1060,o),
(1005,915,o),
(1126,648,o),
(1126,471,qs),
(1126,248,o)
);
},
{
closed = 1;
nodes = (
(451,519,q),
(502,480,o),
(620,449,o),
(700,449,qs),
(760,449,o),
(838,489,o),
(838,529,qs),
(838,569,o),
(747,610,o),
(666,610,qs),
(596,610,o),
(500,563,o)
);
}
);
width = 1196;
}
);
unicode = 65251;
},
{
glyphname = "meem-arab.medi";
layers = (
{
anchors = (
{
name = top_arab;
pos = (660,1000);
},
{
name = bottom_arab;
pos = (660,0);
}
);
layerId = m000;
shapes = (
{
closed = 1;
nodes = (
(451,519,q),
(502,480,o),
(620,449,o),
(700,449,qs),
(760,449,o),
(838,489,o),
(838,529,qs),
(838,569,o),
(747,610,o),
(666,610,qs),
(596,610,o),
(500,563,o)
);
},
{
closed = 1;
nodes = (
(1066,782,qs),
(1121,656,o),
(1206,546,o),
(1263,504,o),
(1313,504,qs),
(1314,504,l),
(1314,0,l),
(1313,0,l),
(1176,-1,o),
(1082,105,o),
(1022,195,q),
(962,105,o),
(816,-9,o),
(659,-10,qs),
(518,-10,o),
(382,105,o),
(322,195,q),
(262,105,o),
(116,0,o),
(0,0,q),
(-100,252,o),
(0,504,q),
(42,504,o),
(100,525,o),
(165,615,o),
(208,715,qs),
(269,851,o),
(387,1000,o),
(556,1060,o),
(663,1060,qs),
(792,1060,o),
(1005,915,o)
);
}
);
width = 1314;
}
);
unicode = 65252;
},
{
glyphname = "noonghunna-arab";
layers = (
{
anchors = (
{
name = top_arab;
pos = (852,750);
},
{
name = bottom_arab;
pos = (852,-486);
}
);
layerId = m000;
shapes = (
{
closed = 1;
nodes = (
(1070,729,q),
(1514,904,l),
(1559,752,o),
(1643,413,o),
(1643,282,qs),
(1643,52,o),
(1437,-299,o),
(1096,-496,o),
(852,-496,qs),
(582,-496,o),
(231,-325,o),
(70,14,o),
(70,267,qs),
(70,384,o),
(104,647,o),
(140,778,q),
(589,674,l),
(554,516,o),
(530,360,o),
(530,301,qs),
(530,153,o),
(660,10,o),
(840,10,qs),
(959,10,o),
(1096,62,o),
(1177,162,o),
(1177,233,qs),
(1177,283,o),
(1158,417,o),
(1109,587,o)
);
}
);
width = 1713;
}
);
unicode = (1722,2237,64414);
},
{
glyphname = "noonghunna-arab.fina";
layers = (
{
anchors = (
{
name = top_arab;
pos = (852,750);
},
{
name = bottom_arab;
pos = (852,-486);
}
);
layerId = m000;
shapes = (
{
closed = 1;
nodes = (
(1633,164,l),
(1579,668,l),
(1613,566,o),
(1694,518,o),
(1796,504,o),
(1835,504,qs),
(1841,504,l),
(1841,0,l),
(1820,0,l),
(1780,0,o),
(1659,77,o),
(1640,167,q)
);
},
{
closed = 1;
nodes = (
(1070,729,q),
(1514,904,l),
(1559,752,o),
(1643,413,o),
(1643,282,qs),
(1643,52,o),
(1437,-299,o),
(1096,-496,o),
(852,-496,qs),
(582,-496,o),
(231,-325,o),
(70,14,o),
(70,267,qs),
(70,384,o),
(104,647,o),
(140,778,q),
(589,674,l),
(554,516,o),
(530,360,o),
(530,301,qs),
(530,153,o),
(660,10,o),
(840,10,qs),
(959,10,o),
(1096,62,o),
(1177,162,o),
(1177,233,qs),
(1177,283,o),
(1158,417,o),
(1109,587,o)
);
}
);
width = 1841;
}
);
unicode = 64415;
},
{
glyphname = "waw-arab";
layers = (
{
anchors = (
{
name = top_arab;
pos = (550,1021);
},
{
name = bottom_arab;
pos = (513,-475);
}
);
layerId = m000;
shapes = (
{
closed = 1;
nodes = (
(620,-38,q),
(610,13,l),
(513,6,o),
(470,3,o),
(459,3,qs),
(266,3,o),
(70,237,o),
(70,438,qs),
(70,602,o),
(168,887,o),
(364,1061,o),
(513,1061,qs),
(640,1061,o),
(827,943,o),
(949,731,o),
(1009,440,o),
(1009,267,qs),
(1009,-30,o),
(668,-432,o),
(295,-569,q),
(73,-121,l),
(151,-111,o),
(317,-96,o),
(544,-67,o)
);
},
{
closed = 1;
nodes = (
(680,455,q),
(682,489,o),
(668,539,o),
(620,585,o),
(539,604,o),
(494,604,qs),
(451,604,o),
(383,579,o),
(348,540,o),
(348,514,qs),
(348,491,o),
(400,455,o),
(467,455,qs),
(494,455,o),
(562,454,o)
);
}
);
width = 1079;
}
);
unicode = (1608,65261);
},
{
glyphname = "waw-arab.fina";
layers = (
{
anchors = (
{
name = top_arab;
pos = (550,1021);
},
{
name = bottom_arab;
pos = (513,-475);
}
);
layerId = m000;
shapes = (
{
closed = 1;
nodes = (
(975,504,l),
(1066,504,l),
(1066,0,l),
(955,0,l)
);
},
{
closed = 1;
nodes = (
(620,-38,q),
(610,13,l),
(513,6,o),
(470,3,o),
(459,3,qs),
(266,3,o),
(70,237,o),
(70,438,qs),
(70,602,o),
(168,887,o),
(364,1061,o),
(513,1061,qs),
(640,1061,o),
(827,943,o),
(949,731,o),
(1009,440,o),
(1009,267,qs),
(1009,-30,o),
(668,-432,o),
(295,-569,q),
(73,-121,l),
(151,-111,o),
(317,-96,o),
(544,-67,o)
);
},
{
closed = 1;
nodes = (
(680,455,q),
(682,489,o),
(668,539,o),
(620,585,o),
(539,604,o),
(494,604,qs),
(451,604,o),
(383,579,o),
(348,540,o),
(348,514,qs),
(348,491,o),
(400,455,o),
(467,455,qs),
(494,455,o),
(562,454,o)
);
}
);
width = 1066;
}
);
unicode = 65262;
},
{
glyphname = "heh-arab";
layers = (
{
anchors = (
{
name = top_arab;
pos = (555,1222);
},
{
name = bottom_arab;
pos = (555,0);
}
);
layerId = m000;
shapes = (
{
closed = 1;
nodes = (
(556,479,qs),
(616,479,o),
(748,502,o),
(748,521,qs),
(748,533,o),
(636,590,o),
(556,627,q),
(475,590,o),
(357,529,o),
(357,521,qs),
(357,502,o),
(491,479,o)
);
},
{
closed = 1;
nodes = (
(555,-11,qs),
(398,-11,o),
(181,100,o),
(70,286,o),
(70,396,qs),
(70,572,o),
(197,785,o),
(316,862,q),
(275,900,o),
(218,952,o),
(192,974,q),
(486,1322,l),
(560,1262,o),
(756,1084,o),
(938,857,o),
(1058,590,o),
(1058,442,qs),
(1058,315,o),
(929,110,o),
(702,-11,o)
);
}
);
width = 1128;
}
);
unicode = (1607,1749,65257);
},
{
glyphname = "heh-arab.fina";
layers = (
{
anchors = (
{
name = top_arab;
pos = (814,1315);
},
{
name = bottom_arab;
pos = (550,150);
}
);
layerId = m000;
shapes = (
{
closed = 1;
nodes = (
(587,1127,q),
(576,1312,l),
(1053,1341,l),
(1093,657,l),
(1097,608,o),
(1130,539,o),
(1190,504,o),
(1233,504,qs),
(1234,504,l),
(1234,0,l),
(1233,0,l),
(1085,0,o),
(852,99,o),
(799,320,q),
(742,205,o),
(599,145,o),
(550,145,qs),
(398,145,o),
(183,242,o),
(70,415,o),
(70,530,qs),
(70,757,o),
(330,1061,o)
);
},
{
closed = 1;
nodes = (
(769,707,l),
(582,711,o),
(413,669,o),
(413,637,qs),
(413,613,o),
(457,586,o),
(531,581,o),
(611,581,qs),
(650,581,o),
(765,579,o),
(781,578,q),
(775,615,o),
(776,632,o),
(774,640,q)
);
}
);
width = 1234;
}
);
unicode = 65258;
},
{
glyphname = "heh-arab.init";
layers = (
{
anchors = (
{
name = top_arab;
pos = (700,1228);
},
{
name = bottom_arab;
pos = (700,0);
}
);
layerId = m000;
shapes = (
{
closed = 1;
nodes = (
(0,504,q),
(91,504,l),
(98,504,o),
(111,505,o),
(168,505,q),
(129,533,o),
(115,626,o),
(115,655,qs),
(115,716,o),
(153,842,o),
(212,883,q),
(218,893,l),
(82,955,l),
(279,1388,l),
(927,1097,l),
(1113,1017,o),
(1323,841,o),
(1431,621,o),
(1431,476,qs),
(1431,330,o),
(1309,111,o),
(1111,-11,o),
(968,-11,qs),
(788,-11,o),
(621,129,o),
(560,278,q),
(528,146,o),
(365,0,o),
(169,0,qs),
(0,0,l),
(-100,252,o)
);
},
{
closed = 1;
nodes = (
(835,487,q),
(912,478,o),
(958,478,o),
(987,478,qs),
(1112,478,o),
(1112,504,qs),
(1112,529,o),
(1078,570,o),
(952,616,o),
(892,636,q),
(873,581,o),
(847,516,o)
);
},
{
closed = 1;
nodes = (
(544,591,q),
(628,600,o),
(711,646,o),
(711,664,qs),
(711,687,o),
(647,738,o),
(548,738,qs),
(448,738,o),
(385,687,o),
(385,664,qs),
(385,644,o),
(469,603,o)
);
}
);
width = 1501;
}
);
unicode = 65259;
},
{
glyphname = "heh-arab.medi";
layers = (
{
anchors = (
{
name = top_arab;
pos = (539,1095);
},
{
name = bottom_arab;
pos = (575,-450);
}
);
layerId = m000;
shapes = (
{
closed = 1;
nodes = (
(539,1155,qs),
(665,1155,o),
(870,1048,o),
(998,842,o),
(998,702,qs),
(998,596,o),
(889,326,o),
(682,155,o),
(449,86,q),
(467,38,o),
(501,-11,o),
(521,-32,q),
(576,-32,l),
(744,147,o),
(873,353,o),
(969,476,o),
(1040,504,o),
(1092,504,qs),
(1104,504,l),
(1104,0,l),
(1102,0,l),
(1064,0,o),
(1026,-44,o),
(930,-154,o),
(818,-350,o),
(787,-407,q),
(428,-501,l),
(268,-388,o),
(106,-151,o),
(65,0,q),
(0,0,l),
(-100,252,o),
(0,504,q),
(46,504,l),
(52,746,o),
(206,1033,o),
(422,1155,o)
);
},
{
closed = 1;
nodes = (
(347,520,q),
(467,537,o),
(589,554,o),
(728,588,o),
(728,616,qs),
(728,645,o),
(636,683,o),
(540,683,qs),
(483,683,o),
(416,659,o),
(355,594,o)
);
}
);
width = 1104;
}
);
unicode = 65260;
},
{
glyphname = "hehgoal-arab.fina";
layers = (
{
anchors = (
{
name = top_arab;
pos = (700,947);
},
{
name = bottom_arab;
pos = (650,0);
}
);
layerId = m000;
shapes = (
{
closed = 1;
nodes = (
(1233,504,l),
(1233,0,l),
(1232,0,l),
(1139,0,o),
(924,223,o),
(772,473,o),
(691,472,qs),
(630,472,o),
(598,393,o),
(583,309,o),
(575,258,qs),
(562,174,o),
(555,35,o),
(540,-25,q),
(70,50,l),
(80,117,o),
(104,338,o),
(151,500,o),
(170,561,q),
(250,789,o),
(472,1007,o),
(619,1007,qs),
(800,1007,o),
(1032,702,o),
(1202,504,o),
(1232,504,qs)
);
}
);
width = 1233;
}
);
unicode = 64423;
},
{
glyphname = "hehgoal-arab.medi";
layers = (
{
anchors = (
{
name = top_arab;
pos = (650,916);
},
{
name = bottom_arab;
pos = (650,-497);
}
);
layerId = m000;
shapes = (
{
closed = 1;
nodes = (
(0.012,504.015,cs),
(0.012,504.015,l),
(-66.671,336.013,o),
(-66.671,168.01,o),
(0.012,0.008,c),
(112.298,0.008,o),
(259.84,37.788,o),
(329.004,236.988,c),
(336.017,230.995,l),
(273.359,-162.14,o),
(415.076,-405.144,o),
(586.002,-572,c),
(878.019,-436.977,l),
(910.972,-224.749,o),
(944.045,-112.341,o),
(1032.032,-37.008,cs),
(1059.395,-13.579,o),
(1106,0,o),
(1139.012,0.008,c),
(1139.012,504.015,l),
(1074.001,504.015,o),
(981.413,477.91,o),
(899.014,415.02,cs),
(783.672,321.555,o),
(708.112,203.08,o),
(674.997,-113,c),
(649.243,48.616,o),
(653.024,130.109,o),
(653.024,266.992,cs),
(653.024,392.397,o),
(688.648,569.767,o),
(767.009,791.017,c),
(355.014,916.01,l),
(257.617,614.734,o),
(166.81,504.015,o)
);
}
);
width = 1139;
}
);
unicode = 64425;
},
{
glyphname = "hehdoachashmee-arab";
layers = (
{
anchors = (
{
name = top_arab;
pos = (715,1228);
},
{
name = bottom_arab;
pos = (715,0);
}
);
layerId = m000;
shapes = (
{
closed = 1;
nodes = (
(363,125,qs),
(240,125,o),
(70,346,o),
(70,505,qs),
(70,666,o),
(168,842,o),
(227,883,q),
(233,893,l),
(382.45,552.05,o),
(685,278,q),
(633,196,o),
(481,125,o)
);
},
{
closed = 1;
nodes = (
(130,626,o),
(130,655,qs),
(130,716,o),
(168,842,o),
(227,883,q),
(233,893,l),
(97,955,l),
(294,1388,l),
(942,1097,l),
(1128,1017,o),
(1338,841,o),
(1446,621,o),
(1446,476,qs),
(1446,330,o),
(1324,111,o),
(1126,-11,o),
(983,-11,qs),
(803,-11,o),
(636,129,o),
(575,278,q)
);
},
{
closed = 1;
nodes = (
(850,487,q),
(927,478,o),
(973,478,o),
(1002,478,qs),
(1127,478,o),
(1127,504,qs),
(1127,529,o),
(1093,570,o),
(967,616,o),
(907,636,q),
(888,581,o),
(862,516,o)
);
},
{
closed = 1;
nodes = (
(559,591,q),
(643,600,o),
(726,646,o),
(726,664,qs),
(726,687,o),
(662,738,o),
(563,738,qs),
(463,738,o),
(400,687,o),
(400,664,qs),
(400,644,o),
(484,603,o)
);
}
);
width = 1516;
}
);
unicode = (1726,64426);
},
{
glyphname = "hehdoachashmee-arab.fina";
layers = (
{
anchors = (
{
name = top_arab;
pos = (715,1228);
},
{
name = bottom_arab;
pos = (715,0);
}
);
layerId = m000;
shapes = (
{
closed = 1;
nodes = (
(1334,504,l),
(1521,504,l),
(1521,0,l),
(1044,0,l)
);
},
{
closed = 1;
nodes = (
(363,125,qs),
(240,125,o),
(70,346,o),
(70,505,qs),
(70,666,o),
(168,842,o),
(227,883,q),
(233,893,l),
(382.45,552.05,o),
(685,278,q),
(633,196,o),
(481,125,o)
);
},
{
closed = 1;
nodes = (
(130,626,o),
(130,655,qs),
(130,716,o),
(168,842,o),
(227,883,q),
(233,893,l),
(97,955,l),
(294,1388,l),
(942,1097,l),
(1128,1017,o),
(1338,841,o),
(1446,621,o),
(1446,476,qs),
(1446,330,o),
(1324,111,o),
(1126,-11,o),
(983,-11,qs),
(803,-11,o),
(636,129,o),
(575,278,q)
);
},
{
closed = 1;
nodes = (
(850,487,q),
(927,478,o),
(973,478,o),
(1002,478,qs),
(1127,478,o),
(1127,504,qs),
(1127,529,o),
(1093,570,o),
(967,616,o),
(907,636,q),
(888,581,o),
(862,516,o)
);
},
{
closed = 1;
nodes = (
(559,591,q),
(643,600,o),
(726,646,o),
(726,664,qs),
(726,687,o),
(662,738,o),
(563,738,qs),
(463,738,o),
(400,687,o),
(400,664,qs),
(400,644,o),
(484,603,o)
);
}
);
width = 1521;
}
);
unicode = 64427;
},
{
glyphname = "hehdoachashmee-arab.medi";
layers = (
{
anchors = (
{
name = top_arab;
pos = (700,1228);
},
{
name = bottom_arab;
pos = (700,0);
}
);
layerId = m000;
shapes = (
{
closed = 1;
nodes = (
(1354,504,l),
(1506,504,l),
(1506,0,l),
(1064,0,l)
);
},
{
closed = 1;
nodes = (
(0,504,q),
(91,504,l),
(98,504,o),
(111,505,o),
(168,505,q),
(129,533,o),
(115,626,o),
(115,655,qs),
(115,716,o),
(153,842,o),
(212,883,q),
(218,893,l),
(82,955,l),
(279,1388,l),
(927,1097,l),
(1113,1017,o),
(1323,841,o),
(1431,621,o),
(1431,476,qs),
(1431,330,o),
(1309,111,o),
(1111,-11,o),
(968,-11,qs),
(788,-11,o),
(621,129,o),
(560,278,q),
(528,146,o),
(365,0,o),
(169,0,qs),
(0,0,l),
(-100,252,o)
);
},
{
closed = 1;
nodes = (
(835,487,q),
(912,478,o),
(958,478,o),
(987,478,qs),
(1112,478,o),
(1112,504,qs),
(1112,529,o),
(1078,570,o),
(952,616,o),
(892,636,q),
(873,581,o),
(847,516,o)
);
},
{
closed = 1;
nodes = (
(544,591,q),
(628,600,o),
(711,646,o),
(711,664,qs),
(711,687,o),
(647,738,o),
(548,738,qs),
(448,738,o),
(385,687,o),
(385,664,qs),
(385,644,o),
(469,603,o)
);
}
);
width = 1506;
}
);
unicode = 64429;
},
{
glyphname = "alefmaksura-arab";
layers = (
{
anchors = (
{
name = top_arab;
pos = (450,759);
},
{
name = bottom_arab;
pos = (852,-437);
}
);
layerId = m000;
shapes = (
{
closed = 1;
nodes = (
(1622,1121,q),
(1506,682,l),
(1394,718,o),
(1295,718,qs),
(1184,718,o),
(1054,679,o),
(976,637,o),
(976,617,qs),
(976,601,o),
(1109,575,o),
(1240,561,o),
(1387,547,qs),
(1503,535,o),
(1636,468,o),
(1693,344,o),
(1693,248,qs),
(1693,40,o),
(1487,-274,o),
(1109,-447,o),
(852,-447,qs),
(469,-447,o),
(70,-86,o),
(70,232,qs),
(70,277,o),
(86,460,o),
(111,673,o),
(123,759,q),
(578,676,l),
(553,530,o),
(528,338,o),
(528,285,qs),
(528,169,o),
(675,54,o),
(872,54,qs),
(971,54,o),
(1207,83,o),
(1379,122,o),
(1379,136,qs),
(1379,139,o),
(1282,146,o),
(1179,155,o),
(1141,158,qs),
(1004,169,o),
(817,236,o),
(704,347,o),
(654,480,o),
(654,576,qs),
(654,706,o),
(768,933,o),
(940,1090,o),
(1184,1185,o),
(1323,1185,qs),
(1396,1185,o),
(1537,1156,o)
);
}
);
width = 1763;
}
);
unicode = (1609,1740,64508,65263);
},
{
glyphname = "farsiyeh-arab.fina";
layers = (
{
anchors = (
{
name = top_arab;
pos = (450,717);
},
{
name = bottom_arab;
pos = (877,-577);
}
);
layerId = m000;
shapes = (
{
closed = 1;
nodes = (
(1521,-20,l),
(1542,-23,o),
(1579,-64,o),
(1579,-142,qs),
(1579,-239,o),
(1463,-418,o),
(1264,-534,o),
(1012,-587,o),
(877,-587,qs),
(473,-587,o),
(70,-277,o),
(70,68,qs),
(70,222,o),
(106,525,o),
(155,717,q),
(590,632,l),
(511,324,o),
(511,111,qs),
(511,-15,o),
(686,-110,o),
(884,-110,qs),
(969,-110,o),
(1133,-102,o),
(1259,-60,o),
(1259,-10,qs),
(1259,7,o),
(1130,12,o),
(937,16,o),
(785,19,q),
(859,504,l),
(1863,504,l),
(1863,0,l),
(1521,0,l)
);
}
);
width = 1863;
}
);
unicode = (64509,65264);
},
{
glyphname = "yehbarree-arab";
layers = (
{
anchors = (
{
name = top_arab;
pos = (650,1125);
},
{
name = bottom_arab;
pos = (750,0);
}
);
layerId = m000;
shapes = (
{
closed = 1;
nodes = (
(589,0,l),
(445,0,o),
(210,90,o),
(70,285,o),
(70,443,qs),
(70,653,o),
(301,951,o),
(704,1149,o),
(851,1191,qs),
(996,1231,l),
(1143,765,l),
(961,715,l),
(806,673,o),
(603,600,o),
(452,549,o),
(452,516,qs),
(452,512,o),
(459,504,o),
(483,504,qs),
(1384,504,l),
(1384,0,l)
);
}
);
width = 1454;
}
);
unicode = (1746,64430);
},
{
glyphname = "yehbarree-arab.fina";
layers = (
{
anchors = (
{
name = top_arab;
pos = (700,504);
},
{
name = bottom_arab;
pos = (700,-605);
}
);
layerId = m000;
shapes = (
{
closed = 1;
nodes = (
(589,-605,l),
(445,-605,o),
(210,-515,o),
(70,-320,o),
(70,-162,qs),
(70,48,o),
(301,346,o),
(704,504,o),
(962,504,qs),
(1379,504,l),
(1379,0,l),
(961,0,l),
(817,0,o),
(588,-18,o),
(452,-56,o),
(452,-89,qs),
(452,-111,o),
(479,-121,o),
(513,-121,qs),
(1212,-121,l),
(1212,-605,l)
);
}
);
width = 1379;
}
);
unicode = 64431;
},
{
glyphname = "yehbarree-arab.2.fina";
layers = (
{
anchors = (
{
name = top_arab;
pos = (700,504);
},
{
name = bottom_arab;
pos = (700,-605);
}
);
layerId = m000;
shapes = (
{
closed = 1;
nodes = (
(589,-605,l),
(445,-605,o),
(210,-515,o),
(70,-320,o),
(70,-162,qs),
(70,48,o),
(301,346,o),
(704,504,o),
(962,504,qs),
(980,504,l),
(980,0,l),
(961,0,l),
(817,0,o),
(588,-18,o),
(452,-56,o),
(452,-89,qs),
(452,-111,o),
(479,-121,o),
(513,-121,qs),
(1212,-121,l),
(1212,-605,l)
);
}
);
width = 980;
}
);
},
{
glyphname = "alef_lam-arab.init";
layers = (
{
anchors = (
{
name = top_arab;
pos = (1022,1506);
},
{
name = top_arab;
pos = (323,1306);
},
{
name = bottom_arab;
pos = (1022,50);
},
{
name = bottom_arab;
pos = (323,0);
}
);
layerId = m000;
shapes = (
{
closed = 1;
nodes = (
(748,1113,q),
(761,1131,o),
(793,1263,o),
(783,1536,q),
(1262,1556,l),
(1282,1156,o),
(1163,902,o),
(1054,791,q),
(1163,704,o),
(1262,540,o),
(1262,445,qs),
(1262,305,o),
(1108,100,o),
(817,-11,o),
(615,-11,qs),
(503,-11,o),
(275,42,o),
(112,111,q),
(112,552,l),
(472,807,l),
(208,988,o),
(93,1103,q),
(230,1330,o),
(430,1442,q),
(498,1306,o)
);
},
{
closed = 1;
nodes = (
(737,594,q),
(445,478,l),
(445,477,l),
(531,467,o),
(655,458,o),
(712,458,qs),
(856,458,o),
(939,478,o),
(939,489,qs),
(939,495,o),
(820,563,o)
);
}
);
width = 1357;
}
);
},
{
glyphname = "alef_lam-arab.medi";
layers = (
{
anchors = (
{
name = top_arab;
pos = (1072,1506);
},
{
name = top_arab;
pos = (323,1356);
},
{
name = bottom_arab;
pos = (1072,0);
},
{
name = bottom_arab;
pos = (323,0);
}
);
layerId = m000;
shapes = (
{
closed = 1;
nodes = (
(97,1338,q),
(549,1456,l),
(645,1129,o),
(705,653,q),
(234,588,l),
(191,1047,o)
);
},
{
closed = 1;
nodes = (
(833,1536,q),
(1311,1556,l),
(1361,1056,o),
(1311,594,q),
(1309,540,o),
(1382,504,o),
(1467,504,qs),
(1468,504,l),
(1468,0,l),
(1467,0,l),
(1271,0,o),
(1040,149,o),
(969,298,q),
(966,308,l),
(888,174,o),
(661,35,o),
(321,0,o),
(73,0,q),
(73,504,l),
(291,504,o),
(579,532,o),
(832,595,o),
(843,672,qs),
(893,1056,o)
);
}
);
width = 1468;
}
);
},
{
glyphname = "lamalef-arab.isol";
layers = (
{
anchors = (
{
name = top_arab;
pos = (1022,1506);
},
{
name = top_arab;
pos = (323,1406);
},
{
name = bottom_arab;
pos = (1022,50);
},
{
name = bottom_arab;
pos = (323,0);
}
);
layerId = m000;
shapes = (
{
closed = 1;
nodes = (
(737,594,q),
(445,478,l),
(445,477,l),
(531,467,o),
(655,458,o),
(712,458,qs),
(856,458,o),
(939,478,o),
(939,489,qs),
(939,495,o),
(820,563,o)
);
},
{
closed = 1;
nodes = (
(748,1113,q),
(761,1131,o),
(793,1263,o),
(783,1536,q),
(1262,1556,l),
(1282,1156,o),
(1163,902,o),
(1054,791,q),
(1163,704,o),
(1262,540,o),
(1262,445,qs),
(1262,305,o),
(1108,100,o),
(817,-11,o),
(615,-11,qs),
(503,-11,o),
(275,42,o),
(112,111,q),
(112,552,l),
(472,807,l),
(208,988,o),
(20,1203,q),
(157,1430,o),
(357,1542,q),
(498,1306,o)
);
}
);
width = 1357;
}
);
unicode = 65275;
},
{
glyphname = "lamalef-arab.fina";
layers = (
{
anchors = (
{
name = top_arab;
pos = (1072,1506);
},
{
name = top_arab;
pos = (323,1456);
},
{
name = bottom_arab;
pos = (1072,0);
},
{
name = bottom_arab;
pos = (323,0);
}
);
layerId = m000;
shapes = (
{
closed = 1;
nodes = (
(70,1438,q),
(522,1556,l),
(645,1129,o),
(705,653,q),
(234,588,l),
(191,1047,o)
);
},
{
closed = 1;
nodes = (
(833,1536,q),
(1311,1556,l),
(1361,1056,o),
(1311,594,q),
(1309,540,o),
(1382,504,o),
(1467,504,qs),
(1468,504,l),
(1468,0,l),
(1467,0,l),
(1271,0,o),
(1040,149,o),
(969,298,q),
(966,308,l),
(888,174,o),
(661,35,o),
(321,0,o),
(73,0,q),
(73,504,l),
(291,504,o),
(579,532,o),
(832,595,o),
(843,672,qs),
(893,1056,o)
);
}
);
width = 1468;
}
);
unicode = 65276;
},
{
glyphname = "extendedarabicindiczero-arab";
layers = (
{
layerId = m000;
shapes = (
{
closed = 1;
nodes = (
(511,630,qs),
(412,630,o),
(339,585,o),
(339,566,qs),
(339,549,o),
(412,498,o),
(511,498,qs),
(609,498,o),
(683,549,o),
(683,566,qs),
(683,585,o),
(608,630,o)
);
},
{
closed = 1;
nodes = (
(511,1002,qs),
(629,1002,o),
(821,890,o),
(935,693,o),
(935,566,qs),
(935,442,o),
(823,241,o),
(631,125,o),
(511,125,qs),
(391,125,o),
(199,241,o),
(88,442,o),
(88,566,qs),
(88,693,o),
(200,890,o),
(392,1002,o)
);
}
);
width = 1021;
}
);
unicode = (48,1632,1776);
},
{
glyphname = "extendedarabicindicone-arab";
layers = (
{
layerId = m000;
shapes = (
{
closed = 1;
nodes = (
(708,0,q),
(230,0,l),
(228,222,o),
(220,567,o),
(186,897,o),
(111,1223,o),
(50,1405,q),
(501,1563,l),
(567,1367,o),
(651,1002,o),
(695,630,o),
(705,241,o)
);
}
);
width = 788;
}
);
unicode = (49,1633,1777);
},
{
glyphname = "extendedarabicindictwo-arab";
layers = (
{
layerId = m000;
shapes = (
{
closed = 1;
nodes = (
(782,661,o),
(708,686,o),
(703,706,q),
(696,699,l),
(756,460,o),
(769,176,o),
(771,0,q),
(294,0,l),
(292,257,o),
(237,701,o),
(130,1161,o),
(50,1411,q),
(500,1563,l),
(582,1246,l),
(586,1232,o),
(614,1153,o),
(671,1104,o),
(751,1113,qs),
(799,1118,o),
(857,1167,o),
(857,1219,qs),
(857,1314,o),
(830,1464,q),
(1256,1545,l),
(1274,1455,o),
(1293,1293,o),
(1293,1225,qs),
(1293,953,o),
(1060,662,o),
(849,662,qs)
);
}
);
width = 1363;
}
);
unicode = (50,1634,1778);
},
{
glyphname = "extendedarabicindicthree-arab";
layers = (
{
layerId = m000;
shapes = (
{
closed = 1;
nodes = (
(976,830,l),
(958,762,o),
(888,688,o),
(855,682,qs),
(785,671,o),
(708,686,o),
(703,706,q),
(696,699,l),
(756,460,o),
(769,176,o),
(771,0,q),
(294,0,l),
(292,257,o),
(237,701,o),
(130,1161,o),
(50,1411,q),
(500,1563,l),
(582,1246,l),
(586,1232,o),
(605,1178,o),
(625,1107,o),
(680,1116,qs),
(734,1125,o),
(774,1197,o),
(770,1266,qs),
(767,1338,o),
(761,1412,o),
(758,1448,q),
(1090,1451,l),
(1089,1397,o),
(1089,1339,o),
(1090,1279,o),
(1090,1222,qs),
(1090,1178,o),
(1146,1146,o),
(1180,1146,qs),
(1216,1146,o),
(1247,1167,o),
(1247,1219,qs),
(1247,1314,o),
(1220,1464,q),
(1646,1545,l),
(1664,1455,o),
(1683,1293,o),
(1683,1225,qs),
(1683,953,o),
(1450,662,o),
(1239,662,qs),
(1162,662,o),
(1003,766,o),
(986,830,q)
);
}
);
width = 1753;
}
);
unicode = (51,1635,1779);
},
{
glyphname = "extendedarabicindicfour-arab";
layers = (
{
layerId = m000;
shapes = (
{
closed = 1;
nodes = (
(577,1207,l),
(676,1454,o),
(910,1581,o),
(1087,1581,qs),
(1212,1581,o),
(1380,1518,q),
(1250,1095,l),
(1140,1136,o),
(1038,1136,qs),
(952,1136,o),
(822,1084,o),
(822,1046,qs),
(822,1006,o),
(937,940,o),
(1047,940,qs),
(1097,940,o),
(1199,945,o),
(1291,950,q),
(1343,508,l),
(1261,493,o),
(1120,475,o),
(1069,475,qs),
(991,475,o),
(862,475,o),
(764,541,q),
(755,537,l),
(769,378,o),
(773,267,o),
(771,173,o),
(770,76,o),
(770,0,q),
(292,0,l),
(290,258,o),
(238,706,o),
(133,1170,o),
(50,1419,q),
(522,1564,l),
(538,1511,o),
(549,1445,o),
(557,1364,o),
(567,1207,q)
);
}
);
width = 1410;
}
);
unicode = (52,1636,1780);
},
{
glyphname = "extendedarabicindicfive-arab";
layers = (
{
layerId = m000;
shapes = (
{
closed = 1;
nodes = (
(565,617,l),
(821,617,l),
(821,624,l),
(818,444,o),
(898,444,qs),
(994,444,o),
(1017,467,q),
(1017,542,o),
(830,789,o),
(728,896,q),
(624,829,o),
(487,690,o),
(400,565,o),
(400,498,qs),
(400,466,o),
(444,444,o),
(475,444,qs),
(514,444,o),
(567,526,o),
(566,624,q)
);
},
{
closed = 1;
nodes = (
(719,245,l),
(669,101,o),
(554,-14,o),
(442,-14,qs),
(276,-14,o),
(70,222,o),
(70,410,qs),
(70,533,o),
(164,790,o),
(333,1054,o),
(443,1140,q),
(439,1148,o),
(391,1189,o),
(327,1242,q),
(591,1612,l),
(816,1466,o),
(1157,1081,o),
(1346,719,o),
(1346,560,qs),
(1346,287,o),
(1155,-14,o),
(980,-14,qs),
(881,-14,o),
(769,106,o),
(729,245,q)
);
}
);
width = 1416;
}
);
unicode = (53,1637,1781);
},
{
glyphname = "extendedarabicindicsix-arab";
layers = (
{
layerId = m000;
shapes = (
{
closed = 1;
nodes = (
(462,676,l),
(321,670,o),
(155,777,o),
(102,936,o),
(102,1016,qs),
(102,1177,o),
(250,1439,o),
(503,1594,o),
(656,1594,qs),
(755,1594,o),
(966,1525,o),
(1072,1456,q),
(878,1090,l),
(755,1128,o),
(683,1128,qs),
(622,1128,o),
(550,1106,o),
(505,1068,o),
(505,1041,qs),
(505,1006,o),
(573,969,o),
(683,969,qs),
(741,969,o),
(946,987,o),
(1101,1011,q),
(1122,1015,l),
(1162,542,l),
(1140,540,l),
(1058,534,o),
(925,464,o),
(784,338,o),
(596,102,o),
(457,-90,q),
(70,207,l),
(151,312,o),
(261,490,o),
(466,666,q)
);
}
);
width = 1232;
}
);
unicode = (54,1638,1782);
},
{
glyphname = "extendedarabicindicseven-arab";
layers = (
{
layerId = m000;
shapes = (
{
closed = 1;
nodes = (
(793,674,l),
(826,883,o),
(900,1174,o),
(990,1330,o),
(1097,1501,o),
(1162,1588,q),
(1549,1290,l),
(1422,1145,o),
(1232,866,o),
(1108,575,o),
(1046,212,o),
(1026,0,q),
(554,0,l),
(534,212,o),
(471,575,o),
(347,866,o),
(156,1145,o),
(30,1290,q),
(417,1588,l),
(483,1501,o),
(589,1330,o),
(678,1174,o),
(750,883,o),
(783,674,q)
);
}
);
width = 1579;
}
);
unicode = (55,1639,1783);
},
{
glyphname = "extendedarabicindiceight-arab";
layers = (
{
layerId = m000;
shapes = (
{
closed = 1;
nodes = (
(785,866,l),
(752,656,o),
(678,365,o),
(589,208,o),
(483,39,o),
(418,-49,q),
(30,247,l),
(156,393,o),
(347,673,o),
(471,963,o),
(534,1327,o),
(554,1538,q),
(1026,1538,l),
(1046,1327,o),
(1108,963,o),
(1232,673,o),
(1422,393,o),
(1549,247,q),
(1162,-49,l),
(1097,39,o),
(989,208,o),
(901,365,o),
(827,656,o),
(795,866,q)
);
}
);
width = 1579;
}
);
unicode = (56,1640,1784);
},
{
glyphname = "extendedarabicindicnine-arab";
layers = (
{
layerId = m000;
shapes = (
{
closed = 1;
nodes = (
(652,645,q),
(627,585,o),
(565,510,o),
(476,509,qs),
(350,509,o),
(173,623,o),
(80,821,o),
(80,945,qs),
(80,1149,o),
(197,1439,o),
(399,1592,o),
(527,1592,qs),
(689,1592,o),
(899,1456,o),
(1019,1144,o),
(1046,882,qs),
(1067,708,o),
(1087,435,o),
(1112,266,o),
(1128,126,q),
(737,-30,l),
(722,79,o),
(699,226,o),
(678,390,o)
);
},
{
closed = 1;
nodes = (
(731,959,q),
(725,1018,l),
(716,1072,o),
(642,1124,o),
(553,1138,o),
(494,1138,qs),
(438,1138,o),
(380,1102,o),
(358,1044,o),
(358,1008,qs),
(358,984,o),
(469,971,o),
(510,971,qs),
(531,971,o),
(593,963,o)
);
}
);
width = 1198;
}
);
unicode = (57,1641,1785);
},
{
glyphname = uniE127;
layers = (
{
layerId = m000;
shapes = (
{
closed = 1;
nodes = (
(714,1922,q),
(752,1686,l),
(612,1658,o),
(274,1538,o),
(96,1455,q),
(0,1671,l),
(194,1763,o),
(567,1895,o)
);
}
);
width = 752;
}
);
unicode = 57639;
},
{
glyphname = arabichamzacomb;
layers = (
{
anchors = (
{
name = _top_arab;
pos = (0,1500);
},
{
name = top_arab;
pos = (0,2196);
}
);
layerId = m000;
shapes = (
{
closed = 1;
nodes = (
(189,2332,q),
(174,2122,l),
(116,2127,o),
(71,2134,o),
(51,2134,qs),
(2,2134,o),
(-53,2101,o),
(-53,2076,qs),
(-53,2056,o),
(-9,2031,o),
(47,2040,qs),
(72,2044,o),
(84,2049,q),
(220,2094,l),
(291,1855,l),
(-220,1690,l),
(-291,1930,l),
(-155,1970,l),
(-158,1978,l),
(-191,1985,o),
(-216,2046,o),
(-216,2096,qs),
(-216,2206,o),
(-67,2346,o),
(53,2346,qs),
(75,2346,o),
(133,2340,o)
);
}
);
}
);
unicode = 1620;
},
{
glyphname = arabichamzabelowcomb;
layers = (
{
anchors = (
{
name = _bottom_arab;
pos = (0,-300);
},
{
name = bottom_arab;
pos = (0,-946);
}
);
layerId = m000;
shapes = (
{
closed = 1;
nodes = (
(189,-525,q),
(174,-736,l),
(116,-731,o),
(71,-723,o),
(51,-723,qs),
(2,-723,o),
(-53,-757,o),
(-53,-781,qs),
(-53,-802,o),
(-9,-826,o),
(47,-817,qs),
(72,-813,o),
(84,-808,q),
(220,-764,l),
(291,-1002,l),
(-220,-1167,l),
(-291,-927,l),
(-155,-887,l),
(-158,-879,l),
(-191,-872,o),
(-216,-811,o),
(-216,-761,qs),
(-216,-651,o),
(-67,-511,o),
(53,-511,qs),
(75,-511,o),
(133,-517,o)
);
}
);
}
);
unicode = 1621;
},
{
glyphname = arabicfathacomb;
layers = (
{
anchors = (
{
name = _top_arab;
pos = (0,1500);
},
{
name = top_arab;
pos = (0,1840);
}
);
layerId = m000;
shapes = (
{
closed = 1;
nodes = (
(245,1989,l),
(279,1805,l),
(-245,1690,l),
(-279,1874,l)
);
}
);
}
);
unicode = (1614,65142);
},
{
glyphname = arabickasracomb;
layers = (
{
anchors = (
{
name = _bottom_arab;
pos = (0,-300);
},
{
name = bottom_arab;
pos = (0,-640);
}
);
layerId = m000;
shapes = (
{
closed = 1;
nodes = (
(245,-490,l),
(279,-674,l),
(-245,-789,l),
(-279,-605,l)
);
}
);
}
);
unicode = (1616,65146);
},
{
glyphname = arabicdammacomb;
layers = (
{
anchors = (
{
name = _top_arab;
pos = (0,1500);
},
{
name = top_arab;
pos = (0,2140);
}
);
layerId = m000;
shapes = (
{
closed = 1;
nodes = (
(39,2123,qs),
(12,2123,o),
(-21,2106,o),
(-21,2089,qs),
(-21,2089,o),
(-17,2067,o),
(10,2035,o),
(49,2013,q),
(79,2039,o),
(79,2089,qs),
(79,2109,o),
(57,2123,o)
);
},
{
closed = 1;
nodes = (
(82,2300,qs),
(160,2300,o),
(256,2198,o),
(256,2105,qs),
(256,2027,o),
(137,1856,o),
(-75,1715,o),
(-215,1680,q),
(-266,1880,l),
(-250,1884,o),
(-176,1910,o),
(-121,1930,q),
(-146,1948,o),
(-175,2002,o),
(-188,2061,o),
(-188,2087,qs),
(-188,2147,o),
(-105,2254,o),
(18,2300,o)
);
}
);
}
);
unicode = (1615,65144);
},
{
glyphname = arabicdammatancomb;
layers = (
{
anchors = (
{
name = _top_arab;
pos = (0,1500);
},
{
name = top_arab;
pos = (0,2140);
}
);
layerId = m000;
shapes = (
{
closed = 1;
nodes = (
(42,2123,qs),
(22,2123,o),
(-21,2102,o),
(-21,2089,qs),
(-21,2089,o),
(-18,2067,o),
(9,2035,o),
(49,2013,q),
(79,2039,o),
(79,2089,qs),
(79,2109,o),
(54,2123,o)
);
},
{
closed = 1;
nodes = (
(82,2300,qs),
(160,2300,o),
(256,2198,o),
(256,2105,qs),
(256,2025,o),
(137,1854,o),
(-77,1715,o),
(-219,1680,q),
(-263,1788,o),
(-343,1883,o),
(-410,1914,q),
(-300,2083,l),
(-254,2057,o),
(-186,1973,o),
(-155,1913,q),
(-159,1913,o),
(-124,1931,o),
(-121,1929,q),
(-146,1947,o),
(-165,2002,o),
(-178,2062,o),
(-178,2087,qs),
(-178,2147,o),
(-95,2254,o),
(18,2300,o)
);
}
);
}
);
unicode = (1612,65138);
},
{
glyphname = arabicshaddacomb;
layers = (
{
anchors = (
{
name = _top_arab;
pos = (0,1500);
},
{
name = top_arab;
pos = (0,1941);
}
);
layerId = m000;
shapes = (
{
closed = 1;
nodes = (
(4,1764,q),
(-4,1764,l),
(-22,1734,o),
(-86,1695,o),
(-118,1695,qs),
(-196,1695,o),
(-294,1796,o),
(-294,1876,qs),
(-294,1944,o),
(-284,2025,o),
(-278,2056,q),
(-128,2034,l),
(-130,2012,o),
(-132,1956,o),
(-132,1933,qs),
(-132,1903,o),
(-100,1903,qs),
(-82,1903,o),
(-62,1928,o),
(-62,1948,qs),
(-62,2021,l),
(62,2021,l),
(62,1948,l),
(62,1928,o),
(82,1903,o),
(100,1903,qs),
(132,1903,o),
(132,1933,qs),
(132,1956,o),
(130,2012,o),
(128,2034,q),
(278,2056,l),
(284,2025,o),
(294,1944,o),
(294,1876,qs),
(294,1796,o),
(196,1695,o),
(118,1695,qs),
(86,1695,o),
(22,1734,o)
);
}
);
}
);
unicode = (1617,65148);
},
{
glyphname = arabicalefcomb;
layers = (
{
anchors = (
{
name = _top_arab;
pos = (0,1500);
},
{
name = top_arab;
pos = (0,2020);
}
);
layerId = m000;
shapes = (
{
closed = 1;
nodes = (
(-106,2100,l),
(106,2100,l),
(106,1700,l),
(-106,1700,l)
);
}
);
}
);
unicode = 1648;
},
{
glyphname = "alefcomb-arab";
layers = (
{
anchors = (
{
name = _bottom_arab;
pos = (0,-300);
},
{
name = bottom_arab;
pos = (0,-906);
}
);
layerId = m000;
shapes = (
{
closed = 1;
nodes = (
(-106,-500,l),
(106,-500,l),
(106,-986,l),
(-106,-986,l)
);
}
);
}
);
unicode = (1622,2221);
},
{
glyphname = arabicsukuncomb;
layers = (
{
anchors = (
{
name = _top_arab;
pos = (0,1500);
},
{
name = top_arab;
pos = (0,1978);
}
);
layerId = m000;
shapes = (
{
closed = 1;
nodes = (
(0,1921,qs),
(-21,1921,o),
(-55,1899,o),
(-55,1885,qs),
(-55,1871,o),
(-18,1847,o),
(0,1847,qs),
(18,1847,o),
(55,1872,o),
(55,1885,qs),
(55,1898,o),
(19,1921,o)
);
},
{
closed = 1;
nodes = (
(0,2078,qs),
(82,2078,o),
(197,1967,o),
(197,1885,qs),
(197,1804,o),
(83,1690,o),
(0,1690,qs),
(-82,1690,o),
(-197,1804,o),
(-197,1885,qs),
(-197,1968,o),
(-82,2078,o)
);
}
);
}
);
unicode = (1618,65150);
},
{
glyphname = arabicfathatancomb;
layers = (
{
anchors = (
{
name = _top_arab;
pos = (0,1500);
},
{
name = top_arab;
pos = (0,2165);
}
);
layerId = m000;
shapes = (
{
closed = 1;
nodes = (
(255,2384,l),
(319,2169,l),
(-255,2015,l),
(-319,2229,l)
);
},
{
closed = 1;
nodes = (
(255,2059,l),
(319,1844,l),
(-255,1690,l),
(-319,1904,l)
);
}
);
}
);
unicode = (1611,65136);
},
{
glyphname = arabickasratancomb;
layers = (
{
anchors = (
{
name = _bottom_arab;
pos = (0,-300);
},
{
name = bottom_arab;
pos = (0,-963);
}
);
layerId = m000;
shapes = (
{
closed = 1;
nodes = (
(255,-490,l),
(319,-705,l),
(-255,-859,l),
(-319,-645,l)
);
},
{
closed = 1;
nodes = (
(255,-812,l),
(319,-1027,l),
(-255,-1181,l),
(-319,-967,l)
);
}
);
}
);
unicode = (1613,65140);
},
{
glyphname = arabicmaddahcomb;
layers = (
{
anchors = (
{
name = _top_arab;
pos = (0,1500);
},
{
name = top_arab;
pos = (0,2001);
}
);
layerId = m000;
shapes = (
{
closed = 1;
nodes = (
(-444,1833,l),
(-320,2081,o),
(-168,2081,qs),
(-142,2081,o),
(-85,2071,o),
(-61,2061,q),
(-38,2050,o),
(23,1987,o),
(70,1987,qs),
(94,1987,o),
(115,2026,o),
(154,2099,q),
(388,1969,l),
(280,1700,o),
(121,1700,qs),
(62,1700,o),
(4,1723,qs),
(-23,1734,o),
(-64,1784,o),
(-112,1784,qs),
(-140,1784,o),
(-175,1744,o),
(-218,1690,q)
);
}
);
}
);
unicode = 1619;
},
{
glyphname = uniE054;
layers = (
{
layerId = m000;
shapes = (
{
closed = 1;
nodes = (
(145,0,qs),
(95,0,o),
(0,15,q),
(50,223,l),
(84,217,o),
(152,209,o),
(181,209,qs),
(220,209,o),
(308,215,o),
(350,234,o),
(350,235,qs),
(350,247,o),
(268,248,o),
(215,259,qs),
(153,272,o),
(49,315,o),
(18,375,o),
(18,412,qs),
(18,542,o),
(177,710,o),
(306,710,qs),
(364,710,o),
(474,692,q),
(409,492,l),
(325,507,o),
(287,507,qs),
(248,507,o),
(143,481,o),
(143,465,qs),
(143,457,o),
(276,429,o),
(361,410,qs),
(408,400,o),
(458,360,o),
(476,302,o),
(476,264,qs),
(476,186,o),
(399,65,o),
(252,0,o)
);
}
);
width = 476;
}
);
unicode = 57428;
},
{
glyphname = "farsiyeh-arab.fina.1";
layers = (
{
anchors = (
{
name = top_arab;
pos = (450,717);
},
{
name = bottom_arab;
pos = (877,-577);
}
);
layerId = m000;
shapes = (
{
closed = 1;
nodes = (
(1521,-20,l),
(1542,-23,o),
(1579,-64,o),
(1579,-142,qs),
(1579,-239,o),
(1463,-418,o),
(1264,-534,o),
(1012,-587,o),
(877,-587,qs),
(473,-587,o),
(70,-277,o),
(70,68,qs),
(70,222,o),
(106,525,o),
(155,717,q),
(590,632,l),
(511,324,o),
(511,111,qs),
(511,-15,o),
(686,-110,o),
(884,-110,qs),
(969,-110,o),
(1133,-102,o),
(1259,-60,o),
(1259,-10,qs),
(1259,7,o),
(1130,12,o),
(937,16,o),
(785,19,q),
(859,504,l),
(1553,504,l),
(1553,0,l),
(1521,0,l)
);
}
);
width = 1553;
}
);
unicode = 57430;
},
{
glyphname = uniE069;
layers = (
{
layerId = m000;
shapes = (
{
closed = 1;
nodes = (
(388,160,l),
(342,108,o),
(153,0,o),
(13,0,q),
(-100,252,o),
(13,504,q),
(76,504,o),
(135,512,o),
(152,531,o),
(152,579,qs),
(152,1278,l),
(629,1278,l),
(629,579,l),
(629,537,o),
(663,506,o),
(726,504,o),
(775,504,qs),
(776,504,l),
(776,0,l),
(775,0,l),
(624,0,o),
(443,111,o),
(398,160,q)
);
}
);
width = 776;
}
);
unicode = 57449;
},
{
glyphname = uniE094;
layers = (
{
layerId = m000;
shapes = (
{
closed = 1;
nodes = (
(205,376,q),
(227,370,l),
(273,389,o),
(307,389,qs),
(362,389,o),
(451,289,o),
(451,212,qs),
(451,119,o),
(336,4,o),
(245,4,qs),
(133,4,o),
(0,150,o),
(0,271,qs),
(0,394,o),
(122,644,o),
(222,732,q),
(361,602,l),
(301,546,o),
(226,435,o)
);
}
);
width = 451;
}
);
unicode = 57492;
},
{
glyphname = ornateparenleft;
layers = (
{
layerId = m000;
shapes = (
{
closed = 1;
nodes = (
(254,768,qs),
(254,701,o),
(327,614,o),
(396,614,qs),
(464,614,o),
(534,701,o),
(534,768,qs),
(534,836,o),
(463,921,o),
(396,921,qs),
(327,921,o),
(254,834,o)
);
},
{
closed = 1;
nodes = (
(830,61,q),
(544,-126,l),
(431,34,o),
(278,279,o),
(235,413,q),
(130,463,o),
(21,660,o),
(21,768,qs),
(21,877,o),
(127,1067,o),
(231,1118,q),
(274,1261,o),
(431,1529,o),
(544,1689,q),
(830,1501,l),
(747,1373,o),
(657,1166,o),
(636,1075,q),
(702,1017,o),
(770,856,o),
(770,768,qs),
(770,683,o),
(704,517,o),
(637,459,q),
(660,377,o),
(749,186,o)
);
}
);
width = 810;
}
);
unicode = 64830;
},
{
glyphname = ornateparenright;
layers = (
{
layerId = m000;
shapes = (
{
closed = 1;
nodes = (
(593,768,qs),
(593,834,o),
(522,921,o),
(454,921,qs),
(386,921,o),
(315,836,o),
(315,768,qs),
(315,701,o),
(386,614,o),
(454,614,qs),
(523,614,o),
(593,701,o)
);
},
{
closed = 1;
nodes = (
(20,61,l),
(101,186,o),
(189,377,o),
(213,459,q),
(145,517,o),
(78,683,o),
(78,768,qs),
(78,856,o),
(147,1017,o),
(214,1075,q),
(192,1166,o),
(102,1373,o),
(20,1501,q),
(303,1689,l),
(418,1529,o),
(574,1261,o),
(617,1118,q),
(685,1085,o),
(782,976,o),
(829,841,o),
(829,768,qs),
(829,660,o),
(720,463,o),
(615,413,q),
(573,279,o),
(416,34,o),
(303,-126,q)
);
}
);
width = 810;
}
);
unicode = 64831;
},
{
glyphname = "vowelsignsmallvcomb-arab";
layers = (
{
anchors = (
{
name = _top_arab;
pos = (0,1500);
}
);
layerId = m000;
shapes = (
{
closed = 1;
nodes = (
(102,1694,l),
(-102,1694,l),
(-307,1988,l),
(-128,2120,l),
(0,1915,l),
(128,2120,l),
(307,1988,l)
);
}
);
}
);
unicode = 1626;
},
{
glyphname = "vowelsigninvertedsmallvcomb-arab";
layers = (
{
anchors = (
{
name = _top_arab;
pos = (0,1500);
}
);
layerId = m000;
shapes = (
{
closed = 1;
nodes = (
(-101,2096,l),
(101,2096,l),
(307,1802,l),
(128,1670,l),
(-1,1875,l),
(-128,1670,l),
(-308,1802,l)
);
}
);
width = -2;
}
);
unicode = 1627;
},
{
glyphname = uE055;
layers = (
{
layerId = m000;
shapes = (
{
closed = 1;
nodes = (
(94,1873,q),
(111,1867,o),
(144,1862,o),
(164,1862,qs),
(265,1862,o),
(265,1912,qs),
(265,1930,o),
(236,1952,o),
(212,1952,qs),
(181,1952,o),
(123,1913,o)
);
},
{
closed = 1;
nodes = (
(-8,1927,q),
(63,2028,o),
(179,2112,o),
(247,2112,qs),
(324,2112,o),
(405,2019,o),
(405,1933,qs),
(405,1815,o),
(264,1660,o),
(157,1660,qs),
(120,1660,o),
(51,1683,o),
(7,1708,q),
(-24,1727,o),
(-68,1743,o),
(-88,1743,qs),
(-119,1743,o),
(-168,1699,o),
(-201,1642,q),
(-341,1733,l),
(-294,1844,o),
(-179,1954,o),
(-111,1954,qs),
(-87,1954,o),
(-36,1941,o)
);
}
);
}
);
unicode = 57429;
},
{
glyphname = "smallhightahcomb-arab";
layers = (
{
anchors = (
{
name = _top_arab;
pos = (0,1500);
}
);
layerId = m000;
shapes = (
{
closed = 1;
nodes = (
(-86,1890,q),
(-42,1890,l),
(26,1890,o),
(94,1901,o),
(94,1920,qs),
(94,1929,o),
(74,1944,o),
(56,1944,qs),
(30,1944,o),
(-46,1915,o)
);
},
{
closed = 1;
nodes = (
(-226,1890,l),
(-226,2256,l),
(-42,2256,l),
(-42,2094,l),
(-32,2094,l),
(28,2130,o),
(72,2135,o),
(114,2135,qs),
(176,2135,o),
(256,2026,o),
(256,1968,qs),
(256,1828,o),
(94,1691,o),
(-42,1691,qs),
(-310,1691,l),
(-310,1890,l)
);
}
);
}
);
unicode = (1557,57535,64448);
},
{
glyphname = "fullstop-arab";
layers = (
{
layerId = m000;
shapes = (
{
closed = 1;
nodes = (
(1212,0,l),
(1212,-476,l),
(75,-476,l),
(75,0,l)
);
}
);
width = 1308;
}
);
unicode = 1748;
},
{
glyphname = "swashkaf-arab";
layers = (
{
anchors = (
{
name = top_arab;
pos = (1882,1031);
},
{
name = bottom_arab;
pos = (1300,0);
}
);
layerId = m000;
shapes = (
{
closed = 1;
nodes = (
(116,1008,q),
(547,917,l),
(538,854,o),
(521,683,o),
(521,651,qs),
(521,597,o),
(591,532,o),
(748,504,o),
(880,504,q),
(883,0,l),
(604,0,o),
(245,127,o),
(70,389,o),
(70,592,qs),
(70,743,o)
);
},
{
closed = 1;
nodes = (
(1192,1679,l),
(1482,1316,l),
(998,1031,l),
(1873,1031,l),
(2099,1031,o),
(2391,934,o),
(2534,736,o),
(2534,578,qs),
(2534,392,o),
(2411,186,o),
(2132,0,o),
(1897,0,qs),
(880,0,l),
(596,209,o),
(880,504,q),
(2047,504,l),
(2076,504,o),
(2112,505,o),
(2130,511,o),
(2130,538,qs),
(2130,563,o),
(2117,593,o),
(2093,616,o),
(2054,616,qs),
(785,616,l),
(641,1133,l)
);
}
);
width = 2604;
}
);
unicode = 1706;
},
{
glyphname = uE098;
layers = (
{
anchors = (
{
name = top_arab;
pos = (1882,1031);
},
{
name = bottom_arab;
pos = (1300,0);
}
);
layerId = m000;
shapes = (
{
closed = 1;
nodes = (
(2234,571,o),
(2534,578,q),
(2534,549,o),
(2553,511,o),
(2618,503,o),
(2686,503,qs),
(2687,503,l),
(2687,-1,l),
(2686,-1,l),
(2570,-1,o),
(2366,121,o),
(2303,263,q),
(2293,263,l),
(2237,120,o),
(2222,502,o),
(2234,506,o),
(2234,537,qs)
);
},
{
closed = 1;
nodes = (
(116,1008,q),
(547,917,l),
(538,854,o),
(521,683,o),
(521,651,qs),
(521,597,o),
(591,532,o),
(748,504,o),
(880,504,q),
(883,0,l),
(604,0,o),
(245,127,o),
(70,389,o),
(70,592,qs),
(70,743,o)
);
},
{
closed = 1;
nodes = (
(1192,1679,l),
(1482,1316,l),
(998,1031,l),
(1873,1031,l),
(2099,1031,o),
(2391,934,o),
(2534,736,o),
(2534,578,qs),
(2534,392,o),
(2411,186,o),
(2132,0,o),
(1897,0,qs),
(880,0,l),
(596,209,o),
(880,504,q),
(2047,504,l),
(2076,504,o),
(2112,505,o),
(2130,511,o),
(2130,538,qs),
(2130,563,o),
(2117,593,o),
(2093,616,o),
(2054,616,qs),
(785,616,l),
(641,1133,l)
);
}
);
width = 2687;
}
);
unicode = 57496;
},
{
glyphname = uE099;
layers = (
{
anchors = (
{
name = top_arab;
pos = (1342,1031);
},
{
name = bottom_arab;
pos = (860,0);
}
);
layerId = m000;
shapes = (
{
closed = 1;
nodes = (
(0,504,q),
(0,0,l),
(-31,0,o),
(-61,118,o),
(-61,253,qs),
(-61,388,o),
(-31,504,o)
);
},
{
closed = 1;
nodes = (
(552,1679,l),
(842,1316,l),
(358,1031,l),
(1233,1031,l),
(1459,1031,o),
(1751,934,o),
(1894,736,o),
(1894,578,qs),
(1894,392,o),
(1771,186,o),
(1492,0,o),
(1257,0,qs),
(0,0,l),
(0,504,l),
(1407,504,l),
(1436,504,o),
(1472,505,o),
(1490,511,o),
(1490,538,qs),
(1490,563,o),
(1477,593,o),
(1453,616,o),
(1414,616,qs),
(145,616,l),
(1,1133,l)
);
}
);
width = 1964;
}
);
unicode = 57497;
},
{
glyphname = uE0A0;
layers = (
{
anchors = (
{
name = top_arab;
pos = (1342,1031);
},
{
name = bottom_arab;
pos = (860,0);
}
);
layerId = m000;
shapes = (
{
closed = 1;
nodes = (
(1493,572,o),
(1894,579,q),
(1893,550,o),
(1912,512,o),
(1977,504,o),
(2045,504,qs),
(2046,504,l),
(2046,0,l),
(2045,0,l),
(1929,0,o),
(1725,122,o),
(1662,264,q),
(1652,264,l),
(1596,121,o),
(1656,425,o),
(1668,429,o),
(1623,538,q)
);
},
{
closed = 1;
nodes = (
(0,504,q),
(0,0,l),
(-31,0,o),
(-61,118,o),
(-61,253,qs),
(-61,388,o),
(-31,504,o)
);
},
{
closed = 1;
nodes = (
(552,1679,l),
(842,1316,l),
(358,1031,l),
(1233,1031,l),
(1459,1031,o),
(1751,934,o),
(1894,736,o),
(1894,578,qs),
(1894,392,o),
(1771,186,o),
(1492,0,o),
(1257,0,qs),
(0,0,l),
(0,504,l),
(1407,504,l),
(1436,504,o),
(1472,505,o),
(1490,511,o),
(1490,538,qs),
(1490,563,o),
(1477,593,o),
(1453,616,o),
(1414,616,qs),
(145,616,l),
(1,1133,l)
);
}
);
width = 2046;
}
);
unicode = 57504;
},
{
glyphname = uE060;
layers = (
{
layerId = m000;
shapes = (
{
closed = 1;
nodes = (
(0,504,q),
(89,504,o),
(146,511,o),
(224,524,o),
(266,535,q),
(177,901,l),
(624,1003,l),
(647,898,o),
(676,679,o),
(676,598,qs),
(676,374,o),
(490,102,o),
(187,0,o),
(0,0,q),
(-100,252,o)
);
}
);
width = 746;
}
);
unicode = 57440;
},
{
glyphname = uE061;
layers = (
{
layerId = m000;
shapes = (
{
closed = 1;
nodes = (
(692,884,l),
(692,624,l),
(692,574,o),
(717,529,o),
(762,504,o),
(812,504,qs),
(854,504,l),
(854,0,l),
(812,0,l),
(692,0,o),
(519,129,o),
(459,249,q),
(449,249,l),
(389,129,o),
(216,0,o),
(96,0,qs),
(0,0,l),
(-100,252,o),
(0,504,q),
(96,504,l),
(146,504,o),
(191,529,o),
(216,574,o),
(216,624,qs),
(216,884,l)
);
}
);
width = 854;
}
);
unicode = 57441;
},
{
glyphname = uE076;
layers = (
{
layerId = m000;
shapes = (
{
closed = 1;
nodes = (
(0,504,q),
(89,504,o),
(146,511,o),
(224,524,o),
(266,535,q),
(177,901,l),
(624,1003,l),
(647,898,o),
(676,679,o),
(676,598,qs),
(676,374,o),
(490,102,o),
(187,0,o),
(0,0,q),
(-100,252,o)
);
}
);
width = 746;
}
);
unicode = 57462;
},
{
glyphname = uE077;
layers = (
{
layerId = m000;
shapes = (
{
closed = 1;
nodes = (
(692,884,l),
(692,624,l),
(692,574,o),
(717,529,o),
(762,504,o),
(812,504,qs),
(854,504,l),
(854,0,l),
(812,0,l),
(692,0,o),
(519,129,o),
(459,249,q),
(449,249,l),
(389,129,o),
(216,0,o),
(96,0,qs),
(0,0,l),
(-100,252,o),
(0,504,q),
(96,504,l),
(146,504,o),
(191,529,o),
(216,574,o),
(216,624,qs),
(216,884,l)
);
}
);
width = 854;
}
);
unicode = 57463;
},
{
glyphname = uE108;
layers = (
{
layerId = m000;
shapes = (
{
closed = 1;
nodes = (
(474,10,l),
(505,-241,l),
(266,-536,l),
(90,-437,l),
(266,-250,l),
(1,-293,l),
(0,-42,l)
);
}
);
width = 505;
}
);
unicode = 57608;
},
{
glyphname = "dotlessbeh-arab";
layers = (
{
anchors = (
{
name = top_arab;
pos = (987,734);
},
{
name = bottom_arab;
pos = (987,0);
}
);
layerId = m000;
shapes = (
{
closed = 1;
nodes = (
(1852,1023,l),
(1875,918,o),
(1904,699,o),
(1904,618,qs),
(1904,394,o),
(1718,122,o),
(1315,0,o),
(988,0,qs),
(659,0,o),
(256,123,o),
(70,395,o),
(70,621,qs),
(70,706,o),
(103,925,o),
(125,1023,q),
(546,934,l),
(539,876,o),
(519,723,o),
(519,684,qs),
(519,594,o),
(602,519,o),
(806,504,o),
(988,504,qs),
(1167,504,o),
(1300,505,o),
(1415,525,o),
(1494,555,q),
(1425,722,o),
(1407,872,o),
(1400,934,q)
);
}
);
width = 1974;
}
);
unicode = 1646;
},
{
glyphname = uE113;
layers = (
{
anchors = (
{
name = top_arab;
pos = (1022,1986);
},
{
name = top_arab;
pos = (323,1356);
},
{
name = bottom_arab;
pos = (1022,50);
},
{
name = bottom_arab;
pos = (323,0);
}
);
layerId = m000;
shapes = (
{
pos = (1022,-34);
ref = "vowelsignsmallvcomb-arab";
},
{
closed = 1;
nodes = (
(748,1113,q),
(761,1131,o),
(793,1263,o),
(783,1536,q),
(1262,1556,l),
(1282,1156,o),
(1163,902,o),
(1054,791,q),
(1163,704,o),
(1262,540,o),
(1262,445,qs),
(1262,305,o),
(1108,100,o),
(817,-11,o),
(615,-11,qs),
(503,-11,o),
(275,42,o),
(112,111,q),
(112,552,l),
(472,807,l),
(208,988,o),
(93,1103,q),
(230,1330,o),
(430,1442,q),
(498,1306,o)
);
},
{
closed = 1;
nodes = (
(737,594,q),
(445,478,l),
(445,477,l),
(531,467,o),
(655,458,o),
(712,458,qs),
(856,458,o),
(939,478,o),
(939,489,qs),
(939,495,o),
(820,563,o)
);
}
);
width = 1319;
}
);
unicode = 57619;
},
{
glyphname = uE114;
layers = (
{
anchors = (
{
name = top_arab;
pos = (1072,1986);
},
{
name = top_arab;
pos = (323,1356);
},
{
name = bottom_arab;
pos = (1072,0);
},
{
name = bottom_arab;
pos = (323,0);
}
);
layerId = m000;
shapes = (
{
closed = 1;
nodes = (
(97,1338,q),
(549,1456,l),
(645,1129,o),
(705,653,q),
(234,588,l),
(191,1047,o)
);
},
{
closed = 1;
nodes = (
(833,1536,q),
(1311,1556,l),
(1361,1056,o),
(1311,594,q),
(1309,540,o),
(1382,504,o),
(1467,504,qs),
(1468,504,l),
(1468,0,l),
(1467,0,l),
(1271,0,o),
(1040,149,o),
(969,298,q),
(966,308,l),
(888,174,o),
(661,35,o),
(321,0,o),
(73,0,q),
(73,504,l),
(291,504,o),
(579,532,o),
(832,595,o),
(843,672,qs),
(893,1056,o)
);
},
{
pos = (1072,-34);
ref = "vowelsignsmallvcomb-arab";
}
);
width = 1468;
}
);
unicode = 57620;
},
{
glyphname = uE115;
layers = (
{
anchors = (
{
name = top_arab;
pos = (1022,1986);
},
{
name = top_arab;
pos = (323,1456);
},
{
name = bottom_arab;
pos = (1022,50);
},
{
name = bottom_arab;
pos = (323,0);
}
);
layerId = m000;
shapes = (
{
pos = (1022,-34);
ref = "vowelsignsmallvcomb-arab";
},
{
closed = 1;
nodes = (
(748,1113,q),
(761,1131,o),
(793,1263,o),
(783,1536,q),
(1262,1556,l),
(1282,1156,o),
(1163,902,o),
(1054,791,q),
(1163,704,o),
(1262,540,o),
(1262,445,qs),
(1262,305,o),
(1108,100,o),
(817,-11,o),
(615,-11,qs),
(503,-11,o),
(275,42,o),
(112,111,q),
(112,552,l),
(472,807,l),
(208,988,o),
(20,1203,q),
(157,1430,o),
(357,1542,q),
(498,1306,o)
);
},
{
closed = 1;
nodes = (
(737,594,q),
(445,478,l),
(445,477,l),
(531,467,o),
(655,458,o),
(712,458,qs),
(856,458,o),
(939,478,o),
(939,489,qs),
(939,495,o),
(820,563,o)
);
}
);
width = 1435;
}
);
unicode = 57621;
},
{
glyphname = uE116;
layers = (
{
anchors = (
{
name = top_arab;
pos = (1072,1986);
},
{
name = top_arab;
pos = (323,1456);
},
{
name = bottom_arab;
pos = (1072,0);
},
{
name = bottom_arab;
pos = (323,0);
}
);
layerId = m000;
shapes = (
{
pos = (1072,-34);
ref = "vowelsignsmallvcomb-arab";
},
{
closed = 1;
nodes = (
(70,1438,q),
(522,1556,l),
(645,1129,o),
(705,653,q),
(234,588,l),
(191,1047,o)
);
},
{
closed = 1;
nodes = (
(833,1536,q),
(1311,1556,l),
(1361,1056,o),
(1311,594,q),
(1309,540,o),
(1382,504,o),
(1467,504,qs),
(1468,504,l),
(1468,0,l),
(1467,0,l),
(1271,0,o),
(1040,149,o),
(969,298,q),
(966,308,l),
(888,174,o),
(661,35,o),
(321,0,o),
(73,0,q),
(73,504,l),
(291,504,o),
(579,532,o),
(832,595,o),
(843,672,qs),
(893,1056,o)
);
}
);
width = 1468;
}
);
unicode = 57622;
},
{
glyphname = uE1B3;
layers = (
{
layerId = m000;
shapes = (
{
closed = 1;
nodes = (
(780,850,l),
(765,782,o),
(709,708,o),
(683,702,q),
(627,691,o),
(565,736,o),
(561,756,q),
(556,749,l),
(604,480,o),
(614,176,o),
(616,0,q),
(234,0,l),
(232,257,o),
(188,721,o),
(103,1181,o),
(39,1431,q),
(399,1583,l),
(464,1266,l),
(468,1252,o),
(483,1198,o),
(515,1147,o),
(559,1156,qs),
(602,1165,o),
(634,1237,o),
(631,1306,qs),
(628,1378,o),
(624,1452,o),
(621,1488,q),
(887,1491,l),
(886,1437,o),
(886,1379,o),
(887,1319,o),
(887,1262,qs),
(887,1218,o),
(932,1186,o),
(959,1186,qs),
(988,1186,o),
(1012,1207,o),
(1012,1259,qs),
(1012,1354,o),
(991,1504,q),
(1332,1585,l),
(1346,1495,o),
(1361,1333,o),
(1361,1265,qs),
(1361,993,o),
(1159,682,o),
(990,682,qs),
(928,682,o),
(801,786,o),
(788,850,q)
);
}
);
width = 1400;
}
);
unicode = 57779;
},
{
glyphname = uE1B7;
layers = (
{
layerId = m000;
shapes = (
{
closed = 1;
nodes = (
(704,614,l),
(736,923,o),
(810,1214,o),
(900,1390,o),
(1008,1561,o),
(1072,1648,q),
(1380,1350,l),
(1302,1185,o),
(1142,906,o),
(1018,615,o),
(956,252,o),
(936,0,q),
(464,0,l),
(444,252,o),
(382,615,o),
(258,906,o),
(96,1185,o),
(20,1350,q),
(328,1648,l),
(394,1561,o),
(500,1390,o),
(588,1214,o),
(660,923,o),
(694,614,q)
);
}
);
width = 1400;
}
);
unicode = 57783;
},
{
glyphname = uE1B8;
layers = (
{
layerId = m000;
shapes = (
{
closed = 1;
nodes = (
(696,966,l),
(662,656,o),
(588,365,o),
(500,188,o),
(394,19,o),
(328,-69,q),
(20,227,l),
(96,393,o),
(258,673,o),
(382,963,o),
(444,1327,o),
(464,1578,q),
(936,1578,l),
(956,1327,o),
(1018,963,o),
(1142,673,o),
(1302,393,o),
(1380,227,q),
(1072,-69,l),
(1008,19,o),
(900,188,o),
(812,365,o),
(738,656,o),
(706,966,q)
);
}
);
width = 1400;
}
);
unicode = 57784;
},
{
glyphname = uE1E1;
layers = (
{
layerId = m000;
shapes = (
{
closed = 1;
nodes = (
(1077.5,562,l),
(1360.5,280,l),
(1077.5,0,l),
(800.5,280,l)
);
},
{
closed = 1;
nodes = (
(316.5,1567,l),
(599.5,1285,l),
(316.5,1005,l),
(39.5,1285,l)
);
},
{
closed = 1;
nodes = (
(948,1564,l),
(1299,1564,l),
(448,0,l),
(101,0,l)
);
}
);
width = 1400;
}
);
unicode = 57825;
},
{
glyphname = exclam;
layers = (
{
layerId = m000;
shapes = (
{
closed = 1;
nodes = (
(560,600,l),
(145,600,l),
(80,1564,l),
(621,1564,l)
);
},
{
closed = 1;
nodes = (
(100,0,l),
(100,450,l),
(600,450,l),
(600,0,l)
);
}
);
width = 701;
}
);
unicode = 33;
},
{
glyphname = quotedbl;
layers = (
{
layerId = m000;
shapes = (
{
closed = 1;
nodes = (
(442,1564,l),
(686,1564,l),
(686,1288,l),
(662,1011,l),
(466,1011,l),
(442,1288,l)
);
},
{
closed = 1;
nodes = (
(80,1564,l),
(324,1564,l),
(324,1288,l),
(300,1011,l),
(104,1011,l),
(80,1288,l)
);
}
);
width = 766;
}
);
unicode = 34;
},
{
glyphname = numbersign;
layers = (
{
layerId = m000;
shapes = (
{
closed = 1;
nodes = (
(935,878,l),
(734,878,l),
(679,678,l),
(883,678,l)
);
},
{
closed = 1;
nodes = (
(490,5,l),
(195,5,l),
(291,349,l),
(80,349,l),
(80,678,l),
(383,678,l),
(438,878,l),
(164,878,l),
(164,1209,l),
(529,1209,l),
(618,1528,l),
(912,1528,l),
(823,1209,l),
(1029,1209,l),
(1119,1528,l),
(1413,1528,l),
(1322,1209,l),
(1544,1209,l),
(1544,878,l),
(1231,878,l),
(1178,678,l),
(1463,678,l),
(1463,349,l),
(1086,349,l),
(993,5,l),
(698,5,l),
(790,349,l),
(586,349,l)
);
}
);
width = 1624;
}
);
unicode = 35;
},
{
glyphname = dollar;
layers = (
{
layerId = m000;
shapes = (
{
closed = 1;
nodes = (
(75,34,q),
(145,459,l),
(343,412,o),
(642,407,o),
(698,410,qs),
(745,412,o),
(803,441,o),
(802,471,qs),
(801,490,o),
(765,519,o),
(693,544,o),
(640,559,q),
(451,618,o),
(198,758,o),
(67,943,o),
(61,1067,qs),
(53,1212,o),
(190,1434,o),
(453,1565,o),
(633,1574,qs),
(821,1583,o),
(1024,1562,o),
(1232,1511,q),
(1188,1096,l),
(977,1143,o),
(783,1157,o),
(684,1156,o),
(639,1154,qs),
(609,1152,o),
(572,1142,o),
(553,1120,o),
(554,1102,qs),
(555,1077,o),
(599,1038,o),
(683,1009,o),
(745,992,qs),
(926,940,o),
(1165,811,o),
(1287,637,o),
(1293,518,qs),
(1301,367,o),
(1151,136,o),
(870,-1,o),
(681,-11,qs),
(484,-21,o),
(243,9,o)
);
},
{
closed = 1;
nodes = (
(555,1734,l),
(745,1734,l),
(745,1535,l),
(555,1535,l)
);
},
{
closed = 1;
nodes = (
(555,134,l),
(745,134,l),
(745,-165,l),
(555,-165,l)
);
}
);
width = 1354;
}
);
unicode = 36;
},
{
glyphname = percent;
layers = (
{
layerId = m000;
shapes = (
{
closed = 1;
nodes = (
(1180,299,qs),
(1180,330,o),
(1164,364,o),
(1147,364,qs),
(1129,364,o),
(1115,330,o),
(1115,299,qs),
(1115,269,o),
(1127,231,o),
(1147,231,qs),
(1167,231,o),
(1180,269,o)
);
},
{
closed = 1;
nodes = (
(1476,299,qs),
(1476,223,o),
(1398,79,o),
(1251,-11,o),
(1147,-11,qs),
(1042,-11,o),
(897,79,o),
(821,223,o),
(821,299,qs),
(821,378,o),
(899,517,o),
(1045,605,o),
(1147,605,qs),
(1250,605,o),
(1397,517,o),
(1476,378,o)
);
},
{
closed = 1;
nodes = (
(429,1281,qs),
(429,1312,o),
(413,1346,o),
(396,1346,qs),
(378,1346,o),
(364,1312,o),
(364,1281,qs),
(364,1251,o),
(376,1213,o),
(396,1213,qs),
(416,1213,o),
(429,1251,o)
);
},
{
closed = 1;
nodes = (
(725,1281,qs),
(725,1205,o),
(647,1061,o),
(500,971,o),
(396,971,qs),
(291,971,o),
(146,1061,o),
(70,1205,o),
(70,1281,qs),
(70,1360,o),
(148,1499,o),
(294,1587,o),
(396,1587,qs),
(499,1587,o),
(646,1499,o),
(725,1360,o)
);
},
{
closed = 1;
nodes = (
(989,1564,l),
(1340,1564,l),
(549,0,l),
(202,0,l)
);
}
);
width = 1546;
}
);
unicode = 37;
},
{
glyphname = ampersand;
layers = (
{
layerId = m000;
shapes = (
{
closed = 1;
nodes = (
(131,1132,qs),
(131,1263,o),
(252,1456,o),
(463,1561,o),
(598,1561,qs),
(738,1561,o),
(950,1447,o),
(1072,1241,o),
(1072,1102,qs),
(1072,1037,o),
(1046,916,o),
(980,805,o),
(915,752,q),
(986,709,l),
(1053,787,o),
(1127,921,q),
(1443,860,l),
(1420,738,o),
(1340,536,o),
(1289,451,q),
(1480,308,l),
(1196,-11,l),
(1038,135,l),
(950,60,o),
(739,-12,o),
(620,-12,qs),
(445,-12,o),
(194,103,o),
(60,310,o),
(60,444,qs),
(60,512,o),
(91,633,o),
(177,751,o),
(259,811,q),
(280,791,l),
(203,868,o),
(131,1042,o)
);
},
{
closed = 1;
nodes = (
(602,1024,q),
(687,1052,o),
(734,1093,o),
(744,1100,o),
(744,1128,qs),
(744,1147,o),
(670,1169,o),
(601,1169,qs),
(542,1169,o),
(502,1164,o),
(460,1146,o),
(460,1129,qs),
(460,1105,o),
(518,1050,o)
);
},
{
closed = 1;
nodes = (
(740,395,q),
(561,536,l),
(527,523,o),
(478,493,o),
(417,450,o),
(417,429,qs),
(417,403,o),
(497,397,o),
(581,393,o),
(611,393,qs),
(638,393,o),
(700,392,o)
);
}
);
width = 1550;
}
);
unicode = 38;
},
{
glyphname = quotesingle;
layers = (
{
layerId = m000;
shapes = (
{
closed = 1;
nodes = (
(80,1564,l),
(324,1564,l),
(324,1288,l),
(300,1011,l),
(104,1011,l),
(80,1288,l)
);
}
);
width = 404;
}
);
unicode = 39;
},
{
glyphname = parenleft;
layers = (
{
layerId = m000;
shapes = (
{
closed = 1;
nodes = (
(401,1696,q),
(716,1524,l),
(625,1343,o),
(519,834,o),
(519,553,qs),
(519,272,o),
(625,-238,o),
(716,-419,q),
(401,-593,l),
(234,-289,o),
(60,252,o),
(60,553,qs),
(60,851,o),
(234,1394,o)
);
}
);
width = 706;
}
);
unicode = 40;
},
{
glyphname = parenright;
layers = (
{
layerId = m000;
shapes = (
{
closed = 1;
nodes = (
(304,-593,q),
(-10,-420,l),
(80,-239,o),
(186,269,o),
(186,551,qs),
(186,832,o),
(80,1343,o),
(-10,1523,q),
(304,1696,l),
(470,1393,o),
(647,851,o),
(647,551,qs),
(647,253,o),
(470,-290,o)
);
}
);
width = 707;
}
);
unicode = 41;
},
{
glyphname = asterisk;
layers = (
{
layerId = m000;
shapes = (
{
closed = 1;
nodes = (
(395,1587,l),
(743,1587,l),
(704,1290,l),
(711,1283,l),
(969,1420,l),
(1078,1090,l),
(798,1020,l),
(796,1010,l),
(991,824,l),
(709,620,l),
(573,875,l),
(563,875,l),
(430,620,l),
(148,824,l),
(343,1010,l),
(340,1019,l),
(60,1090,l),
(167,1420,l),
(426,1284,l),
(434,1289,l)
);
}
);
width = 1138;
}
);
unicode = 42;
},
{
glyphname = plus;
layers = (
{
layerId = m000;
shapes = (
{
closed = 1;
nodes = (
(1035,873,l),
(1035,521,l),
(723,521,l),
(723,211,l),
(372,211,l),
(372,521,l),
(60,521,l),
(60,873,l),
(372,873,l),
(372,1188,l),
(723,1188,l),
(723,873,l)
);
}
);
width = 1095;
}
);
unicode = 43;
},
{
glyphname = comma;
layers = (
{
layerId = m000;
shapes = (
{
closed = 1;
nodes = (
(139,492,l),
(574,492,l),
(353,-178,l),
(40,-18,l)
);
}
);
width = 674;
}
);
unicode = 44;
},
{
glyphname = hyphenminus;
layers = (
{
layerId = m000;
shapes = (
{
closed = 1;
nodes = (
(1035,873,l),
(1035,521,l),
(60,521,l),
(60,873,l)
);
}
);
width = 1095;
}
);
unicode = 45;
},
{
glyphname = period;
layers = (
{
layerId = m000;
shapes = (
{
closed = 1;
nodes = (
(80,0,l),
(80,400,l),
(480,400,l),
(480,0,l)
);
}
);
width = 560;
}
);
unicode = 46;
},
{
glyphname = slash;
layers = (
{
layerId = m000;
shapes = (
{
closed = 1;
nodes = (
(807,1564,l),
(1158,1564,l),
(367,0,l),
(20,0,l)
);
}
);
width = 1178;
}
);
unicode = 47;
},
{
glyphname = zero;
layers = (
{
layerId = m000;
shapes = (
{
closed = 1;
nodes = (
(740,1572,qs),
(952,1572,o),
(1253,1384,o),
(1412,1031,o),
(1412,782,qs),
(1412,533,o),
(1252,178,o),
(951,-11,o),
(739,-11,qs),
(528,-11,o),
(223,180,o),
(60,535,o),
(60,782,qs),
(60,1028,o),
(223,1381,o),
(528,1572,o)
);
},
{
closed = 1;
nodes = (
(740,1107,qs),
(641,1107,o),
(561,962,o),
(561,782,qs),
(561,600,o),
(640,452,o),
(739,452,qs),
(836,452,o),
(913,597,o),
(913,782,qs),
(913,967,o),
(839,1107,o)
);
}
);
width = 1472;
}
);
},
{
glyphname = one;
layers = (
{
layerId = m000;
shapes = (
{
closed = 1;
nodes = (
(415,1006,l),
(412,1005,o),
(42,915,o),
(40,918,q),
(40,1317,l),
(38,1317,o),
(338,1455,o),
(579,1570,o),
(580,1573,q),
(933,1573,l),
(933,0,l),
(415,0,l)
);
}
);
width = 1013;
}
);
},
{
glyphname = two;
layers = (
{
layerId = m000;
shapes = (
{
closed = 1;
nodes = (
(70,1397,l),
(70,1402,o),
(170,1485,o),
(441,1583,o),
(610,1583,qs),
(787,1583,o),
(1046,1458,o),
(1187,1236,o),
(1187,1088,qs),
(1187,935,o),
(1065,739,o),
(894,617,o),
(816,575,q),
(772,556,o),
(698,521,o),
(637,476,o),
(612,441,q),
(1173,441,l),
(1173,0,l),
(77,0,l),
(77,58,o),
(77,164,o),
(75,212,q),
(75,299,o),
(108,456,o),
(199,605,o),
(366,755,o),
(501,836,qs),
(595,891,o),
(691,969,o),
(727,1031,o),
(727,1063,qs),
(727,1104,o),
(679,1157,o),
(620,1157,qs),
(590,1157,o),
(396,1115,o),
(199,1047,o),
(191,1044,q)
);
}
);
width = 1257;
}
);
},
{
glyphname = three;
layers = (
{
layerId = m000;
shapes = (
{
closed = 1;
nodes = (
(647,1561,qs),
(813,1561,o),
(1063,1453,o),
(1201,1260,o),
(1201,1131,qs),
(1201,1008,o),
(1085,841,o),
(981,796,q),
(981,786,l),
(1093,765,o),
(1220,599,o),
(1220,456,qs),
(1220,241,o),
(884,-11,o),
(598,-11,qs),
(419,-11,o),
(141,61,o),
(40,169,q),
(206,474,l),
(319,433,o),
(584,420,o),
(641,420,qs),
(689,420,o),
(740,458,o),
(740,491,qs),
(740,605,o),
(512,605,qs),
(321,605,l),
(321,958,l),
(499,958,l),
(592,958,o),
(705,1018,o),
(705,1065,qs),
(705,1100,o),
(663,1135,o),
(622,1135,qs),
(579,1135,o),
(271,1095,o),
(219,1083,q),
(103,1391,l),
(206,1494,o),
(492,1561,o)
);
}
);
width = 1280;
}
);
},
{
glyphname = four;
layers = (
{
layerId = m000;
shapes = (
{
closed = 1;
nodes = (
(755,686,l),
(755,1020,l),
(482,686,l)
);
},
{
closed = 1;
nodes = (
(585,292,l),
(40,292,l),
(40,676,l),
(642,1573,l),
(1109,1573,l),
(1109,686,l),
(1288,686,l),
(1288,292,l),
(1109,292,l),
(1109,0,l),
(585,0,l)
);
}
);
width = 1328;
}
);
},
{
glyphname = five;
layers = (
{
layerId = m000;
shapes = (
{
closed = 1;
nodes = (
(150,1573,l),
(1210,1573,l),
(1210,1165,l),
(536,1165,l),
(522,1028,l),
(532,1028,l),
(599,1039,o),
(703,1049,o),
(788,1049,qs),
(928,1049,o),
(1143,977,o),
(1265,725,o),
(1265,558,qs),
(1265,283,o),
(943,-11,o),
(641,-11,qs),
(459,-11,o),
(193,12,o),
(70,25,o),
(70,38,qs),
(72,475,l),
(273,456,o),
(628,439,o),
(671,439,qs),
(719,439,o),
(756,505,o),
(756,566,qs),
(756,605,o),
(702,627,o),
(659,627,qs),
(621,627,o),
(591,624,o),
(575,624,qs),
(70,624,l)
);
}
);
width = 1335;
}
);
},
{
glyphname = six;
layers = (
{
layerId = m000;
shapes = (
{
closed = 1;
nodes = (
(782,1057,qs),
(925,1057,o),
(1143,931,o),
(1265,706,o),
(1265,558,qs),
(1265,383,o),
(1118,128,o),
(847,-11,o),
(662,-11,qs),
(359,-11,o),
(60,374,o),
(60,769,qs),
(60,1167,o),
(382,1583,o),
(693,1583,qs),
(943,1583,o),
(1144,1556,o),
(1162,1549,q),
(1170,1122,l),
(954,1150,o),
(743,1156,o),
(706,1156,qs),
(630,1156,o),
(556,1123,o),
(551,1056,q),
(561,1056,l),
(611,1057,o),
(707,1057,o)
);
},
{
closed = 1;
nodes = (
(644,678,qs),
(613,678,o),
(572,634,o),
(550,587,o),
(550,530,qs),
(550,472,o),
(571,425,o),
(613,379,o),
(644,379,qs),
(694,379,o),
(750,455,o),
(750,530,qs),
(750,598,o),
(695,678,o)
);
}
);
width = 1325;
}
);
},
{
glyphname = seven;
layers = (
{
layerId = m000;
shapes = (
{
closed = 1;
nodes = (
(1151,1127,l),
(1013,994,o),
(822,733,o),
(706,461,o),
(654,166,o),
(654,0,q),
(162,0,l),
(162,148,o),
(202,438,o),
(293,721,o),
(441,990,o),
(549,1116,q),
(20,1116,l),
(20,1573,l),
(1065,1573,l)
);
}
);
width = 1191;
}
);
},
{
glyphname = eight;
layers = (
{
layerId = m000;
shapes = (
{
closed = 1;
nodes = (
(670,1583,qs),
(858,1583,o),
(1120,1450,o),
(1256,1245,o),
(1256,1137,qs),
(1256,1064,o),
(1172,906,o),
(1080,832,q),
(1080,822,l),
(1190,736,o),
(1289,544,o),
(1289,456,qs),
(1289,340,o),
(1149,126,o),
(874,-11,o),
(670,-11,qs),
(468,-11,o),
(197,126,o),
(60,339,o),
(60,455,qs),
(60,542,o),
(164,735,o),
(277,821,q),
(277,831,l),
(181,905,o),
(93,1062,o),
(93,1136,qs),
(93,1244,o),
(226,1449,o),
(483,1583,o)
);
},
{
closed = 1;
nodes = (
(666,1242,qs),
(624,1242,o),
(573,1158,o),
(573,1094,qs),
(573,1029,o),
(626,942,o),
(667,942,qs),
(712,942,o),
(773,1029,o),
(773,1094,qs),
(773,1161,o),
(712,1242,o)
);
},
{
closed = 1;
nodes = (
(669,670,qs),
(640,670,o),
(596,622,o),
(571,572,o),
(571,535,qs),
(571,470,o),
(633,370,o),
(668,370,qs),
(708,370,o),
(771,472,o),
(771,535,qs),
(771,575,o),
(748,625,o),
(700,670,o)
);
}
);
width = 1349;
}
);
},
{
glyphname = nine;
layers = (
{
layerId = m000;
shapes = (
{
closed = 1;
nodes = (
(543,515,qs),
(400,515,o),
(182,641,o),
(60,866,o),
(60,1014,qs),
(60,1189,o),
(207,1444,o),
(478,1583,o),
(663,1583,qs),
(966,1583,o),
(1265,1198,o),
(1265,803,qs),
(1265,405,o),
(943,-11,o),
(632,-11,qs),
(382,-11,o),
(181,16,o),
(163,23,q),
(155,450,l),
(371,422,o),
(582,416,o),
(619,416,qs),
(695,416,o),
(769,449,o),
(774,516,q),
(764,516,l),
(714,515,o),
(618,515,o)
);
},
{
closed = 1;
nodes = (
(681,894,qs),
(712,894,o),
(753,928,o),
(774,985,o),
(774,1042,qs),
(774,1100,o),
(754,1147,o),
(712,1194,o),
(681,1194,qs),
(631,1194,o),
(574,1117,o),
(574,1042,qs),
(574,974,o),
(630,894,o)
);
}
);
width = 1325;
}
);
},
{
glyphname = semicolon;
layers = (
{
layerId = m000;
shapes = (
{
closed = 1;
nodes = (
(193,689,l),
(193,1089,l),
(593,1089,l),
(593,689,l)
);
},
{
closed = 1;
nodes = (
(139,414,l),
(574,414,l),
(353,-256,l),
(40,-96,l)
);
}
);
width = 673;
}
);
unicode = 59;
},
{
glyphname = less;
layers = (
{
layerId = m000;
shapes = (
{
closed = 1;
nodes = (
(616,1344,l),
(805,1149,l),
(419,799,l),
(805,449,l),
(616,253,l),
(40,799,l)
);
}
);
width = 845;
}
);
unicode = 60;
},
{
glyphname = equal;
layers = (
{
layerId = m000;
shapes = (
{
closed = 1;
nodes = (
(1055,647,l),
(1055,295,l),
(80,295,l),
(80,647,l)
);
},
{
closed = 1;
nodes = (
(1055,1100,l),
(1055,748,l),
(80,748,l),
(80,1100,l)
);
}
);
width = 1135;
}
);
unicode = 61;
},
{
glyphname = greater;
layers = (
{
layerId = m000;
shapes = (
{
closed = 1;
nodes = (
(228,255,l),
(40,449,l),
(424,799,l),
(40,1149,l),
(228,1344,l),
(805,799,l)
);
}
);
width = 845;
}
);
unicode = 62;
},
{
glyphname = question;
layers = (
{
layerId = m000;
shapes = (
{
closed = 1;
nodes = (
(293,610,l),
(293,705,o),
(361,899,o),
(446,996,qs),
(522,1084,o),
(709,1156,o),
(858,1164,q),
(767,1217,o),
(655,1239,o),
(568,1239,qs),
(490,1239,o),
(315,1210,o),
(163,1159,q),
(70,1559,l),
(127,1591,o),
(270,1629,o),
(406,1653,o),
(544,1653,qs),
(682,1653,o),
(955,1536,o),
(1098,1333,o),
(1098,1226,qs),
(1098,1084,o),
(1036,966,o),
(938,877,qs),
(869,812,o),
(826,779,o),
(770,681,o),
(770,610,q)
);
},
{
closed = 1;
nodes = (
(780,0,l),
(280,0,l),
(280,450,l),
(780,450,l)
);
}
);
width = 1168;
}
);
unicode = 63;
},
{
glyphname = at;
layers = (
{
layerId = m000;
shapes = (
{
closed = 1;
nodes = (
(1012,690,qs),
(943,690,o),
(861,639,o),
(825,538,o),
(825,462,qs),
(825,406,o),
(848,328,o),
(904,288,o),
(955,288,qs),
(1001,288,o),
(1062,337,o),
(1095,427,o),
(1101,489,qs),
(1117,685,l),
(1098,691,o),
(1053,690,o)
);
},
{
closed = 1;
nodes = (
(1012,974,qs),
(1114,974,o),
(1318,895,o),
(1441,803,q),
(1404,410,l),
(1400,377,o),
(1398,320,o),
(1398,316,qs),
(1398,303,o),
(1408,300,o),
(1429,300,qs),
(1483,300,o),
(1557,378,o),
(1596,530,o),
(1596,643,qs),
(1596,763,o),
(1518,949,o),
(1370,1077,o),
(1158,1141,o),
(1022,1141,qs),
(873,1141,o),
(641,1045,o),
(480,860,o),
(395,601,o),
(395,439,qs),
(395,234,o),
(512,-26,o),
(759,-150,o),
(952,-150,qs),
(1010,-150,o),
(1125,-128,o),
(1185,-106,q),
(1290,-376,l),
(1207,-408,o),
(1040,-440,o),
(953,-440,qs),
(677,-440,o),
(286,-236,o),
(80,156,o),
(80,433,qs),
(80,661,o),
(211,1026,o),
(462,1287,o),
(817,1426,o),
(1038,1426,qs),
(1236,1426,o),
(1551,1319,o),
(1774,1113,o),
(1892,814,o),
(1892,625,qs),
(1892,423,o),
(1779,137,o),
(1570,-15,o),
(1427,-15,qs),
(1371,-15,o),
(1262,32,o),
(1219,69,q),
(1188,45,o),
(1108,7,o),
(1011,-15,o),
(955,-15,qs),
(825,-15,o),
(633,111,o),
(527,326,o),
(527,462,qs),
(527,624,o),
(639,852,o),
(856,974,o)
);
}
);
width = 1972;
}
);
unicode = 64;
},
{
glyphname = A;
layers = (
{
anchors = (
{
name = top;
pos = (676,1396);
},
{
name = bottom;
pos = (676,0);
},
{
name = ogonek;
pos = (1242,0);
}
);
layerId = m000;
shapes = (
{
closed = 1;
nodes = (
(641,288,l),
(557,0,l),
(20,0,l),
(571,1564,l),
(1183,1564,l),
(1733,0,l),
(1195,0,l),
(1117,288,l)
);
},
{
closed = 1;
nodes = (
(835,974,l),
(759,660,l),
(998,660,l),
(925,974,l)
);
}
);
width = 1753;
}
);
unicode = 65;
},
{
glyphname = B;
layers = (
{
anchors = (
{
name = top;
pos = (551,1396);
},
{
name = bottom;
pos = (551,0);
}
);
layerId = m000;
shapes = (
{
closed = 1;
nodes = (
(971,762,l),
(1249,750,o),
(1385,538,o),
(1385,417,qs),
(1385,174,o),
(1118,0,o),
(847,0,qs),
(80,0,l),
(80,1564,l),
(828,1564,l),
(1074,1564,o),
(1349,1324,o),
(1349,1086,qs),
(1349,987,o),
(1246,811,o),
(971,792,q)
);
},
{
closed = 1;
nodes = (
(582,1148,l),
(582,958,l),
(758,958,l),
(795,958,o),
(840,1003,o),
(840,1053,qs),
(840,1105,o),
(796,1148,o),
(758,1148,qs)
);
},
{
closed = 1;
nodes = (
(582,601,l),
(582,415,l),
(804,415,l),
(840,415,o),
(885,456,o),
(885,508,qs),
(885,558,o),
(841,601,o),
(804,601,qs)
);
}
);
width = 1435;
}
);
unicode = 66;
},
{
glyphname = C;
layers = (
{
anchors = (
{
name = top;
pos = (704,1407);
},
{
name = bottom;
pos = (704,-11);
}
);
layerId = m000;
shapes = (
{
closed = 1;
nodes = (
(553,782,qs),
(553,658,o),
(601,490,o),
(743,435,o),
(806,435,qs),
(863,435,o),
(1058,447,o),
(1241,518,q),
(1377,94,l),
(1264,43,o),
(967,-11,o),
(808,-11,qs),
(591,-11,o),
(221,192,o),
(50,551,o),
(50,782,qs),
(50,1015,o),
(221,1371,o),
(591,1574,o),
(808,1574,qs),
(967,1574,o),
(1162,1546,o),
(1349,1482,q),
(1247,1049,l),
(1021,1127,o),
(863,1129,o),
(806,1129,qs),
(743,1129,o),
(601,1075,o),
(553,908,o)
);
}
);
width = 1387;
}
);
unicode = 67;
},
{
glyphname = D;
layers = (
{
layerId = m000;
shapes = (
{
closed = 1;
nodes = (
(1449,782,qs),
(1449,641,o),
(1373,363,o),
(1180,135,o),
(882,0,o),
(669,0,qs),
(80,0,l),
(80,1564,l),
(669,1564,l),
(882,1564,o),
(1180,1428,o),
(1373,1202,o),
(1449,925,o)
);
},
{
closed = 1;
nodes = (
(946,782,qs),
(946,937,o),
(884,1093,o),
(767,1148,o),
(669,1148,qs),
(581,1148,l),
(581,415,l),
(669,415,l),
(767,415,o),
(884,470,o),
(946,629,o)
);
}
);
width = 1499;
}
);
unicode = 68;
},
{
glyphname = E;
layers = (
{
anchors = (
{
name = top;
pos = (631,1396);
},
{
name = bottom;
pos = (631,0);
},
{
name = ogonek;
pos = (796,0);
}
);
layerId = m000;
shapes = (
{
closed = 1;
nodes = (
(1187,415,l),
(1187,0,l),
(80,0,l),
(80,1564,l),
(1187,1564,l),
(1187,1148,l),
(581,1148,l),
(581,971,l),
(1131,971,l),
(1131,594,l),
(581,594,l),
(581,415,l)
);
}
);
width = 1257;
}
);
unicode = 69;
},
{
glyphname = F;
layers = (
{
anchors = (
{
name = top;
pos = (631,1396);
},
{
name = bottom;
pos = (631,0);
}
);
layerId = m000;
shapes = (
{
closed = 1;
nodes = (
(581,0,l),
(80,0,l),
(80,1564,l),
(1187,1564,l),
(1187,1148,l),
(581,1148,l),
(581,932,l),
(1083,932,l),
(1083,553,l),
(581,553,l)
);
}
);
width = 1247;
}
);
unicode = 70;
},
{
glyphname = G;
layers = (
{
anchors = (
{
name = top;
pos = (709,1407);
},
{
name = bottom;
pos = (737,-11);
}
);
layerId = m000;
shapes = (
{
closed = 1;
nodes = (
(563,785,qs),
(565,591,o),
(714,405,o),
(862,405,qs),
(898,405,o),
(978,410,o),
(1084,416,o),
(1106,422,q),
(1106,622,l),
(796,622,l),
(796,932,l),
(1520,932,l),
(1520,75,l),
(1453,65,o),
(1294,27,o),
(1028,-12,o),
(856,-12,qs),
(623,-12,o),
(264,197,o),
(60,558,o),
(60,785,qs),
(60,1015,o),
(231,1371,o),
(611,1574,o),
(908,1574,qs),
(1067,1574,o),
(1282,1546,o),
(1509,1482,q),
(1407,1049,l),
(1141,1127,o),
(963,1129,o),
(906,1129,qs),
(763,1129,o),
(563,979,o)
);
}
);
width = 1600;
}
);
unicode = 71;
},
{
glyphname = H;
layers = (
{
anchors = (
{
name = top;
pos = (712,1396);
},
{
name = bottom;
pos = (712,0);
}
);
layerId = m000;
shapes = (
{
closed = 1;
nodes = (
(952,1564,l),
(1453,1564,l),
(1453,0,l),
(952,0,l),
(952,594,l),
(582,594,l),
(582,0,l),
(80,0,l),
(80,1564,l),
(582,1564,l),
(582,971,l),
(952,971,l)
);
}
);
width = 1533;
}
);
unicode = 72;
},
{
glyphname = I;
layers = (
{
anchors = (
{
name = top;
pos = (298,1396);
},
{
name = bottom;
pos = (298,0);
},
{
name = ogonek;
pos = (298,0);
}
);
layerId = m000;
shapes = (
{
closed = 1;
nodes = (
(585,0,l),
(80,0,l),
(80,1564,l),
(585,1564,l)
);
}
);
width = 665;
}
);
unicode = 73;
},
{
glyphname = J;
layers = (
{
anchors = (
{
name = top;
pos = (565,1396);
},
{
name = bottom;
pos = (361,-11);
}
);
layerId = m000;
shapes = (
{
closed = 1;
nodes = (
(20,83,q),
(82,393,l),
(135,374,o),
(244,358,o),
(305,358,qs),
(371,358,o),
(424,404,o),
(424,452,qs),
(424,1564,l),
(929,1564,l),
(929,342,l),
(929,214,o),
(811,59,o),
(620,-11,o),
(509,-11,qs),
(421,-11,o),
(106,46,o)
);
}
);
width = 1009;
}
);
unicode = 74;
},
{
glyphname = K;
layers = (
{
anchors = (
{
name = top;
pos = (671,1396);
},
{
name = bottom;
pos = (671,0);
}
);
layerId = m000;
shapes = (
{
closed = 1;
nodes = (
(942,1564,l),
(1480,1564,l),
(955,779,l),
(1480,0,l),
(942,0,l),
(560,642,l),
(581,642,l),
(581,0,l),
(80,0,l),
(80,1564,l),
(581,1564,l),
(581,978,l),
(563,978,l)
);
}
);
width = 1520;
}
);
unicode = 75;
},
{
glyphname = L;
layers = (
{
anchors = (
{
name = top;
pos = (668,1396);
},
{
name = horn;
pos = (549,1396);
},
{
name = bottom;
pos = (618,0);
},
{
name = Anchor_4;
pos = (668,801);
},
{
name = ogonek;
pos = (934,0);
}
);
layerId = m000;
shapes = (
{
closed = 1;
nodes = (
(1201,415,l),
(1201,0,l),
(80,0,l),
(80,1564,l),
(582,1564,l),
(582,415,l)
);
}
);
width = 1241;
}
);
unicode = 76;
},
{
glyphname = M;
layers = (
{
anchors = (
{
name = top;
pos = (896,1396);
},
{
name = bottom;
pos = (896,0);
}
);
layerId = m000;
shapes = (
{
closed = 1;
nodes = (
(582,0,l),
(80,0,l),
(80,1564,l),
(686,1564,l),
(1070,474,l),
(1356,1564,l),
(2015,1564,l),
(2015,0,l),
(1511,0,l),
(1511,830,l),
(1501,830,l),
(1290,0,l),
(848,0,l),
(592,835,l),
(582,835,l)
);
}
);
width = 2095;
}
);
unicode = 77;
},
{
glyphname = N;
layers = (
{
anchors = (
{
name = top;
pos = (733,1396);
},
{
name = bottom;
pos = (676,0);
}
);
layerId = m000;
shapes = (
{
closed = 1;
nodes = (
(1036,1564,l),
(1541,1564,l),
(1541,0,l),
(1040,0,l),
(592,786,l),
(582,786,l),
(582,0,l),
(80,0,l),
(80,1564,l),
(578,1564,l),
(1026,775,l),
(1036,775,l)
);
}
);
width = 1621;
}
);
unicode = 78;
},
{
glyphname = O;
layers = (
{
anchors = (
{
name = top;
pos = (787,1407);
},
{
name = horn;
pos = (1021,1259);
},
{
name = bottom;
pos = (787,-11);
},
{
name = ogonek;
pos = (787,-11);
}
);
layerId = m000;
shapes = (
{
closed = 1;
nodes = (
(821,1155,qs),
(765,1155,o),
(638,1095,o),
(550,933,o),
(550,782,qs),
(550,632,o),
(635,471,o),
(761,409,o),
(821,409,qs),
(880,409,o),
(1008,471,o),
(1096,633,o),
(1096,782,qs),
(1096,933,o),
(1005,1095,o),
(879,1155,o)
);
},
{
closed = 1;
nodes = (
(823,-11,qs),
(624,-11,o),
(316,123,o),
(132,349,o),
(50,632,o),
(50,782,qs),
(50,933,o),
(130,1217,o),
(315,1441,o),
(622,1574,o),
(823,1574,qs),
(1024,1574,o),
(1331,1441,o),
(1516,1217,o),
(1596,933,o),
(1596,782,qs),
(1596,632,o),
(1514,349,o),
(1330,123,o),
(1022,-11,o)
);
}
);
width = 1646;
}
);
unicode = 79;
},
{
glyphname = P;
layers = (
{
anchors = (
{
name = top;
pos = (586,1396);
},
{
name = bottom;
pos = (586,0);
}
);
layerId = m000;
shapes = (
{
closed = 1;
nodes = (
(582,0,l),
(80,0,l),
(80,1564,l),
(794,1564,l),
(1102,1564,o),
(1411,1296,o),
(1411,1025,qs),
(1411,752,o),
(1102,490,o),
(794,490,qs),
(582,490,l)
);
},
{
closed = 1;
nodes = (
(582,1148,l),
(582,907,l),
(778,907,l),
(844,907,o),
(908,963,o),
(908,1028,qs),
(908,1090,o),
(845,1148,o),
(778,1148,qs)
);
}
);
width = 1471;
}
);
unicode = 80;
},
{
glyphname = Q;
layers = (
{
anchors = (
{
name = top;
pos = (796,1407);
},
{
name = bottom;
pos = (796,-11);
}
);
layerId = m000;
shapes = (
{
closed = 1;
nodes = (
(1443,19,l),
(1102,-181,l),
(966,183,l),
(880,247,l),
(1176,424,l),
(1196,322,l)
);
},
{
closed = 1;
nodes = (
(821,1155,qs),
(765,1155,o),
(638,1095,o),
(550,933,o),
(550,782,qs),
(550,632,o),
(635,471,o),
(761,409,o),
(821,409,qs),
(880,409,o),
(1008,471,o),
(1096,633,o),
(1096,782,qs),
(1096,933,o),
(1005,1095,o),
(879,1155,o)
);
},
{
closed = 1;
nodes = (
(823,-11,qs),
(624,-11,o),
(316,123,o),
(132,349,o),
(50,632,o),
(50,782,qs),
(50,933,o),
(130,1217,o),
(315,1441,o),
(622,1574,o),
(823,1574,qs),
(1024,1574,o),
(1331,1441,o),
(1516,1217,o),
(1596,933,o),
(1596,782,qs),
(1596,632,o),
(1514,349,o),
(1330,123,o),
(1022,-11,o)
);
}
);
width = 1646;
}
);
unicode = 81;
},
{
glyphname = R;
layers = (
{
anchors = (
{
name = top;
pos = (586,1396);
},
{
name = bottom;
pos = (586,0);
}
);
layerId = m000;
shapes = (
{
closed = 1;
nodes = (
(980,655,l),
(1358,538,o),
(1447,0,q),
(970,0,l),
(912,422,o),
(559,655,q)
);
},
{
closed = 1;
nodes = (
(582,0,l),
(80,0,l),
(80,1564,l),
(794,1564,l),
(1102,1564,o),
(1411,1296,o),
(1411,1025,qs),
(1411,752,o),
(1102,490,o),
(794,490,qs),
(582,490,l)
);
},
{
closed = 1;
nodes = (
(582,1148,l),
(582,907,l),
(778,907,l),
(844,907,o),
(908,963,o),
(908,1028,qs),
(908,1090,o),
(845,1148,o),
(778,1148,qs)
);
}
);
width = 1507;
}
);
unicode = 82;
},
{
glyphname = S;
layers = (
{
anchors = (
{
name = top;
pos = (567,1406);
},
{
name = bottom;
pos = (577,-10);
}
);
layerId = m000;
shapes = (
{
closed = 1;
nodes = (
(75,34,q),
(145,459,l),
(343,412,o),
(642,407,o),
(698,410,qs),
(745,412,o),
(803,441,o),
(802,471,qs),
(801,490,o),
(765,519,o),
(693,544,o),
(640,559,q),
(451,618,o),
(198,758,o),
(67,943,o),
(61,1067,qs),
(53,1212,o),
(190,1434,o),
(453,1565,o),
(633,1574,qs),
(821,1583,o),
(1024,1562,o),
(1232,1511,q),
(1188,1096,l),
(977,1143,o),
(783,1157,o),
(684,1156,o),
(639,1154,qs),
(609,1152,o),
(572,1142,o),
(553,1120,o),
(554,1102,qs),
(555,1077,o),
(599,1038,o),
(683,1009,o),
(745,992,qs),
(926,940,o),
(1165,811,o),
(1287,637,o),
(1293,518,qs),
(1301,367,o),
(1151,136,o),
(870,-1,o),
(681,-11,qs),
(484,-21,o),
(243,9,o)
);
}
);
width = 1354;
}
);
unicode = 83;
},
{
glyphname = T;
layers = (
{
anchors = (
{
name = top;
pos = (719,1396);
},
{
name = bottom;
pos = (719,0);
}
);
layerId = m000;
shapes = (
{
closed = 1;
nodes = (
(974,0,l),
(470,0,l),
(470,1148,l),
(40,1148,l),
(40,1564,l),
(1405,1564,l),
(1405,1148,l),
(974,1148,l)
);
}
);
width = 1445;
}
);
unicode = 84;
},
{
glyphname = U;
layers = (
{
anchors = (
{
name = top;
pos = (676,1396);
},
{
name = horn;
pos = (1148,1259);
},
{
name = bottom;
pos = (676,-11);
},
{
name = ogonek;
pos = (676,-11);
}
);
layerId = m000;
shapes = (
{
closed = 1;
nodes = (
(971,1564,l),
(1474,1564,l),
(1474,631,l),
(1474,345,o),
(1132,-11,o),
(778,-11,qs),
(424,-11,o),
(80,345,o),
(80,631,qs),
(80,1564,l),
(582,1564,l),
(582,620,l),
(582,561,o),
(603,485,o),
(686,434,o),
(778,434,qs),
(871,434,o),
(951,485,o),
(971,561,o),
(971,620,qs)
);
}
);
width = 1554;
}
);
unicode = 85;
},
{
glyphname = V;
layers = (
{
anchors = (
{
name = top;
pos = (677,1396);
},
{
name = bottom;
pos = (676,0);
}
);
layerId = m000;
shapes = (
{
closed = 1;
nodes = (
(844,486,l),
(1118,1564,l),
(1659,1564,l),
(1102,0,l),
(575,0,l),
(20,1564,l),
(557,1564,l),
(834,486,l)
);
}
);
width = 1679;
}
);
unicode = 86;
},
{
glyphname = W;
layers = (
{
anchors = (
{
name = top;
pos = (952,1396);
},
{
name = bottom;
pos = (952,0);
}
);
layerId = m000;
shapes = (
{
closed = 1;
nodes = (
(1408,669,l),
(1557,1564,l),
(2078,1564,l),
(1657,0,l),
(1207,0,l),
(1054,780,l),
(1044,780,l),
(889,0,l),
(439,0,l),
(20,1564,l),
(541,1564,l),
(687,669,l),
(697,669,l),
(845,1564,l),
(1253,1564,l),
(1398,669,l)
);
}
);
width = 2098;
}
);
unicode = 87;
},
{
glyphname = X;
layers = (
{
anchors = (
{
name = top;
pos = (681,1396);
},
{
name = bottom;
pos = (681,0);
}
);
layerId = m000;
shapes = (
{
closed = 1;
nodes = (
(1600,0,l),
(1014,0,l),
(811,401,l),
(607,0,l),
(20,0,l),
(544,779,l),
(20,1564,l),
(607,1564,l),
(811,1160,l),
(1014,1564,l),
(1600,1564,l),
(1078,779,l)
);
}
);
width = 1620;
}
);
unicode = 88;
},
{
glyphname = Y;
layers = (
{
anchors = (
{
name = top;
pos = (656,1396);
},
{
name = bottom;
pos = (656,0);
}
);
layerId = m000;
shapes = (
{
closed = 1;
nodes = (
(1096,1564,l),
(1679,1564,l),
(1106,682,l),
(1106,0,l),
(599,0,l),
(599,682,l),
(20,1564,l),
(605,1564,l),
(854,1074,l)
);
}
);
width = 1699;
}
);
unicode = 89;
},
{
glyphname = Z;
layers = (
{
anchors = (
{
name = top;
pos = (647,1396);
},
{
name = bottom;
pos = (647,0);
}
);
layerId = m000;
shapes = (
{
closed = 1;
nodes = (
(70,1146,l),
(70,1564,l),
(1246,1564,l),
(1246,1248,l),
(650,415,l),
(1246,415,l),
(1246,0,l),
(70,0,l),
(70,312,l),
(670,1146,l)
);
}
);
width = 1316;
}
);
unicode = 90;
},
{
glyphname = bracketleft;
layers = (
{
layerId = m000;
shapes = (
{
closed = 1;
nodes = (
(741,232,l),
(741,-147,l),
(80,-147,l),
(80,1691,l),
(741,1691,l),
(741,1313,l),
(476,1313,l),
(476,232,l)
);
}
);
width = 781;
}
);
unicode = 91;
},
{
glyphname = backslash;
layers = (
{
layerId = m000;
shapes = (
{
closed = 1;
nodes = (
(1244,0,l),
(704,0,l),
(20,1564,l),
(562,1564,l)
);
}
);
width = 1264;
}
);
unicode = 92;
},
{
glyphname = bracketright;
layers = (
{
layerId = m000;
shapes = (
{
closed = 1;
nodes = (
(40,1316,l),
(40,1692,l),
(701,1692,l),
(701,-147,l),
(40,-147,l),
(40,233,l),
(305,233,l),
(305,1316,l)
);
}
);
width = 781;
}
);
unicode = 93;
},
{
glyphname = asciicircum;
layers = (
{
layerId = m000;
shapes = (
{
closed = 1;
nodes = (
(739,1138,l),
(459,1138,l),
(390,1343,l),
(321,1138,l),
(40,1138,l),
(139,1497,l),
(641,1497,l)
);
}
);
width = 779;
}
);
unicode = 94;
},
{
glyphname = underscore;
layers = (
{
layerId = m000;
shapes = (
{
closed = 1;
nodes = (
(1217,0,l),
(1217,-476,l),
(80,-476,l),
(80,0,l)
);
}
);
width = 1297;
}
);
unicode = 95;
},
{
glyphname = grave;
layers = (
{
layerId = m000;
shapes = (
{
closed = 1;
nodes = (
(415,1138,l),
(190,1138,l),
(40,1497,l),
(314,1497,l)
);
}
);
width = 495;
}
);
unicode = 96;
},
{
glyphname = a;
layers = (
{
anchors = (
{
name = top;
pos = (527,1054);
},
{
name = bottom;
pos = (403,-11);
},
{
name = ogonek;
pos = (902,0);
}
);
layerId = m000;
shapes = (
{
closed = 1;
nodes = (
(50,592,qs),
(50,744,o),
(123,1019,o),
(294,1193,o),
(444,1193,qs),
(596,1193,o),
(797,1101,o),
(968,976,q),
(851,759,l),
(764,796,o),
(695,808,o),
(648,808,qs),
(598,808,o),
(552,702,o),
(552,592,qs),
(552,482,o),
(598,376,o),
(648,376,qs),
(695,376,o),
(764,388,o),
(851,425,q),
(968,208,l),
(797,83,o),
(596,-9,o),
(444,-9,qs),
(294,-9,o),
(123,165,o),
(50,440,o)
);
},
{
closed = 1;
nodes = (
(1335,1184,l),
(1335,341,l),
(1335,305,o),
(1334,275,o),
(1334,0,q),
(830,0,l),
(830,27,o),
(830,136,o),
(830,348,qs),
(830,1184,l)
);
}
);
width = 1415;
}
);
unicode = 97;
},
{
glyphname = b;
layers = (
{
anchors = (
{
name = top;
pos = (687,1423);
},
{
name = bottom;
pos = (687,-10);
}
);
layerId = m000;
shapes = (
{
closed = 1;
nodes = (
(592,0,l),
(90,0,l),
(90,1619,l),
(592,1619,l)
);
},
{
closed = 1;
nodes = (
(1375,592,qs),
(1375,440,o),
(1302,165,o),
(1131,-9,o),
(981,-9,qs),
(829,-9,o),
(628,83,o),
(457,208,q),
(574,425,l),
(661,388,o),
(730,376,o),
(777,376,qs),
(827,376,o),
(873,482,o),
(873,592,qs),
(873,702,o),
(827,808,o),
(777,808,qs),
(730,808,o),
(661,796,o),
(574,759,q),
(457,1076,l),
(628,1151,o),
(829,1193,o),
(981,1193,qs),
(1131,1193,o),
(1302,1019,o),
(1375,744,o)
);
}
);
width = 1425;
}
);
unicode = 98;
},
{
glyphname = c;
layers = (
{
anchors = (
{
name = top;
pos = (592,1054);
},
{
name = bottom;
pos = (592,-10);
}
);
layerId = m000;
shapes = (
{
closed = 1;
nodes = (
(685,1195,qs),
(796,1195,o),
(921,1175,o),
(1052,1125,o),
(1099,1085,q),
(1051,763,l),
(925,797,o),
(785,812,o),
(703,812,qs),
(641,812,o),
(579,751,o),
(557,640,o),
(557,597,qs),
(557,550,o),
(578,438,o),
(638,376,o),
(703,376,qs),
(785,376,o),
(921,395,o),
(1051,426,q),
(1099,100,l),
(1054,47,o),
(924,1,o),
(777,-8,o),
(685,-8,qs),
(358,-8,o),
(50,323,o),
(50,592,qs),
(50,863,o),
(358,1195,o)
);
}
);
width = 1159;
}
);
unicode = 99;
},
{
glyphname = d;
layers = (
{
anchors = (
{
name = top;
pos = (494,1379);
},
{
name = horn;
pos = (987,1417);
},
{
name = bottom;
pos = (494,-10);
}
);
layerId = m000;
shapes = (
{
closed = 1;
nodes = (
(1334,1641,l),
(1334,341,l),
(1334,305,o),
(1335,275,o),
(1334,0,q),
(830,0,l),
(830,62,o),
(829,136,o),
(829,348,qs),
(829,1641,l)
);
},
{
closed = 1;
nodes = (
(50,592,qs),
(50,744,o),
(123,1019,o),
(294,1193,o),
(444,1193,qs),
(596,1193,o),
(797,1151,o),
(968,1076,q),
(851,759,l),
(764,796,o),
(695,808,o),
(648,808,qs),
(598,808,o),
(552,702,o),
(552,592,qs),
(552,482,o),
(598,376,o),
(648,376,qs),
(695,376,o),
(764,388,o),
(851,425,q),
(968,208,l),
(797,83,o),
(596,-9,o),
(444,-9,qs),
(294,-9,o),
(123,165,o),
(50,440,o)
);
}
);
width = 1425;
}
);
unicode = 100;
},
{
glyphname = e;
layers = (
{
anchors = (
{
name = top;
pos = (554,1054);
},
{
name = bottom;
pos = (562,-11);
},
{
name = ogonek;
pos = (562,-11);
}
);
layerId = m000;
shapes = (
{
closed = 1;
nodes = (
(494,448,l),
(503,376,o),
(612,336,o),
(673,336,qs),
(720,336,o),
(802,339,o),
(1161,396,q),
(1249,111,l),
(1224,92,o),
(1104,19,o),
(864,-31,o),
(663,-31,qs),
(347,-31,o),
(50,314,o),
(50,591,qs),
(50,867,o),
(356,1195,o),
(662,1195,qs),
(930,1195,o),
(1193,1021,o),
(1310,687,o),
(1293,448,q)
);
},
{
closed = 1;
nodes = (
(500,687,q),
(848,687,l),
(852,744,o),
(787,808,o),
(712,838,o),
(666,838,qs),
(597,838,o),
(495,758,o)
);
}
);
width = 1347;
}
);
unicode = 101;
},
{
glyphname = f;
layers = (
{
anchors = (
{
name = top;
pos = (584,1467);
},
{
name = bottom;
pos = (374,0);
}
);
layerId = m000;
shapes = (
{
closed = 1;
nodes = (
(1000,1557,q),
(943,1247,l),
(829,1252,o),
(751,1252,o),
(735,1252,qs),
(705,1252,o),
(664,1226,o),
(664,1198,qs),
(664,0,l),
(158,0,l),
(158,1260,l),
(158,1388,o),
(274,1542,o),
(464,1611,o),
(574,1611,qs),
(654,1611,o),
(832,1599,o)
);
},
{
closed = 1;
nodes = (
(20,710,l),
(20,992,l),
(957,992,l),
(957,710,l)
);
}
);
width = 1060;
}
);
unicode = 102;
},
{
glyphname = g;
layers = (
{
anchors = (
{
name = top;
pos = (495,1054);
},
{
name = bottom;
pos = (560,-481);
}
);
layerId = m000;
shapes = (
{
closed = 1;
nodes = (
(50,592,qs),
(50,744,o),
(123,1019,o),
(294,1193,o),
(444,1193,qs),
(596,1193,o),
(797,1151,o),
(968,1076,q),
(851,759,l),
(724,806,o),
(665,808,o),
(638,808,qs),
(608,808,o),
(552,702,o),
(552,592,qs),
(552,482,o),
(598,376,o),
(648,376,qs),
(695,376,o),
(764,388,o),
(851,425,q),
(968,148,l),
(797,53,o),
(596,-9,o),
(444,-9,qs),
(294,-9,o),
(123,165,o),
(50,440,o)
);
},
{
closed = 1;
nodes = (
(738,-466,qs),
(558,-466,o),
(423,-462,o),
(232,-427,o),
(74,-366,q),
(151,-41,l),
(396,-87,o),
(627,-91,o),
(711,-91,qs),
(792,-91,o),
(831,-67,o),
(831,-36,qs),
(831,1184,l),
(1335,1184,l),
(1335,-36,l),
(1335,-167,o),
(1209,-360,o),
(945,-466,o)
);
}
);
width = 1415;
}
);
unicode = 103;
},
{
glyphname = h;
layers = (
{
anchors = (
{
name = top;
pos = (716,1191);
},
{
name = bottom;
pos = (596,0);
}
);
layerId = m000;
shapes = (
{
closed = 1;
nodes = (
(593,0,l),
(90,0,l),
(90,1619,l),
(593,1619,l)
);
},
{
closed = 1;
nodes = (
(1375,592,qs),
(1375,-9,l),
(873,0,l),
(873,592,l),
(873,702,o),
(827,808,o),
(777,808,qs),
(730,808,o),
(661,796,o),
(574,759,q),
(457,1076,l),
(628,1151,o),
(829,1193,o),
(981,1193,qs),
(1131,1193,o),
(1302,1019,o),
(1375,744,o)
);
}
);
width = 1455;
}
);
unicode = 104;
},
{
glyphname = i;
layers = (
{
anchors = (
{
name = bottom;
pos = (281,0);
},
{
name = ogonek;
pos = (281,0);
}
);
layerId = m000;
shapes = (
{
closed = 1;
nodes = (
(91,1241,l),
(91,1631,l),
(597,1631,l),
(597,1241,l)
);
},
{
closed = 1;
nodes = (
(90,1134,l),
(597,1134,l),
(597,0,l),
(90,0,l)
);
}
);
width = 687;
}
);
unicode = 105;
},
{
glyphname = j;
layers = (
{
layerId = m000;
shapes = (
{
closed = 1;
nodes = (
(-152,-356,q),
(-87,-48,l),
(-59,-55,o),
(4,-64,o),
(27,-64,qs),
(58,-64,o),
(100,-36,o),
(100,-8,qs),
(100,1084,l),
(604,1084,l),
(604,-69,l),
(604,-197,o),
(489,-352,o),
(299,-421,o),
(187,-421,qs),
(99,-421,o),
(-76,-383,o)
);
},
{
closed = 1;
nodes = (
(100,1211,l),
(100,1631,l),
(606,1631,l),
(606,1211,l)
);
}
);
width = 696;
}
);
unicode = 106;
},
{
glyphname = k;
layers = (
{
anchors = (
{
name = top;
pos = (645,1457);
},
{
name = bottom;
pos = (563,0);
}
);
layerId = m000;
shapes = (
{
closed = 1;
nodes = (
(773,1184,l),
(1395,1184,l),
(993,657,l),
(1434,0,l),
(809,0,l),
(580,500,l),
(580,0,l),
(80,0,l),
(80,1619,l),
(580,1619,l),
(580,761,l)
);
}
);
width = 1454;
}
);
unicode = 107;
},
{
glyphname = l;
layers = (
{
anchors = (
{
name = top;
pos = (215,1457);
},
{
name = horn;
pos = (307,1457);
},
{
name = bottom;
pos = (215,0);
},
{
name = Anchor_4;
pos = (447,801);
}
);
layerId = m000;
shapes = (
{
closed = 1;
nodes = (
(584,0,l),
(80,0,l),
(80,1619,l),
(584,1619,l)
);
}
);
width = 674;
}
);
unicode = 108;
},
{
glyphname = m;
layers = (
{
layerId = m000;
shapes = (
{
closed = 1;
nodes = (
(80,1184,l),
(557,1184,l),
(585,956,l),
(585,0,l),
(80,0,l)
);
},
{
closed = 1;
nodes = (
(1345,592,qs),
(1345,-9,l),
(843,0,l),
(843,592,l),
(843,702,o),
(797,808,o),
(747,808,qs),
(700,808,o),
(651,796,o),
(564,759,q),
(447,1076,l),
(618,1151,o),
(799,1193,o),
(951,1193,qs),
(1101,1193,o),
(1272,1019,o),
(1345,744,o)
);
},
{
closed = 1;
nodes = (
(2095,592,qs),
(2095,-9,l),
(1593,0,l),
(1593,592,l),
(1593,702,o),
(1547,808,o),
(1497,808,qs),
(1450,808,o),
(1401,796,o),
(1314,759,q),
(1197,1076,l),
(1368,1151,o),
(1549,1193,o),
(1701,1193,qs),
(1851,1193,o),
(2022,1019,o),
(2095,744,o)
);
}
);
width = 2175;
}
);
unicode = 109;
},
{
glyphname = n;
layers = (
{
anchors = (
{
name = top;
pos = (706,1054);
},
{
name = bottom;
pos = (583,0);
}
);
layerId = m000;
shapes = (
{
closed = 1;
nodes = (
(583,0,l),
(80,0,l),
(80,1184,l),
(556,1184,l),
(583,956,l)
);
},
{
closed = 1;
nodes = (
(1365,592,qs),
(1365,-9,l),
(863,0,l),
(863,592,l),
(863,702,o),
(817,808,o),
(767,808,qs),
(720,808,o),
(651,796,o),
(564,759,q),
(447,1076,l),
(618,1151,o),
(819,1193,o),
(971,1193,qs),
(1121,1193,o),
(1292,1019,o),
(1365,744,o)
);
}
);
width = 1445;
}
);
unicode = 110;
},
{
glyphname = o;
layers = (
{
anchors = (
{
name = top;
pos = (563,1054);
},
{
name = horn;
pos = (711,912);
},
{
name = bottom;
pos = (563,-11);
},
{
name = ogonek;
pos = (563,-11);
}
);
layerId = m000;
shapes = (
{
closed = 1;
nodes = (
(681,812,qs),
(618,812,o),
(554,695,o),
(554,590,qs),
(554,486,o),
(615,371,o),
(681,371,qs),
(747,371,o),
(809,486,o),
(809,590,qs),
(809,695,o),
(745,812,o)
);
},
{
closed = 1;
nodes = (
(681,1195,qs),
(994,1195,o),
(1310,876,o),
(1310,593,qs),
(1310,308,o),
(992,-11,o),
(681,-11,qs),
(370,-11,o),
(50,308,o),
(50,593,qs),
(50,876,o),
(367,1195,o)
);
}
);
width = 1360;
}
);
unicode = 111;
},
{
glyphname = p;
layers = (
{
anchors = (
{
name = top;
pos = (629,1054);
},
{
name = bottom;
pos = (629,-10);
}
);
layerId = m000;
shapes = (
{
closed = 1;
nodes = (
(80,1184,l),
(583,1184,l),
(583,-413,l),
(80,-413,l)
);
},
{
closed = 1;
nodes = (
(1365,592,qs),
(1365,440,o),
(1292,165,o),
(1121,-9,o),
(971,-9,qs),
(819,-9,o),
(618,53,o),
(447,148,q),
(564,425,l),
(651,388,o),
(720,376,o),
(767,376,qs),
(817,376,o),
(863,482,o),
(863,592,qs),
(863,702,o),
(817,808,o),
(767,808,qs),
(720,808,o),
(651,796,o),
(564,759,q),
(447,1076,l),
(618,1151,o),
(819,1193,o),
(971,1193,qs),
(1121,1193,o),
(1292,1019,o),
(1365,744,o)
);
}
);
width = 1415;
}
);
unicode = 112;
},
{
glyphname = q;
layers = (
{
anchors = (
{
name = top;
pos = (475,1054);
},
{
name = bottom;
pos = (475,-10);
}
);
layerId = m000;
shapes = (
{
closed = 1;
nodes = (
(830,1184,l),
(1335,1184,l),
(1335,-425,l),
(830,-425,l)
);
},
{
closed = 1;
nodes = (
(50,592,qs),
(50,744,o),
(123,1019,o),
(294,1193,o),
(444,1193,qs),
(596,1193,o),
(797,1151,o),
(968,1076,q),
(851,759,l),
(764,796,o),
(695,808,o),
(648,808,qs),
(598,808,o),
(552,702,o),
(552,592,qs),
(552,482,o),
(598,376,o),
(648,376,qs),
(695,376,o),
(764,388,o),
(851,425,q),
(968,148,l),
(797,53,o),
(596,-9,o),
(444,-9,qs),
(294,-9,o),
(123,165,o),
(50,440,o)
);
}
);
width = 1415;
}
);
unicode = 113;
},
{
glyphname = r;
layers = (
{
anchors = (
{
name = top;
pos = (490,1050);
},
{
name = bottom;
pos = (226,0);
}
);
layerId = m000;
shapes = (
{
closed = 1;
nodes = (
(80,1184,l),
(556,1184,l),
(583,1003,l),
(583,0,l),
(80,0,l)
);
},
{
closed = 1;
nodes = (
(985,737,l),
(949,742,o),
(917,742,qs),
(804,742,o),
(659,676,o),
(577,533,o),
(583,422,q),
(464,405,l),
(460,555,o),
(490,837,o),
(587,1064,o),
(775,1199,o),
(949,1199,qs),
(955,1199,o),
(971,1201,o),
(979,1203,q)
);
}
);
width = 1045;
}
);
unicode = 114;
},
{
glyphname = s;
layers = (
{
anchors = (
{
name = top;
pos = (519,1054);
},
{
name = bottom;
pos = (511,-10);
}
);
layerId = m000;
shapes = (
{
closed = 1;
nodes = (
(565,1196,qs),
(821,1204,o),
(962,1168,o),
(1074,1148,q),
(1029,766,l),
(825,827,o),
(623,843,o),
(580,841,qs),
(541,840,o),
(496,815,o),
(497,791,q),
(497,774,o),
(552,753,o),
(633,740,qs),
(873,698,o),
(1112,523,o),
(1116,387,qs),
(1120,275,o),
(986,100,o),
(746,-5,o),
(586,-10,qs),
(349,-18,o),
(169,8,o),
(60,39,q),
(97,409,l),
(290,370,o),
(523,342,o),
(590,344,qs),
(627,346,o),
(667,358,o),
(666,376,q),
(666,398,o),
(590,427,o),
(491,445,qs),
(268,485,o),
(55,654,o),
(50,794,qs),
(44,969,o),
(326,1188,o)
);
}
);
width = 1166;
}
);
unicode = 115;
},
{
glyphname = t;
layers = (
{
layerId = m000;
shapes = (
{
closed = 1;
nodes = (
(946,355,q),
(981,34,l),
(854,17,o),
(656,-11,o),
(569,-11,qs),
(459,-11,o),
(269,59,o),
(153,214,o),
(153,342,qs),
(153,1475,l),
(659,1475,l),
(659,402,l),
(659,374,o),
(699,349,o),
(731,349,qs),
(753,349,o),
(826,348,o)
);
},
{
closed = 1;
nodes = (
(20,890,l),
(20,1172,l),
(958,1172,l),
(958,890,l)
);
}
);
width = 1041;
}
);
unicode = 116;
},
{
glyphname = u;
layers = (
{
anchors = (
{
name = top;
pos = (646,1044);
},
{
name = horn;
pos = (1002,912);
},
{
name = bottom;
pos = (524,-9);
},
{
name = ogonek;
pos = (993,0);
}
);
layerId = m000;
shapes = (
{
closed = 1;
nodes = (
(1365,1184,l),
(1365,341,l),
(1365,305,o),
(1364,275,o),
(1364,0,q),
(860,0,l),
(860,27,o),
(860,136,o),
(860,348,qs),
(860,1184,l)
);
},
{
closed = 1;
nodes = (
(80,592,qs),
(80,1184,l),
(582,1184,l),
(582,592,l),
(582,482,o),
(628,376,o),
(678,376,qs),
(725,376,o),
(794,388,o),
(881,425,q),
(998,208,l),
(827,83,o),
(626,-9,o),
(474,-9,qs),
(324,-9,o),
(153,165,o),
(80,440,o)
);
}
);
width = 1445;
}
);
unicode = 117;
},
{
glyphname = v;
layers = (
{
anchors = (
{
name = top;
pos = (552,1044);
},
{
name = bottom;
pos = (552,0);
}
);
layerId = m000;
shapes = (
{
closed = 1;
nodes = (
(714,446,l),
(854,1184,l),
(1394,1184,l),
(991,0,l),
(429,0,l),
(20,1184,l),
(563,1184,l),
(704,446,l)
);
}
);
width = 1414;
}
);
unicode = 118;
},
{
glyphname = w;
layers = (
{
anchors = (
{
name = top;
pos = (804,1031);
},
{
name = bottom;
pos = (804,0);
}
);
layerId = m000;
shapes = (
{
closed = 1;
nodes = (
(1193,524,l),
(1319,1184,l),
(1788,1184,l),
(1493,0,l),
(1000,0,l),
(908,447,l),
(898,447,l),
(805,0,l),
(314,0,l),
(20,1184,l),
(487,1184,l),
(614,524,l),
(624,524,l),
(724,1193,l),
(1080,1193,l),
(1183,524,l)
);
}
);
width = 1808;
}
);
unicode = 119;
},
{
glyphname = x;
layers = (
{
anchors = (
{
name = top;
pos = (603,1044);
},
{
name = bottom;
pos = (603,0);
}
);
layerId = m000;
shapes = (
{
closed = 1;
nodes = (
(706,392,l),
(581,0,l),
(20,0,l),
(314,592,l),
(20,1184,l),
(581,1184,l),
(706,792,l)
);
},
{
closed = 1;
nodes = (
(676,392,l),
(676,792,l),
(801,1184,l),
(1362,1184,l),
(1068,592,l),
(1362,0,l),
(801,0,l)
);
}
);
width = 1382;
}
);
unicode = 120;
},
{
glyphname = y;
layers = (
{
anchors = (
{
name = top;
pos = (572,1044);
},
{
name = bottom;
pos = (569,-471);
}
);
layerId = m000;
shapes = (
{
closed = 1;
nodes = (
(768,-486,qs),
(588,-486,o),
(453,-482,o),
(262,-447,o),
(104,-386,q),
(181,-81,l),
(426,-127,o),
(657,-131,o),
(741,-131,qs),
(822,-131,o),
(861,-107,o),
(861,-76,qs),
(861,1184,l),
(1365,1184,l),
(1365,-56,l),
(1365,-187,o),
(1239,-380,o),
(975,-486,o)
);
},
{
closed = 1;
nodes = (
(80,642,qs),
(80,1184,l),
(582,1184,l),
(582,642,l),
(582,532,o),
(628,426,o),
(678,426,qs),
(725,426,o),
(794,438,o),
(881,475,q),
(998,198,l),
(827,103,o),
(626,41,o),
(474,41,qs),
(324,41,o),
(153,215,o),
(80,490,o)
);
}
);
width = 1445;
}
);
unicode = 121;
},
{
glyphname = z;
layers = (
{
anchors = (
{
name = top;
pos = (461,1044);
},
{
name = bottom;
pos = (461,0);
}
);
layerId = m000;
shapes = (
{
closed = 1;
nodes = (
(70,770,l),
(70,1184,l),
(1160,1184,l),
(1160,867,l),
(666,414,l),
(1160,414,l),
(1160,0,l),
(70,0,l),
(70,318,l),
(566,770,l)
);
}
);
width = 1230;
}
);
unicode = 122;
},
{
glyphname = braceleft;
layers = (
{
layerId = m000;
shapes = (
{
closed = 1;
nodes = (
(836,1692,l),
(836,1313,l),
(705,1313,l),
(684,1313,o),
(653,1294,o),
(653,1270,qs),
(653,1093,l),
(653,1032,o),
(591,890,o),
(486,786,o),
(420,777,q),
(420,767,l),
(485,758,o),
(591,652,o),
(653,513,o),
(653,452,qs),
(653,277,l),
(653,254,o),
(684,232,o),
(705,232,qs),
(836,232,l),
(836,-147,l),
(637,-147,l),
(531,-147,o),
(360,-48,o),
(259,119,o),
(259,221,qs),
(259,452,l),
(259,501,o),
(199,593,o),
(160,594,q),
(40,602,l),
(40,941,l),
(160,950,l),
(200,947,o),
(259,1042,o),
(259,1093,qs),
(259,1323,l),
(259,1425,o),
(360,1592,o),
(530,1692,o),
(637,1692,qs)
);
}
);
width = 896;
}
);
unicode = 123;
},
{
glyphname = bar;
layers = (
{
layerId = m000;
shapes = (
{
closed = 1;
nodes = (
(80,1641,l),
(477,1641,l),
(477,-471,l),
(80,-471,l)
);
}
);
width = 557;
}
);
unicode = 124;
},
{
glyphname = braceright;
layers = (
{
layerId = m000;
shapes = (
{
closed = 1;
nodes = (
(80,-147,l),
(80,233,l),
(208,233,l),
(228,233,o),
(260,254,o),
(260,276,qs),
(260,454,l),
(260,516,o),
(323,655,o),
(428,759,o),
(494,768,q),
(494,778,l),
(430,786,o),
(323,891,o),
(260,1031,o),
(260,1093,qs),
(260,1271,l),
(260,1294,o),
(228,1316,o),
(208,1316,qs),
(80,1316,l),
(80,1692,l),
(278,1692,l),
(385,1692,o),
(556,1593,o),
(656,1426,o),
(656,1324,qs),
(656,1093,l),
(656,1042,o),
(716,952,o),
(756,951,q),
(876,941,l),
(876,604,l),
(756,593,l),
(715,597,o),
(656,504,o),
(656,454,qs),
(656,221,l),
(656,119,o),
(556,-48,o),
(385,-147,o),
(278,-147,qs)
);
}
);
width = 916;
}
);
unicode = 125;
},
{
glyphname = asciitilde;
layers = (
{
layerId = m000;
shapes = (
{
closed = 1;
nodes = (
(50,668,l),
(152,1080,o),
(421,1080,qs),
(458,1080,o),
(535,1057,o),
(585,1025,q),
(639,994,o),
(710,968,o),
(744,968,qs),
(790,968,o),
(840,1031,o),
(856,1104,q),
(1154,1032,l),
(1113,803,o),
(946,597,o),
(799,597,qs),
(747,597,o),
(632,631,o),
(568,665,q),
(535,681,o),
(488,696,o),
(470,696,qs),
(425,696,o),
(380,639,o),
(354,555,q)
);
}
);
width = 1204;
}
);
unicode = 126;
},
{
glyphname = cent;
layers = (
{
layerId = m000;
metricLeft = "base()";
metricRight = "base()";
shapes = (
{
ref = c;
},
{
closed = 1;
nodes = (
(674,941,l),
(871,941,l),
(871,329,l),
(674,329,l)
);
},
{
closed = 1;
nodes = (
(550,1341,l),
(797,1341,l),
(797,923,l),
(550,923,l)
);
},
{
closed = 1;
nodes = (
(550,165,l),
(797,165,l),
(797,-171,l),
(550,-171,l)
);
}
);
width = 1159;
}
);
unicode = 162;
},
{
glyphname = sterling;
layers = (
{
layerId = m000;
shapes = (
{
closed = 1;
nodes = (
(156,428,q),
(662,526,l),
(662,477,o),
(644,438,o),
(612,404,q),
(612,394,l),
(1154,394,l),
(1154,0,l),
(60,0,l),
(60,394,l),
(130,394,o),
(156,409,o)
);
},
{
closed = 1;
nodes = (
(60,648,l),
(60,958,l),
(920,958,l),
(920,648,l)
);
},
{
closed = 1;
nodes = (
(1079,1517,q),
(1041,1247,l),
(1014,1248,o),
(749,1252,o),
(733,1252,qs),
(703,1252,o),
(662,1226,o),
(662,1198,qs),
(662,526,l),
(156,428,l),
(156,1260,l),
(156,1388,o),
(272,1542,o),
(462,1611,o),
(572,1611,qs),
(652,1611,o),
(1001,1539,o)
);
}
);
width = 1214;
}
);
unicode = 163;
},
{
glyphname = currency;
layers = (
{
layerId = m000;
shapes = (
{
closed = 1;
nodes = (
(831,812,qs),
(768,812,o),
(704,695,o),
(704,590,qs),
(704,486,o),
(765,371,o),
(831,371,qs),
(897,371,o),
(959,486,o),
(959,590,qs),
(959,695,o),
(895,812,o)
);
},
{
closed = 1;
nodes = (
(831,1195,qs),
(1144,1195,o),
(1460,876,o),
(1460,593,qs),
(1460,308,o),
(1142,-11,o),
(831,-11,qs),
(520,-11,o),
(200,308,o),
(200,593,qs),
(200,876,o),
(517,1195,o)
);
},
{
closed = 1;
nodes = (
(50,1045,l),
(262,833,l),
(412,983,l),
(200,1195,l)
);
},
{
closed = 1;
nodes = (
(200,-11,l),
(412,201,l),
(262,351,l),
(50,139,l)
);
},
{
closed = 1;
nodes = (
(1610,1045,l),
(1460,1195,l),
(1248,983,l),
(1398,833,l)
);
},
{
closed = 1;
nodes = (
(1460,-11,l),
(1610,139,l),
(1398,351,l),
(1248,201,l)
);
}
);
width = 1660;
}
);
unicode = 164;
},
{
glyphname = yen;
layers = (
{
layerId = m000;
metricLeft = "base()";
metricRight = "base()";
shapes = (
{
ref = Y;
},
{
closed = 1;
nodes = (
(310,509,l),
(310,729,l),
(1410,729,l),
(1410,509,l)
);
},
{
closed = 1;
nodes = (
(310,209,l),
(310,429,l),
(1410,429,l),
(1410,209,l)
);
}
);
width = 1699;
}
);
unicode = 165;
},
{
glyphname = brokenbar;
layers = (
{
layerId = m000;
shapes = (
{
closed = 1;
nodes = (
(580,888,l),
(80,888,l),
(80,1564,l),
(580,1564,l)
);
},
{
closed = 1;
nodes = (
(580,0,l),
(80,0,l),
(80,707,l),
(580,707,l)
);
}
);
width = 660;
}
);
unicode = 166;
},
{
glyphname = section;
layers = (
{
layerId = m000;
shapes = (
{
closed = 1;
nodes = (
(926,583,l),
(1001,546,o),
(1056,436,o),
(1056,350,qs),
(1056,249,o),
(931,84,o),
(706,-13,o),
(556,-13,qs),
(418,-13,o),
(180,39,o),
(60,100,q),
(223,479,l),
(343,421,o),
(503,377,o),
(576,377,qs),
(604,377,o),
(626,376,o),
(629,374,o),
(629,371,q),
(629,373,o),
(620,382,o),
(582,396,o),
(536,403,q),
(396,429,o),
(221,516,o),
(139,636,o),
(139,707,qs),
(139,792,o),
(185,916,o),
(247,953,q),
(247,963,l),
(178,1004,o),
(117,1119,o),
(117,1183,qs),
(117,1289,o),
(232,1460,o),
(447,1558,o),
(593,1558,qs),
(686,1558,o),
(872,1518,o),
(975,1471,q),
(848,1157,l),
(768,1177,o),
(644,1195,o),
(618,1195,qs),
(585,1195,o),
(556,1192,o),
(548,1187,o),
(548,1182,qs),
(548,1179,o),
(566,1166,o),
(622,1153,q),
(776,1123,o),
(958,1027,o),
(1036,902,o),
(1036,826,qs),
(1036,762,o),
(981,635,o),
(926,593,q)
);
},
{
closed = 1;
nodes = (
(570,689,q),
(614,690,o),
(666,735,o),
(666,767,qs),
(666,788,o),
(646,819,o),
(608,839,o),
(581,841,q),
(552,841,o),
(506,817,o),
(480,778,o),
(480,755,qs),
(480,736,o),
(502,708,o),
(542,692,o)
);
}
);
width = 1116;
}
);
unicode = 167;
},
{
glyphname = dieresis;
layers = (
{
layerId = m000;
shapes = (
{
closed = 1;
nodes = (
(60,1285,qs),
(60,1357,o),
(170,1457,o),
(241,1457,qs),
(314,1457,o),
(421,1357,o),
(421,1285,qs),
(421,1212,o),
(314,1108,o),
(241,1108,qs),
(170,1108,o),
(60,1212,o)
);
},
{
closed = 1;
nodes = (
(498,1285,qs),
(498,1357,o),
(609,1457,o),
(681,1457,qs),
(752,1457,o),
(861,1357,o),
(861,1285,qs),
(861,1212,o),
(752,1108,o),
(681,1108,qs),
(609,1108,o),
(498,1212,o)
);
}
);
width = 921;
}
);
unicode = 168;
},
{
glyphname = copyright;
layers = (
{
layerId = m000;
shapes = (
{
closed = 1;
nodes = (
(326,709,qs),
(326,605,o),
(408,427,o),
(543,295,o),
(709,224,o),
(793,224,qs),
(877,224,o),
(1044,295,o),
(1179,427,o),
(1261,605,o),
(1261,709,qs),
(1261,814,o),
(1179,990,o),
(1044,1118,o),
(877,1190,o),
(793,1190,qs),
(709,1190,o),
(543,1118,o),
(408,990,o),
(326,814,o)
);
},
{
closed = 1;
nodes = (
(60,709,qs),
(60,854,o),
(176,1112,o),
(379,1311,o),
(644,1425,o),
(793,1425,qs),
(941,1425,o),
(1206,1311,o),
(1410,1112,o),
(1526,854,o),
(1526,709,qs),
(1526,565,o),
(1410,304,o),
(1206,103,o),
(943,-13,o),
(793,-13,qs),
(643,-13,o),
(379,103,o),
(176,304,o),
(60,565,o)
);
},
{
closed = 1;
nodes = (
(1047,911,q),
(929,807,l),
(902,847,o),
(828,877,o),
(800,877,qs),
(762,877,o),
(698,837,o),
(660,762,o),
(660,708,qs),
(660,654,o),
(698,577,o),
(762,536,o),
(800,536,qs),
(828,536,o),
(902,566,o),
(929,605,q),
(1047,502,l),
(994,434,o),
(874,364,o),
(784,364,qs),
(684,364,o),
(540,463,o),
(461,622,o),
(461,708,qs),
(461,794,o),
(540,951,o),
(684,1051,o),
(784,1051,qs),
(874,1051,o),
(994,980,o)
);
}
);
width = 1586;
}
);
unicode = 169;
},
{
glyphname = ordfeminine;
layers = (
{
layerId = m000;
shapes = (
{
closed = 1;
nodes = (
(348,1850,qs),
(444,1850,o),
(574,1797,o),
(638,1696,o),
(638,1628,qs),
(638,1422,l),
(638,1404,o),
(638,1389,o),
(638,1252,q),
(386,1252,l),
(386,1288,o),
(386,1320,o),
(386,1416,qs),
(386,1628,l),
(386,1646,o),
(366,1663,o),
(335,1663,qs),
(298,1663,o),
(192,1650,o),
(120,1636,q),
(100,1804,l),
(140,1815,o),
(246,1850,o)
);
},
{
closed = 1;
nodes = (
(470,1252,l),
(427,1252,o),
(322,1252,o),
(277,1252,o),
(227,1252,qs),
(151,1252,o),
(60,1334,o),
(60,1412,qs),
(60,1480,o),
(134,1567,o),
(244,1600,o),
(300,1600,qs),
(478,1600,l),
(481,1480,l),
(334,1480,l),
(310,1480,o),
(270,1464,o),
(270,1448,qs),
(270,1431,o),
(286,1418,o),
(300,1418,qs),
(311,1418,o),
(339,1418,o),
(386,1418,o),
(400,1418,q)
);
}
);
width = 698;
}
);
unicode = 170;
},
{
glyphname = guillemetleft;
layers = (
{
layerId = m000;
shapes = (
{
closed = 1;
nodes = (
(523,810,qs),
(523,975,o),
(687,1241,o),
(820,1349,q),
(1024,1112,l),
(970,1064,o),
(891,973,o),
(847,871,o),
(847,810,qs),
(847,747,o),
(891,648,o),
(970,557,o),
(1024,509,q),
(820,269,l),
(687,378,o),
(523,645,o)
);
},
{
closed = 1;
nodes = (
(70,810,qs),
(70,985,o),
(180,1289,o),
(297,1434,q),
(562,1227,l),
(501,1139,o),
(421,927,o),
(421,810,qs),
(421,692,o),
(501,482,o),
(562,394,q),
(297,186,l),
(180,331,o),
(70,635,o)
);
}
);
width = 1064;
}
);
unicode = 171;
},
{
glyphname = logicalnot;
layers = (
{
layerId = m000;
shapes = (
{
closed = 1;
nodes = (
(60,505,l),
(60,784,l),
(928,784,l),
(928,254,l),
(649,254,l),
(649,505,l)
);
}
);
width = 988;
}
);
unicode = 172;
},
{
glyphname = softhyphen;
layers = (
{
layerId = m000;
shapes = (
{
closed = 1;
nodes = (
(948,784,l),
(948,505,l),
(60,505,l),
(60,784,l)
);
}
);
width = 1008;
}
);
unicode = 173;
},
{
glyphname = registered;
layers = (
{
layerId = m000;
shapes = (
{
closed = 1;
nodes = (
(326,709,qs),
(326,605,o),
(408,427,o),
(543,295,o),
(709,224,o),
(793,224,qs),
(877,224,o),
(1044,295,o),
(1179,427,o),
(1261,605,o),
(1261,709,qs),
(1261,814,o),
(1179,990,o),
(1044,1118,o),
(877,1190,o),
(793,1190,qs),
(709,1190,o),
(543,1118,o),
(408,990,o),
(326,814,o)
);
},
{
closed = 1;
nodes = (
(60,709,qs),
(60,854,o),
(176,1112,o),
(379,1311,o),
(644,1425,o),
(793,1425,qs),
(941,1425,o),
(1206,1311,o),
(1410,1112,o),
(1526,854,o),
(1526,709,qs),
(1526,565,o),
(1410,304,o),
(1206,103,o),
(943,-13,o),
(793,-13,qs),
(643,-13,o),
(379,103,o),
(176,304,o),
(60,565,o)
);
},
{
closed = 1;
nodes = (
(1096,405,l),
(849,405,l),
(731,551,l),
(730,552,o),
(728,552,o),
(725,552,q),
(730,552,l),
(730,403,l),
(553,403,l),
(553,1052,l),
(803,1052,l),
(879,1052,o),
(1012,988,o),
(1095,875,o),
(1095,802,qs),
(1095,729,o),
(1010,618,o),
(949,585,q)
);
},
{
closed = 1;
nodes = (
(730,725,l),
(803,725,l),
(841,725,o),
(893,767,o),
(893,802,qs),
(893,839,o),
(841,879,o),
(803,879,qs),
(730,879,l)
);
}
);
width = 1586;
}
);
unicode = 174;
},
{
glyphname = macron;
layers = (
{
layerId = m000;
shapes = (
{
closed = 1;
nodes = (
(905,1419,l),
(905,1138,l),
(60,1138,l),
(60,1419,l)
);
}
);
width = 965;
}
);
unicode = 175;
},
{
glyphname = degree;
layers = (
{
layerId = m000;
shapes = (
{
closed = 1;
nodes = (
(484,1438,qs),
(484,1491,o),
(413,1556,o),
(361,1556,qs),
(311,1556,o),
(247,1491,o),
(247,1438,qs),
(247,1388,o),
(311,1320,o),
(361,1320,qs),
(413,1320,o),
(484,1388,o)
);
},
{
closed = 1;
nodes = (
(666,1438,qs),
(666,1355,o),
(584,1219,o),
(445,1138,o),
(361,1138,qs),
(278,1138,o),
(141,1219,o),
(60,1355,o),
(60,1438,qs),
(60,1522,o),
(141,1658,o),
(278,1738,o),
(361,1738,qs),
(445,1738,o),
(584,1658,o),
(666,1522,o)
);
}
);
width = 726;
}
);
unicode = 176;
},
{
glyphname = plusminus;
layers = (
{
layerId = m000;
shapes = (
{
closed = 1;
nodes = (
(1055,362,l),
(1055,10,l),
(80,10,l),
(80,362,l)
);
},
{
closed = 1;
nodes = (
(1055,1127,l),
(1055,775,l),
(743,775,l),
(743,465,l),
(392,465,l),
(392,775,l),
(80,775,l),
(80,1127,l),
(392,1127,l),
(392,1442,l),
(743,1442,l),
(743,1127,l)
);
}
);
width = 1135;
}
);
unicode = 177;
},
{
glyphname = twosuperior;
layers = (
{
layerId = m000;
shapes = (
{
closed = 1;
nodes = (
(60,1490,l),
(60,1492,o),
(110,1534,o),
(246,1583,o),
(330,1583,qs),
(418,1583,o),
(548,1520,o),
(618,1410,o),
(618,1336,qs),
(618,1259,o),
(558,1161,o),
(472,1100,o),
(433,1079,q),
(411,1070,o),
(374,1052,o),
(344,1030,o),
(331,1012,q),
(612,1012,l),
(612,792,l),
(64,792,l),
(64,820,o),
(64,874,o),
(62,898,q),
(62,941,o),
(79,1020,o),
(124,1094,o),
(208,1169,o),
(276,1210,qs),
(322,1237,o),
(370,1276,o),
(388,1307,o),
(388,1323,qs),
(388,1344,o),
(364,1370,o),
(335,1370,qs),
(320,1370,o),
(223,1349,o),
(124,1315,o),
(120,1314,q)
);
}
);
width = 678;
}
);
unicode = 178;
},
{
glyphname = threesuperior;
layers = (
{
layerId = m000;
shapes = (
{
closed = 1;
nodes = (
(324,1561,qs),
(406,1561,o),
(532,1507,o),
(600,1410,o),
(600,1346,qs),
(600,1284,o),
(542,1201,o),
(490,1178,q),
(490,1174,l),
(546,1163,o),
(610,1080,o),
(610,1008,qs),
(610,901,o),
(442,775,o),
(299,775,qs),
(210,775,o),
(70,811,o),
(20,865,q),
(103,1018,l),
(160,997,o),
(292,990,o),
(320,990,qs),
(344,990,o),
(370,1010,o),
(370,1026,qs),
(370,1083,o),
(256,1083,qs),
(160,1083,l),
(160,1260,l),
(250,1260,l),
(296,1260,o),
(352,1290,o),
(352,1313,qs),
(352,1330,o),
(332,1348,o),
(311,1348,qs),
(290,1348,o),
(136,1328,o),
(110,1322,q),
(52,1476,l),
(103,1528,o),
(246,1561,o)
);
}
);
width = 670;
}
);
unicode = 179;
},
{
glyphname = acute;
layers = (
{
layerId = m000;
shapes = (
{
closed = 1;
nodes = (
(152,1497,l),
(425,1497,l),
(276,1138,l),
(50,1138,l)
);
}
);
width = 475;
}
);
unicode = 180;
},
{
glyphname = mu;
layers = (
{
layerId = m000;
shapes = (
{
closed = 1;
nodes = (
(80,1174,l),
(559,1174,l),
(559,-422,l),
(80,-422,l)
);
},
{
closed = 1;
nodes = (
(80,431,qs),
(80,1174,l),
(559,1174,l),
(559,545,l),
(559,468,o),
(594,407,o),
(640,407,qs),
(678,407,o),
(724,456,o),
(747,509,q),
(922,431,l),
(864,194,o),
(653,-10,o),
(465,-10,qs),
(274,-10,o),
(80,210,o)
);
},
{
closed = 1;
nodes = (
(1225,1174,l),
(1225,0,l),
(845,0,l),
(745,206,l),
(745,1174,l)
);
}
);
width = 1305;
}
);
unicode = 181;
},
{
glyphname = paragraph;
layers = (
{
layerId = m000;
shapes = (
{
closed = 1;
nodes = (
(1414,-456,l),
(1064,-456,l),
(1064,1136,l),
(985,1136,l),
(985,-456,l),
(633,-456,l),
(633,269,l),
(630,269,l),
(443,269,o),
(190,450,o),
(60,742,o),
(60,912,qs),
(60,1083,o),
(189,1381,o),
(443,1565,o),
(630,1565,qs),
(1414,1565,l)
);
}
);
width = 1494;
}
);
unicode = 182;
},
{
glyphname = periodcentered;
layers = (
{
layerId = m000;
shapes = (
{
closed = 1;
nodes = (
(60,786,qs),
(60,878,o),
(199,1002,o),
(287,1002,qs),
(376,1002,o),
(512,878,o),
(512,786,qs),
(512,695,o),
(376,564,o),
(287,564,qs),
(199,564,o),
(60,695,o)
);
}
);
width = 579;
}
);
unicode = 183;
},
{
glyphname = cedilla;
layers = (
{
layerId = m000;
shapes = (
{
closed = 1;
nodes = (
(573,-261,qs),
(573,-379,o),
(393,-514,o),
(241,-514,qs),
(178,-514,o),
(68,-493,o),
(19,-466,q),
(96,-283,l),
(125,-294,o),
(207,-310,o),
(244,-310,qs),
(343,-310,o),
(343,-270,qs),
(343,-247,o),
(275,-222,o),
(209,-222,qs),
(191,-222,o),
(156,-225,o),
(138,-227,q),
(138,1,l),
(294,1,l),
(294,-48,l),
(430,-48,o),
(573,-156,o)
);
}
);
width = 591;
}
);
unicode = 184;
},
{
glyphname = onesuperior;
layers = (
{
layerId = m000;
shapes = (
{
closed = 1;
nodes = (
(248,1290,l),
(246,1289,o),
(61,1244,o),
(60,1246,q),
(60,1445,l),
(59,1445,o),
(209,1514,o),
(330,1572,o),
(330,1573,q),
(507,1573,l),
(507,786,l),
(248,786,l)
);
}
);
width = 587;
}
);
unicode = 185;
},
{
glyphname = ordmasculine;
layers = (
{
layerId = m000;
shapes = (
{
closed = 1;
nodes = (
(442,1346,qs),
(442,1399,o),
(371,1464,o),
(319,1464,qs),
(269,1464,o),
(205,1399,o),
(205,1346,qs),
(205,1296,o),
(269,1228,o),
(319,1228,qs),
(371,1228,o),
(442,1296,o)
);
},
{
closed = 1;
nodes = (
(624,1346,qs),
(624,1263,o),
(542,1127,o),
(403,1046,o),
(319,1046,qs),
(236,1046,o),
(99,1127,o),
(18,1263,o),
(18,1346,qs),
(18,1430,o),
(99,1566,o),
(236,1646,o),
(319,1646,qs),
(403,1646,o),
(542,1566,o),
(624,1430,o)
);
}
);
width = 653;
}
);
unicode = 186;
},
{
glyphname = guillemetright;
layers = (
{
layerId = m000;
shapes = (
{
closed = 1;
nodes = (
(510,810,qs),
(510,645,o),
(346,378,o),
(211,269,q),
(11,509,l),
(65,557,o),
(143,648,o),
(185,747,o),
(185,810,qs),
(185,871,o),
(143,973,o),
(65,1064,o),
(11,1112,q),
(211,1349,l),
(346,1241,o),
(510,975,o)
);
},
{
closed = 1;
nodes = (
(965,810,qs),
(965,635,o),
(852,331,o),
(736,186,q),
(472,394,l),
(533,482,o),
(612,692,o),
(612,810,qs),
(612,927,o),
(533,1139,o),
(472,1227,q),
(736,1434,l),
(852,1289,o),
(965,985,o)
);
}
);
width = 971;
}
);
unicode = 187;
},
{
glyphname = onequarter;
layers = (
{
layerId = m000;
shapes = (
{
closed = 1;
nodes = (
(458,200,l),
(245,200,l),
(1107,1364,l),
(1323,1364,l)
);
},
{
closed = 1;
nodes = (
(288,1290,l),
(286,1289,o),
(101,1244,o),
(100,1246,q),
(100,1445,l),
(99,1445,o),
(249,1514,o),
(370,1572,o),
(370,1573,q),
(547,1573,l),
(547,786,l),
(288,786,l)
);
},
{
closed = 1;
nodes = (
(1190,343,l),
(1190,510,l),
(1054,343,l)
);
},
{
closed = 1;
nodes = (
(1106,146,l),
(833,146,l),
(833,338,l),
(1134,786,l),
(1368,786,l),
(1368,343,l),
(1457,343,l),
(1457,146,l),
(1368,146,l),
(1368,0,l),
(1106,0,l)
);
}
);
width = 1557;
}
);
unicode = 188;
},
{
glyphname = onehalf;
layers = (
{
layerId = m000;
shapes = (
{
closed = 1;
nodes = (
(448,200,l),
(235,200,l),
(1097,1364,l),
(1313,1364,l)
);
},
{
closed = 1;
nodes = (
(288,1290,l),
(286,1289,o),
(101,1244,o),
(100,1246,q),
(100,1445,l),
(99,1445,o),
(249,1514,o),
(370,1572,o),
(370,1573,q),
(547,1573,l),
(547,786,l),
(288,786,l)
);
},
{
closed = 1;
nodes = (
(920,698,l),
(920,701,o),
(970,742,o),
(1106,792,o),
(1190,792,qs),
(1278,792,o),
(1408,729,o),
(1478,618,o),
(1478,544,qs),
(1478,468,o),
(1418,370,o),
(1332,308,o),
(1293,288,q),
(1271,278,o),
(1234,260,o),
(1204,238,o),
(1191,220,q),
(1472,220,l),
(1472,0,l),
(924,0,l),
(924,29,o),
(924,82,o),
(922,106,q),
(922,150,o),
(939,228,o),
(984,302,o),
(1068,378,o),
(1136,418,qs),
(1182,446,o),
(1230,484,o),
(1248,516,o),
(1248,532,qs),
(1248,552,o),
(1224,578,o),
(1195,578,qs),
(1180,578,o),
(1083,558,o),
(984,524,o),
(980,522,q)
);
}
);
width = 1578;
}
);
unicode = 189;
},
{
glyphname = threequarters;
layers = (
{
layerId = m000;
shapes = (
{
closed = 1;
nodes = (
(498,200,l),
(285,200,l),
(1147,1364,l),
(1363,1364,l)
);
},
{
closed = 1;
nodes = (
(1190,343,l),
(1190,510,l),
(1054,343,l)
);
},
{
closed = 1;
nodes = (
(1106,146,l),
(833,146,l),
(833,338,l),
(1134,786,l),
(1368,786,l),
(1368,343,l),
(1457,343,l),
(1457,146,l),
(1368,146,l),
(1368,0,l),
(1106,0,l)
);
},
{
closed = 1;
nodes = (
(404,1561,qs),
(486,1561,o),
(612,1507,o),
(680,1410,o),
(680,1346,qs),
(680,1284,o),
(622,1201,o),
(570,1178,q),
(570,1174,l),
(626,1163,o),
(690,1080,o),
(690,1008,qs),
(690,901,o),
(522,775,o),
(379,775,qs),
(290,775,o),
(150,811,o),
(100,865,q),
(183,1018,l),
(240,997,o),
(372,990,o),
(400,990,qs),
(424,990,o),
(450,1010,o),
(450,1026,qs),
(450,1083,o),
(336,1083,qs),
(240,1083,l),
(240,1260,l),
(330,1260,l),
(376,1260,o),
(432,1290,o),
(432,1313,qs),
(432,1330,o),
(412,1348,o),
(391,1348,qs),
(370,1348,o),
(216,1328,o),
(190,1322,q),
(132,1476,l),
(183,1528,o),
(326,1561,o)
);
}
);
width = 1557;
}
);
unicode = 190;
},
{
glyphname = AE;
layers = (
{
layerId = m000;
shapes = (
{
closed = 1;
nodes = (
(769,660,l),
(985,660,l),
(985,974,l),
(845,974,l)
);
},
{
closed = 1;
nodes = (
(985,288,l),
(651,288,l),
(567,0,l),
(30,0,l),
(581,1564,l),
(2062,1564,l),
(2062,1148,l),
(1486,1148,l),
(1486,971,l),
(2006,971,l),
(2006,594,l),
(1486,594,l),
(1486,415,l),
(2062,415,l),
(2062,0,l),
(985,0,l)
);
}
);
width = 2142;
}
);
unicode = 198;
},
{
glyphname = Eth;
layers = (
{
layerId = m000;
metricRight = "base()";
shapes = (
{
pos = (61,0);
ref = D;
},
{
closed = 1;
nodes = (
(875,922,l),
(875,642,l),
(30,642,l),
(30,922,l)
);
}
);
width = 1560;
}
);
unicode = 208;
},
{
glyphname = multiply;
layers = (
{
layerId = m000;
shapes = (
{
closed = 1;
nodes = (
(858,1201,l),
(1107,953,l),
(853,700,l),
(1107,443,l),
(861,195,l),
(603,452,l),
(347,195,l),
(100,444,l),
(355,700,l),
(100,949,l),
(349,1200,l),
(603,946,l)
);
}
);
width = 1205;
}
);
unicode = 215;
},
{
glyphname = Thorn;
layers = (
{
layerId = m000;
shapes = (
{
closed = 1;
nodes = (
(90,1597,l),
(593,1597,l),
(593,0,l),
(90,0,l)
);
},
{
closed = 1;
nodes = (
(1309,776,qs),
(1309,626,o),
(1236,378,o),
(1064,214,o),
(916,214,qs),
(864,214,o),
(562,214,o),
(441,214,q),
(557,588,l),
(736,588,o),
(794,590,o),
(820,590,qs),
(851,590,o),
(907,666,o),
(907,776,qs),
(907,886,o),
(851,962,o),
(820,962,qs),
(794,962,o),
(736,962,o),
(557,962,q),
(441,1346,l),
(562,1346,o),
(864,1346,o),
(916,1346,qs),
(1064,1346,o),
(1236,1174,o),
(1309,928,o)
);
}
);
width = 1379;
}
);
unicode = 222;
},
{
glyphname = germandbls;
layers = (
{
layerId = m000;
shapes = (
{
closed = 1;
nodes = (
(851,601,o),
(814,601,qs),
(754,601,o),
(727,710,o),
(727,780,qs),
(727,850,o),
(748,958,o),
(788,958,qs),
(815,958,o),
(850,1003,o),
(850,1053,qs),
(850,1105,o),
(806,1148,o),
(768,1148,qs),
(692,1148,l),
(642,1148,o),
(592,1098,o),
(592,1048,qs),
(592,0,l),
(90,0,l),
(90,1064,l),
(90,1264,o),
(390,1564,o),
(590,1564,qs),
(838,1564,l),
(1084,1564,o),
(1359,1324,o),
(1359,1086,qs),
(1359,987,o),
(1256,811,o),
(1031,792,q),
(1031,762,l),
(1259,750,o),
(1395,538,o),
(1395,417,qs),
(1395,174,o),
(1128,0,o),
(857,0,qs),
(727,0,l),
(727,415,l),
(814,415,l),
(850,415,o),
(895,456,o),
(895,508,qs),
(895,558,o)
);
}
);
width = 1465;
}
);
unicode = 223;
},
{
glyphname = ae;
layers = (
{
layerId = m000;
shapes = (
{
pos = (688,0);
ref = e;
},
{
closed = 1;
nodes = (
(647,1197,qs),
(839,1197,o),
(1099,1091,o),
(1227,890,o),
(1227,753,qs),
(1227,341,l),
(1227,305,o),
(1227,275,o),
(1227,200,q),
(723,100,l),
(723,172,o),
(723,236,o),
(723,328,qs),
(723,753,l),
(723,788,o),
(682,823,o),
(620,823,qs),
(547,823,o),
(335,797,o),
(190,770,q),
(150,1105,l),
(230,1127,o),
(441,1197,o)
);
},
{
closed = 1;
nodes = (
(1089,200,l),
(996,37,o),
(594,0,o),
(504,0,o),
(404,0,qs),
(252,0,o),
(70,165,o),
(70,322,qs),
(70,456,o),
(217,631,o),
(439,696,o),
(549,696,qs),
(907,696,l),
(912,457,l),
(619,457,l),
(570,457,o),
(490,426,o),
(490,393,qs),
(490,359,o),
(522,332,o),
(551,332,qs),
(572,332,o),
(628,332,o),
(723,332,o),
(751,332,q)
);
}
);
width = 2075;
}
);
unicode = 230;
},
{
glyphname = eth;
layers = (
{
layerId = m000;
shapes = (
{
closed = 1;
nodes = (
(623,812,qs),
(604,812,o),
(571,777,o),
(552,682,o),
(552,591,qs),
(552,503,o),
(571,406,o),
(602,371,o),
(623,371,qs),
(643,371,o),
(682,406,o),
(706,503,o),
(706,591,qs),
(706,682,o),
(682,777,o),
(643,812,o)
);
},
{
closed = 1;
nodes = (
(570,1192,qs),
(608,1192,o),
(698,1187,o),
(751,1196,q),
(758,1203,l),
(745,1221,o),
(679,1285,o),
(616,1342,o),
(602,1348,q),
(514,1269,l),
(372,1434,l),
(444,1487,l),
(409,1502,o),
(288,1534,o),
(241,1535,q),
(327,1853,l),
(418,1843,o),
(621,1743,o),
(690,1690,q),
(784,1771,l),
(923,1599,l),
(853,1548,l),
(996,1399,o),
(1150,1134,o),
(1210,859,o),
(1210,700,qs),
(1210,342,o),
(933,-11,o),
(629,-11,qs),
(428,-11,o),
(172,150,o),
(49,424,o),
(49,591,qs),
(49,799,o),
(204,1065,o),
(442,1192,o)
);
}
);
width = 1256;
}
);
unicode = 240;
},
{
glyphname = divide;
layers = (
{
layerId = m000;
shapes = (
{
closed = 1;
nodes = (
(1035,873,l),
(1035,521,l),
(60,521,l),
(60,873,l)
);
},
{
closed = 1;
nodes = (
(387,973,l),
(387,1293,l),
(707,1293,l),
(707,973,l)
);
},
{
closed = 1;
nodes = (
(387,101,l),
(387,421,l),
(707,421,l),
(707,101,l)
);
}
);
width = 1095;
}
);
unicode = 247;
},
{
glyphname = thorn;
layers = (
{
layerId = m000;
shapes = (
{
closed = 1;
nodes = (
(90,1584,l),
(593,1584,l),
(593,-413,l),
(90,-413,l)
);
},
{
closed = 1;
nodes = (
(807,592,qs),
(807,703,o),
(751,809,o),
(720,809,qs),
(694,809,o),
(636,806,o),
(557,789,q),
(441,1076,l),
(562,1152,o),
(764,1193,o),
(916,1193,qs),
(1064,1193,o),
(1236,1020,o),
(1309,745,o),
(1309,592,qs),
(1309,439,o),
(1236,164,o),
(1064,-9,o),
(916,-9,qs),
(764,-9,o),
(562,32,o),
(441,108,q),
(557,395,l),
(636,378,o),
(694,375,o),
(720,375,qs),
(751,375,o),
(807,481,o)
);
}
);
width = 1379;
}
);
unicode = 254;
},
{
glyphname = hyphen;
layers = (
{
layerId = m000;
shapes = (
{
closed = 1;
nodes = (
(1135,773,l),
(1135,421,l),
(60,421,l),
(60,773,l)
);
}
);
width = 1195;
}
);
unicode = 8208;
},
{
glyphname = figuredash;
layers = (
{
layerId = m000;
shapes = (
{
closed = 1;
nodes = (
(1572,849,l),
(1572,497,l),
(60,497,l),
(60,849,l)
);
}
);
width = 1632;
}
);
unicode = 8210;
},
{
glyphname = endash;
layers = (
{
layerId = m000;
shapes = (
{
closed = 1;
nodes = (
(1035,873,l),
(1035,521,l),
(60,521,l),
(60,873,l)
);
}
);
width = 1095;
}
);
unicode = 8211;
},
{
glyphname = emdash;
layers = (
{
layerId = m000;
shapes = (
{
closed = 1;
nodes = (
(2016,849,l),
(2016,497,l),
(60,497,l),
(60,849,l)
);
}
);
width = 2076;
}
);
unicode = 8212;
},
{
glyphname = quoteleft;
layers = (
{
layerId = m000;
shapes = (
{
closed = 1;
nodes = (
(510,1632,l),
(611,1121,l),
(298,962,l),
(78,1632,l)
);
}
);
width = 684;
}
);
unicode = 8216;
},
{
glyphname = quoteright;
layers = (
{
layerId = m000;
shapes = (
{
closed = 1;
nodes = (
(176,1632,l),
(611,1632,l),
(391,962,l),
(78,1121,l)
);
}
);
width = 684;
}
);
unicode = 8217;
},
{
glyphname = quotesinglbase;
layers = (
{
layerId = m000;
shapes = (
{
closed = 1;
nodes = (
(176,348,l),
(611,348,l),
(391,-322,l),
(78,-163,l)
);
}
);
width = 684;
}
);
unicode = 8218;
},
{
glyphname = quotedblleft;
layers = (
{
layerId = m000;
shapes = (
{
closed = 1;
nodes = (
(1093,1632,l),
(1194,1121,l),
(881,962,l),
(661,1632,l)
);
},
{
closed = 1;
nodes = (
(510,1632,l),
(611,1121,l),
(298,962,l),
(78,1632,l)
);
}
);
width = 1266;
}
);
unicode = 8220;
},
{
glyphname = quotedblright;
layers = (
{
layerId = m000;
shapes = (
{
closed = 1;
nodes = (
(759,1632,l),
(1194,1632,l),
(974,962,l),
(661,1121,l)
);
},
{
closed = 1;
nodes = (
(176,1632,l),
(611,1632,l),
(391,962,l),
(78,1121,l)
);
}
);
width = 1266;
}
);
unicode = 8221;
},
{
glyphname = quotedblbase;
layers = (
{
layerId = m000;
shapes = (
{
closed = 1;
nodes = (
(759,348,l),
(1194,348,l),
(974,-322,l),
(661,-163,l)
);
},
{
closed = 1;
nodes = (
(176,348,l),
(611,348,l),
(391,-322,l),
(78,-163,l)
);
}
);
width = 1266;
}
);
unicode = 8222;
},
{
glyphname = dagger;
layers = (
{
layerId = m000;
shapes = (
{
closed = 1;
nodes = (
(1135,1253,l),
(1135,901,l),
(60,901,l),
(60,1253,l)
);
},
{
closed = 1;
nodes = (
(422,1554,l),
(773,1554,l),
(773,0,l),
(421,0,l)
);
}
);
width = 1230;
}
);
unicode = 8224;
},
{
glyphname = daggerdbl;
layers = (
{
layerId = m000;
shapes = (
{
closed = 1;
nodes = (
(1135,653,l),
(1135,301,l),
(60,301,l),
(60,653,l)
);
},
{
closed = 1;
nodes = (
(1135,1253,l),
(1135,901,l),
(60,901,l),
(60,1253,l)
);
},
{
closed = 1;
nodes = (
(422,1554,l),
(773,1554,l),
(773,0,l),
(421,0,l)
);
}
);
width = 1195;
}
);
unicode = 8225;
},
{
glyphname = bullet;
layers = (
{
layerId = m000;
shapes = (
{
closed = 1;
nodes = (
(90,688,qs),
(90,791,o),
(237,936,o),
(337,936,qs),
(439,936,o),
(586,791,o),
(586,688,qs),
(586,585,o),
(439,440,o),
(337,440,qs),
(237,440,o),
(90,585,o)
);
}
);
width = 673;
}
);
unicode = 8226;
},
{
glyphname = ellipsis;
layers = (
{
layerId = m000;
shapes = (
{
closed = 1;
nodes = (
(80,0,l),
(80,400,l),
(480,400,l),
(480,0,l)
);
},
{
closed = 1;
nodes = (
(660,0,l),
(660,400,l),
(1060,400,l),
(1060,0,l)
);
},
{
closed = 1;
nodes = (
(1240,0,l),
(1240,400,l),
(1640,400,l),
(1640,0,l)
);
}
);
width = 1720;
}
);
unicode = 8230;
},
{
glyphname = perthousand;
layers = (
{
layerId = m000;
shapes = (
{
closed = 1;
nodes = (
(2367,355,qs),
(2367,386,o),
(2351,420,o),
(2334,420,qs),
(2316,420,o),
(2302,386,o),
(2302,355,qs),
(2302,325,o),
(2314,287,o),
(2334,287,qs),
(2354,287,o),
(2367,325,o)
);
},
{
closed = 1;
nodes = (
(2663,355,qs),
(2663,279,o),
(2585,135,o),
(2438,45,o),
(2334,45,qs),
(2229,45,o),
(2084,135,o),
(2008,279,o),
(2008,355,qs),
(2008,434,o),
(2086,573,o),
(2232,661,o),
(2334,661,qs),
(2437,661,o),
(2584,573,o),
(2663,434,o)
);
},
{
closed = 1;
nodes = (
(1569,355,qs),
(1569,386,o),
(1553,420,o),
(1536,420,qs),
(1518,420,o),
(1504,386,o),
(1504,355,qs),
(1504,325,o),
(1516,287,o),
(1536,287,qs),
(1556,287,o),
(1569,325,o)
);
},
{
closed = 1;
nodes = (
(1865,355,qs),
(1865,279,o),
(1787,135,o),
(1640,45,o),
(1536,45,qs),
(1431,45,o),
(1286,135,o),
(1210,279,o),
(1210,355,qs),
(1210,434,o),
(1288,573,o),
(1434,661,o),
(1536,661,qs),
(1639,661,o),
(1786,573,o),
(1865,434,o)
);
},
{
closed = 1;
nodes = (
(470,1216,qs),
(470,1247,o),
(454,1281,o),
(437,1281,qs),
(419,1281,o),
(405,1247,o),
(405,1216,qs),
(405,1186,o),
(417,1148,o),
(437,1148,qs),
(457,1148,o),
(470,1186,o)
);
},
{
closed = 1;
nodes = (
(766,1216,qs),
(766,1140,o),
(688,996,o),
(541,906,o),
(437,906,qs),
(332,906,o),
(187,996,o),
(111,1140,o),
(111,1216,qs),
(111,1295,o),
(189,1434,o),
(335,1522,o),
(437,1522,qs),
(540,1522,o),
(687,1434,o),
(766,1295,o)
);
},
{
closed = 1;
nodes = (
(1169,1564,l),
(1520,1564,l),
(729,0,l),
(382,0,l)
);
}
);
width = 2769;
}
);
unicode = 8240;
},
{
glyphname = minute;
layers = (
{
layerId = m000;
shapes = (
{
closed = 1;
nodes = (
(178,1764,l),
(417,1764,l),
(247,1211,l),
(52,1211,l)
);
}
);
width = 467;
}
);
unicode = 8242;
},
{
glyphname = second;
layers = (
{
layerId = m000;
shapes = (
{
closed = 1;
nodes = (
(528,1764,l),
(767,1764,l),
(597,1211,l),
(402,1211,l)
);
},
{
closed = 1;
nodes = (
(178,1764,l),
(417,1764,l),
(247,1211,l),
(52,1211,l)
);
}
);
width = 819;
}
);
unicode = 8243;
},
{
glyphname = guilsinglleft;
layers = (
{
layerId = m000;
shapes = (
{
closed = 1;
nodes = (
(390,799,l),
(589,618,l),
(408,427,l),
(11,799,l),
(408,1173,l),
(589,980,l)
);
}
);
width = 598;
}
);
unicode = 8249;
},
{
glyphname = guilsinglright;
layers = (
{
layerId = m000;
shapes = (
{
closed = 1;
nodes = (
(208,799,l),
(11,980,l),
(191,1173,l),
(589,799,l),
(191,427,l),
(11,618,l)
);
}
);
width = 598;
}
);
unicode = 8250;
},
{
glyphname = fraction;
layers = (
{
layerId = m000;
shapes = (
{
closed = 1;
nodes = (
(86,-174,l),
(-146,1,l),
(860,1318,l),
(1092,1141,l)
);
}
);
width = 1162;
}
);
unicode = 8260;
},
{
glyphname = euro;
layers = (
{
layerId = m000;
shapes = (
{
closed = 1;
nodes = (
(651,782,qs),
(651,658,o),
(699,490,o),
(841,435,o),
(904,435,qs),
(961,435,o),
(1156,447,o),
(1339,518,q),
(1475,94,l),
(1362,43,o),
(1065,-11,o),
(906,-11,qs),
(689,-11,o),
(319,192,o),
(148,551,o),
(148,782,qs),
(148,1015,o),
(319,1371,o),
(689,1574,o),
(906,1574,qs),
(1065,1574,o),
(1260,1546,o),
(1447,1482,q),
(1345,1049,l),
(1119,1127,o),
(961,1129,o),
(904,1129,qs),
(841,1129,o),
(699,1075,o),
(651,908,o)
);
},
{
closed = 1;
nodes = (
(40,834,l),
(40,1030,l),
(1072,1030,l),
(1072,834,l)
);
},
{
closed = 1;
nodes = (
(40,534,l),
(40,730,l),
(1072,730,l),
(1072,534,l)
);
}
);
width = 1535;
}
);
unicode = 8364;
},
{
glyphname = almostequalto;
layers = (
{
layerId = m000;
shapes = (
{
closed = 1;
nodes = (
(60,391,l),
(137,502,o),
(311,618,o),
(400,618,qs),
(446,618,o),
(545,588,o),
(598,556,qs),
(647,528,o),
(736,494,o),
(767,494,qs),
(844,494,o),
(947,606,q),
(1094,459,l),
(1013,347,o),
(841,238,o),
(746,238,qs),
(701,238,o),
(610,267,o),
(540,305,qs),
(479,337,o),
(402,366,o),
(375,366,qs),
(338,366,o),
(258,311,o),
(215,255,q)
);
},
{
closed = 1;
nodes = (
(60,818,l),
(137,929,o),
(311,1045,o),
(400,1045,qs),
(446,1045,o),
(545,1015,o),
(598,983,qs),
(647,955,o),
(736,921,o),
(767,921,qs),
(845,921,o),
(947,1032,q),
(1094,886,l),
(1013,774,o),
(841,665,o),
(746,665,qs),
(701,665,o),
(610,694,o),
(540,732,qs),
(479,764,o),
(402,794,o),
(375,794,qs),
(338,794,o),
(258,739,o),
(215,683,q)
);
}
);
width = 1154;
}
);
unicode = 8776;
},
{
glyphname = uE004;
layers = (
{
layerId = m000;
shapes = (
{
closed = 1;
nodes = (
(243,-174,l),
(11,1,l),
(308,388,l),
(402,448,l),
(750,902,l),
(796,1028,l),
(1017,1318,l),
(1249,1141,l),
(1041,867,l),
(929,788,l),
(575,326,l),
(540,211,l)
);
}
);
width = 1257;
}
);
unicode = 57348;
},
{
glyphname = uE005;
layers = (
{
layerId = m000;
shapes = (
{
closed = 1;
nodes = (
(1306,19,l),
(965,-181,l),
(829,183,l),
(743,247,l),
(1039,424,l),
(1059,322,l)
);
}
);
width = 1507;
}
);
unicode = 57349;
},
{
glyphname = uE001;
layers = (
{
layerId = m000;
shapes = (
{
closed = 1;
nodes = (
(1548,982,q),
(1484,548,l),
(1357,504,o),
(1090,433,o),
(842,346,o),
(647,229,o),
(532,89,o),
(532,11,qs),
(532,-48,o),
(623,-143,o),
(798,-198,o),
(924,-198,qs),
(1073,-198,o),
(1317,-164,o),
(1364,-147,q),
(1487,-608,l),
(1351,-657,o),
(1110,-709,o),
(928,-709,qs),
(663,-709,o),
(278,-538,o),
(70,-236,o),
(70,-41,qs),
(70,66,o),
(136,269,o),
(266,452,o),
(459,601,o),
(589,656,qs),
(708,706,o),
(1075,710,q),
(1070,710,l),
(1070,760,l),
(973,766,o),
(825,800,o),
(772,814,qs),
(709,832,o),
(630,866,o),
(588,866,qs),
(528,866,o),
(460,770,o),
(438,700,qs),
(429,672,l),
(87,772,l),
(95,804,l),
(168,1072,o),
(403,1314,o),
(590,1314,qs),
(663,1314,o),
(850,1256,o),
(992,1194,qs),
(1146,1124,o),
(1354,1038,o),
(1495,992,o)
);
},
{
closed = 1;
nodes = (
(1435,538,l),
(1542,509,o),
(1608,504,o),
(1647,504,qs),
(1659,504,l),
(1659,0,l),
(1511,2,o),
(1391,102,qs),
(1269,203,o),
(1220,474,q)
);
}
);
width = 1659;
}
);
unicode = 57345;
},
{
glyphname = uE008;
layers = (
{
layerId = m000;
shapes = (
{
closed = 1;
nodes = (
(1548,982,q),
(1484,488,l),
(1357,484,o),
(1090,433,o),
(842,346,o),
(647,229,o),
(532,89,o),
(532,11,qs),
(532,-48,o),
(623,-163,o),
(798,-248,o),
(924,-248,qs),
(1073,-248,o),
(1297,-184,o),
(1364,-157,q),
(1487,-608,l),
(1351,-657,o),
(1110,-709,o),
(928,-709,qs),
(663,-709,o),
(278,-538,o),
(70,-236,o),
(70,-41,qs),
(70,66,o),
(136,269,o),
(266,452,o),
(459,601,o),
(589,656,qs),
(708,706,o),
(1075,710,q),
(1070,710,l),
(1070,760,l),
(973,766,o),
(825,800,o),
(772,814,qs),
(709,832,o),
(630,866,o),
(588,866,qs),
(528,866,o),
(460,770,o),
(438,700,qs),
(429,672,l),
(87,772,l),
(95,804,l),
(168,1072,o),
(403,1314,o),
(590,1314,qs),
(663,1314,o),
(850,1256,o),
(992,1194,qs),
(1146,1124,o),
(1354,1038,o),
(1495,992,o)
);
}
);
width = 1618;
}
);
unicode = 57352;
},
{
glyphname = uE011;
layers = (
{
layerId = m000;
shapes = (
{
closed = 1;
nodes = (
(389,1894,l),
(541,1723,l),
(23,1235,l),
(-50,1483,l)
);
}
);
width = 841;
}
);
unicode = 57361;
},
{
glyphname = "highhamza-arab";
layers = (
{
layerId = m000;
shapes = (
{
closed = 1;
nodes = (
(575,1543,q),
(560,1332,l),
(502,1337,o),
(457,1345,o),
(437,1345,qs),
(388,1345,o),
(333,1311,o),
(333,1287,qs),
(333,1266,o),
(377,1242,o),
(433,1251,qs),
(458,1255,o),
(470,1260,q),
(606,1304,l),
(677,1066,l),
(166,901,l),
(95,1141,l),
(231,1181,l),
(228,1189,l),
(195,1196,o),
(170,1257,o),
(170,1307,qs),
(170,1417,o),
(319,1557,o),
(439,1557,qs),
(461,1557,o),
(519,1551,o)
);
}
);
width = 772;
}
);
unicode = 1652;
},
{
glyphname = uE010;
layers = (
{
layerId = m000;
shapes = (
{
closed = 1;
nodes = (
(-166,0,q),
(-410,0,l),
(-410,222,o),
(-252,432,o),
(-73,435,qs),
(13,435,o),
(257,389,o),
(382,451,q),
(409,143,l),
(302,103,o),
(17,138,o),
(-31,138,qs),
(-99,138,o),
(-166,49,o)
);
}
);
}
);
unicode = 57360;
},
{
glyphname = uE119;
layers = (
{
layerId = m000;
shapes = (
{
closed = 1;
nodes = (
(1548,982,q),
(1484,548,l),
(1357,504,o),
(1090,433,o),
(842,346,o),
(647,229,o),
(532,89,o),
(532,11,qs),
(532,-48,o),
(623,-163,o),
(798,-248,o),
(924,-248,qs),
(1073,-248,o),
(1297,-184,o),
(1364,-157,q),
(1487,-608,l),
(1351,-657,o),
(1110,-709,o),
(928,-709,qs),
(663,-709,o),
(278,-538,o),
(70,-236,o),
(70,-41,qs),
(70,66,o),
(136,269,o),
(266,452,o),
(459,601,o),
(589,656,qs),
(708,706,o),
(1075,710,q),
(1070,710,l),
(1070,760,l),
(973,766,o),
(825,800,o),
(772,814,qs),
(709,832,o),
(630,866,o),
(588,866,qs),
(528,866,o),
(460,770,o),
(438,700,qs),
(429,672,l),
(87,772,l),
(95,804,l),
(168,1072,o),
(403,1314,o),
(590,1314,qs),
(663,1314,o),
(850,1256,o),
(992,1194,qs),
(1146,1124,o),
(1354,1038,o),
(1495,992,o)
);
},
{
closed = 1;
nodes = (
(1435,538,l),
(1542,509,o),
(1608,504,o),
(1647,504,qs),
(1659,504,l),
(1659,0,l),
(1511,2,o),
(1391,102,qs),
(1269,203,o),
(1220,474,q)
);
}
);
width = 1659;
}
);
unicode = 57625;
},
{
glyphname = uE129;
layers = (
{
layerId = m000;
shapes = (
{
closed = 1;
nodes = (
(630,48,l),
(0,-10,l),
(0,339,l),
(395,374,l),
(175,535,l),
(404,730,l),
(754,401,l)
);
}
);
width = 754;
}
);
unicode = 57641;
},
{
glyphname = uE143;
layers = (
{
layerId = m000;
shapes = (
{
closed = 1;
nodes = (
(145,606,qs),
(95,606,o),
(0,621,q),
(50,829,l),
(84,823,o),
(152,815,o),
(181,815,qs),
(220,815,o),
(308,821,o),
(350,840,o),
(350,841,qs),
(350,853,o),
(268,854,o),
(215,865,qs),
(153,878,o),
(49,921,o),
(18,981,o),
(18,1018,qs),
(18,1148,o),
(177,1316,o),
(306,1316,qs),
(364,1316,o),
(474,1298,q),
(409,1098,l),
(325,1113,o),
(287,1113,qs),
(248,1113,o),
(143,1087,o),
(143,1071,qs),
(143,1063,o),
(276,1035,o),
(361,1016,qs),
(408,1006,o),
(458,966,o),
(476,908,o),
(476,870,qs),
(476,792,o),
(399,671,o),
(252,606,o)
);
}
);
width = 476;
}
);
unicode = 57667;
},
{
glyphname = uE144;
layers = (
{
anchors = (
{
name = top_arab;
pos = (539,1095);
},
{
name = bottom_arab;
pos = (539,-491);
}
);
layerId = m000;
shapes = (
{
closed = 1;
nodes = (
(723,504,l),
(1105,504,l),
(1105,0,l),
(773,0,l),
(773,-10,l)
);
},
{
closed = 1;
nodes = (
(539,1155,qs),
(665,1155,o),
(870,1068,o),
(998,882,o),
(998,742,qs),
(998,666,o),
(789,326,o),
(682,155,o),
(317,130,q),
(314,68,o),
(65,0,q),
(0,0,l),
(-100,252,o),
(0,504,q),
(46,504,l),
(52,746,o),
(206,1033,o),
(422,1155,o)
);
},
{
closed = 1;
nodes = (
(347,520,q),
(467,537,o),
(589,554,o),
(728,588,o),
(728,616,qs),
(728,645,o),
(636,683,o),
(540,683,qs),
(483,683,o),
(416,659,o),
(355,594,o)
);
},
{
closed = 1;
nodes = (
(539,-551,qs),
(422,-551,o),
(206,-429,o),
(52,-142,o),
(46,0,q),
(0,0,l),
(-100,252,o),
(0,504,q),
(65,504,l),
(449,518,l),
(682,449,o),
(789,278,o),
(998,-62,o),
(998,-138,qs),
(998,-278,o),
(870,-464,o),
(665,-551,o)
);
},
{
closed = 1;
nodes = (
(347,84,q),
(355,10,o),
(416,-55,o),
(483,-79,o),
(540,-79,qs),
(636,-79,o),
(728,-41,o),
(728,-12,qs),
(728,16,o),
(589,50,o),
(467,67,o)
);
}
);
width = 1105;
}
);
unicode = 57668;
},
{
glyphname = tildecomb;
layers = (
{
layerId = m000;
shapes = (
{
closed = 1;
nodes = (
(-432,1217,l),
(-385,1333,o),
(-238,1462,o),
(-155,1462,qs),
(-114,1462,o),
(-25,1428,o),
(27,1393,qs),
(67,1366,o),
(125,1341,o),
(150,1341,qs),
(222,1341,o),
(276,1462,q),
(429,1376,l),
(340,1137,o),
(152,1137,qs),
(103,1137,o),
(3,1172,o),
(-57,1210,qs),
(-127,1255,o),
(-165,1255,qs),
(-197,1255,o),
(-249,1201,o),
(-277,1138,q)
);
}
);
}
);
unicode = 771;
},
{
glyphname = uE145;
layers = (
{
layerId = m000;
shapes = (
{
closed = 1;
nodes = (
(1317,1564,l),
(1568,1364,l),
(277,0,l),
(30,200,l)
);
}
);
width = 1598;
}
);
unicode = 57669;
},
{
glyphname = uE146;
layers = (
{
anchors = (
{
name = bottom;
pos = (281,0);
},
{
name = ogonek;
pos = (281,0);
}
);
layerId = m000;
shapes = (
{
closed = 1;
nodes = (
(90,1184,l),
(598,1184,l),
(597,0,l),
(90,0,l)
);
}
);
width = 687;
}
);
unicode = 57670;
},
{
glyphname = uE147;
layers = (
{
layerId = m000;
shapes = (
{
closed = 1;
nodes = (
(1118,1184,l),
(1370,984,l),
(918,577,l),
(900,670,l),
(600,410,l),
(477,180,l),
(277,0,l),
(30,200,l),
(477,604,l),
(500,510,l),
(800,770,l),
(918,1003,l)
);
}
);
width = 1400;
}
);
unicode = 57671;
},
{
glyphname = uE148;
layers = (
{
anchors = (
{
name = top_arab;
pos = (768,1105);
},
{
name = bottom_arab;
pos = (807,-730);
}
);
layerId = m000;
shapes = (
{
closed = 1;
nodes = (
(1240,508,l),
(1240,498,l),
(1290,504,o),
(1340,504,qs),
(1617,504,l),
(1617,0,l),
(1384.5,0,l),
(1330.5,0,o),
(1109,43,o),
(931,132,o),
(836,199,q),
(757,170,o),
(619,81,o),
(533,-31,o),
(533,-91,qs),
(533,-152,o),
(751,-229,o),
(933,-229,qs),
(1018,-229,o),
(1178,-206,o),
(1249,-186,q),
(1360,-666,l),
(1152,-740,o),
(937,-740,qs),
(677,-740,o),
(287,-591,o),
(70,-320,o),
(70,-142,qs),
(70,43,o),
(302,355,o),
(495,445,q),
(495,455,l)
);
},
{
closed = 1;
nodes = (
(774,1179,qs),
(934,1179,o),
(1171,1056,o),
(1302,849,o),
(1302,721,qs),
(1302,657,o),
(1264,525,o),
(1213,458,q),
(1213,448,l),
(495,395,l),
(495,405,l),
(188,653,l),
(188,924,l),
(306,1046,o),
(623,1179,o)
);
},
{
closed = 1;
nodes = (
(1002,687,qs),
(1002,708,o),
(870,726,o),
(808,726,qs),
(743,726,o),
(551,719,qs),
(551,719,l),
(827,552,l),
(1002,650,o)
);
}
);
width = 1617;
}
);
unicode = 57672;
},
{
glyphname = uE150;
layers = (
{
anchors = (
{
name = top_arab;
pos = (490,1070);
},
{
name = bottom_arab;
pos = (490,0);
}
);
layerId = m000;
shapes = (
{
closed = 1;
nodes = (
(0,504,q),
(0,0,l),
(-31,0,o),
(-61,118,o),
(-61,253,qs),
(-61,388,o),
(-31,504,o)
);
},
{
closed = 1;
nodes = (
(652,1679,l),
(942,1316,l),
(458,1031,l),
(1333,1031,l),
(1559,1031,o),
(1851,934,o),
(1994,736,o),
(1994,578,qs),
(1994,392,o),
(1871,186,o),
(1592,0,o),
(1357,0,qs),
(0,0,l),
(0,504,l),
(1507,504,l),
(1536,504,o),
(1572,505,o),
(1590,511,o),
(1590,538,qs),
(1590,563,o),
(1577,593,o),
(1553,616,o),
(1514,616,qs),
(245,616,l),
(101,1133,l)
);
}
);
width = 2064;
}
);
unicode = 57680;
},
{
glyphname = uE151;
layers = (
{
anchors = (
{
name = top_arab;
pos = (490,1070);
},
{
name = bottom_arab;
pos = (490,0);
}
);
layerId = m000;
shapes = (
{
closed = 1;
nodes = (
(1693,572,o),
(1994,579,q),
(1993,550,o),
(2012,512,o),
(2077,504,o),
(2145,504,qs),
(2146,504,l),
(2146,0,l),
(2145,0,l),
(2029,0,o),
(1825,122,o),
(1762,264,q),
(1752,264,l),
(1696,121,o),
(1756,425,o),
(1768,429,o),
(1723,538,q)
);
},
{
closed = 1;
nodes = (
(0,504,q),
(0,0,l),
(-31,0,o),
(-61,118,o),
(-61,253,qs),
(-61,388,o),
(-31,504,o)
);
},
{
closed = 1;
nodes = (
(652,1679,l),
(942,1316,l),
(458,1031,l),
(1333,1031,l),
(1559,1031,o),
(1851,934,o),
(1994,736,o),
(1994,578,qs),
(1994,392,o),
(1871,186,o),
(1592,0,o),
(1357,0,qs),
(0,0,l),
(0,504,l),
(1507,504,l),
(1536,504,o),
(1572,505,o),
(1590,511,o),
(1590,538,qs),
(1590,563,o),
(1577,593,o),
(1553,616,o),
(1514,616,qs),
(245,616,l),
(101,1133,l)
);
}
);
width = 2146;
}
);
unicode = 57681;
},
{
glyphname = uE166;
layers = (
{
anchors = (
{
name = top_arab;
pos = (450,717);
},
{
name = bottom_arab;
pos = (877,-577);
}
);
layerId = m000;
shapes = (
{
closed = 1;
nodes = (
(1521,-20,l),
(1542,-23,o),
(1579,-64,o),
(1579,-142,qs),
(1579,-239,o),
(1463,-418,o),
(1264,-534,o),
(1012,-587,o),
(877,-587,qs),
(473,-587,o),
(70,-277,o),
(70,68,qs),
(70,222,o),
(106,525,o),
(155,717,q),
(590,632,l),
(511,324,o),
(511,111,qs),
(511,-15,o),
(686,-110,o),
(884,-110,qs),
(969,-110,o),
(1133,-102,o),
(1259,-60,o),
(1259,-10,qs),
(1259,7,o),
(1130,12,o),
(937,16,o),
(785,19,q),
(859,504,l),
(1763,504,l),
(1763,0,l),
(1521,0,l)
);
}
);
width = 1763;
}
);
unicode = 57702;
},
{
glyphname = uE0A1;
layers = (
{
anchors = (
{
name = top_arab;
pos = (723,1274);
},
{
name = bottom_arab;
pos = (828,-699);
}
);
layerId = m000;
shapes = (
{
closed = 1;
nodes = (
(1405,528,l),
(1472,509,o),
(1538,504,o),
(1687,504,qs),
(1739,504,l),
(1739,0,l),
(1431,2,o),
(1311,102,qs),
(1189,203,o),
(1140,464,q)
);
},
{
closed = 1;
nodes = (
(1548,982,q),
(1484,548,l),
(1357,504,o),
(1090,433,o),
(842,346,o),
(647,229,o),
(532,89,o),
(532,11,qs),
(532,-48,o),
(623,-143,o),
(798,-198,o),
(924,-198,qs),
(1073,-198,o),
(1317,-164,o),
(1364,-147,q),
(1487,-608,l),
(1351,-657,o),
(1110,-709,o),
(928,-709,qs),
(663,-709,o),
(278,-538,o),
(70,-236,o),
(70,-41,qs),
(70,66,o),
(136,269,o),
(266,452,o),
(459,601,o),
(589,656,qs),
(708,706,o),
(1075,710,q),
(1070,710,l),
(1070,760,l),
(973,766,o),
(825,800,o),
(772,814,qs),
(709,832,o),
(630,866,o),
(588,866,qs),
(528,866,o),
(460,770,o),
(438,700,qs),
(429,672,l),
(87,772,l),
(95,804,l),
(168,1072,o),
(403,1314,o),
(590,1314,qs),
(663,1314,o),
(850,1256,o),
(992,1194,qs),
(1146,1124,o),
(1354,1038,o),
(1495,992,o)
);
}
);
width = 1739;
}
);
unicode = 57505;
},
{
glyphname = uE0A5;
layers = (
{
layerId = m000;
shapes = (
{
closed = 1;
nodes = (
(1548,982,q),
(1484,548,l),
(1357,504,o),
(1090,433,o),
(842,346,o),
(647,229,o),
(532,89,o),
(532,11,qs),
(532,-48,o),
(623,-143,o),
(798,-198,o),
(924,-198,qs),
(1073,-198,o),
(1317,-164,o),
(1364,-147,q),
(1487,-608,l),
(1351,-657,o),
(1110,-709,o),
(928,-709,qs),
(663,-709,o),
(278,-538,o),
(70,-236,o),
(70,-41,qs),
(70,66,o),
(136,269,o),
(266,452,o),
(459,601,o),
(589,656,qs),
(708,706,o),
(1075,710,q),
(1070,710,l),
(1070,760,l),
(973,766,o),
(825,800,o),
(772,814,qs),
(709,832,o),
(630,866,o),
(588,866,qs),
(528,866,o),
(460,770,o),
(438,700,qs),
(429,672,l),
(87,772,l),
(95,804,l),
(168,1072,o),
(403,1314,o),
(590,1314,qs),
(663,1314,o),
(850,1256,o),
(992,1194,qs),
(1146,1124,o),
(1354,1038,o),
(1495,992,o)
);
},
{
closed = 1;
nodes = (
(1435,538,l),
(1542,509,o),
(1608,504,o),
(1727,504,qs),
(1739,504,l),
(1739,0,l),
(1511,2,o),
(1391,102,qs),
(1269,203,o),
(1220,474,q)
);
}
);
width = 1739;
}
);
unicode = 57509;
},
{
glyphname = uE0A6;
layers = (
{
layerId = m000;
shapes = (
{
closed = 1;
nodes = (
(1548,982,q),
(1484,548,l),
(1357,504,o),
(1090,433,o),
(842,346,o),
(647,229,o),
(532,89,o),
(532,11,qs),
(532,-48,o),
(623,-163,o),
(798,-248,o),
(924,-248,qs),
(1073,-248,o),
(1297,-184,o),
(1364,-157,q),
(1487,-608,l),
(1351,-657,o),
(1110,-709,o),
(928,-709,qs),
(663,-709,o),
(278,-538,o),
(70,-236,o),
(70,-41,qs),
(70,66,o),
(136,269,o),
(266,452,o),
(459,601,o),
(589,656,qs),
(708,706,o),
(1075,710,q),
(1070,710,l),
(1070,760,l),
(973,766,o),
(825,800,o),
(772,814,qs),
(709,832,o),
(630,866,o),
(588,866,qs),
(528,866,o),
(460,770,o),
(438,700,qs),
(429,672,l),
(87,772,l),
(95,804,l),
(168,1072,o),
(403,1314,o),
(590,1314,qs),
(663,1314,o),
(850,1256,o),
(992,1194,qs),
(1146,1124,o),
(1354,1038,o),
(1495,992,o)
);
},
{
closed = 1;
nodes = (
(1435,538,l),
(1542,509,o),
(1608,504,o),
(1727,504,qs),
(1739,504,l),
(1739,0,l),
(1511,2,o),
(1391,102,qs),
(1269,203,o),
(1220,474,q)
);
}
);
width = 1739;
}
);
unicode = 57510;
},
